  0
SECTION
  2
HEADER
  9
$ACADVER
  1
AC1006
  9
$EXTMIN
 10
0.000000
 20
0.000000
 30
0.000000
  9
$EXTMAX
 10
832.000000
 20
160.000000
 30
0.000000
  0
ENDSEC
  0
SECTION
  2
ENTITIES
  0
POLYLINE
  8
0
 66
1
 70
1
  0
VERTEX
  8
0
 10
0.000000
 20
88.000000
 42
0.000000
  0
VERTEX
  8
0
 10
0.000000
 20
31.000000
 42
0.000000
  0
VERTEX
  8
0
 10
5.000000
 20
31.000000
 42
-0.009722
  0
VERTEX
  8
0
 10
8.199987
 20
30.937776
 42
-0.126045
  0
VERTEX
  8
0
 10
9.333333
 20
30.600000
 42
-0.222479
  0
VERTEX
  8
0
 10
9.858980
 20
29.819245
 42
-0.038700
  0
VERTEX
  8
0
 10
10.000000
 20
28.000000
 42
0.030103
  0
VERTEX
  8
0
 10
10.097235
 20
26.386401
 42
0.144586
  0
VERTEX
  8
0
 10
10.458333
 20
25.550000
 42
0.173074
  0
VERTEX
  8
0
 10
11.175563
 20
25.126572
 42
0.047675
  0
VERTEX
  8
0
 10
12.500000
 20
25.000000
 42
-0.063163
  0
VERTEX
  8
0
 10
13.919849
 20
24.819917
 42
-0.217022
  0
VERTEX
  8
0
 10
14.625000
 20
24.250000
 42
-0.105983
  0
VERTEX
  8
0
 10
14.937230
 20
23.039690
 42
-0.010324
  0
VERTEX
  8
0
 10
15.000000
 20
20.000000
 42
0.000000
  0
VERTEX
  8
0
 10
15.000000
 20
15.000000
 42
0.000000
  0
VERTEX
  8
0
 10
20.000000
 20
15.000000
 42
0.000000
  0
VERTEX
  8
0
 10
25.000000
 20
15.000000
 42
0.000000
  0
VERTEX
  8
0
 10
25.160037
 20
71.250000
 42
-0.000688
  0
VERTEX
  8
0
 10
25.250183
 20
92.601090
 42
-0.001257
  0
VERTEX
  8
0
 10
25.391539
 20
110.021875
 42
-0.000507
  0
VERTEX
  8
0
 10
25.557096
 20
124.240777
 42
-0.934153
  0
VERTEX
  8
0
 10
25.723396
 20
124.250000
 42
0.000000
  0
VERTEX
  8
0
 10
26.126717
 20
121.000000
 42
0.000000
  0
VERTEX
  8
0
 10
36.563358
 20
121.000000
 42
0.000000
  0
VERTEX
  8
0
 10
47.000000
 20
121.000000
 42
0.000000
  0
VERTEX
  8
0
 10
47.000000
 20
68.000000
 42
0.000000
  0
VERTEX
  8
0
 10
47.000000
 20
15.000000
 42
0.000000
  0
VERTEX
  8
0
 10
52.000000
 20
15.000000
 42
0.000000
  0
VERTEX
  8
0
 10
57.000000
 20
15.000000
 42
0.000000
  0
VERTEX
  8
0
 10
57.160037
 20
23.250000
 42
-0.005022
  0
VERTEX
  8
0
 10
57.247799
 20
26.230227
 42
-0.018181
  0
VERTEX
  8
0
 10
57.391539
 20
28.121875
 42
-0.269543
  0
VERTEX
  8
0
 10
57.557417
 20
28.345240
 42
-0.499435
  0
VERTEX
  8
0
 10
57.723396
 20
28.250000
 42
0.032252
  0
VERTEX
  8
0
 10
58.094023
 20
26.301328
 42
0.183785
  0
VERTEX
  8
0
 10
58.692450
 20
25.455861
 42
0.134167
  0
VERTEX
  8
0
 10
59.810460
 20
25.079654
 42
0.014464
  0
VERTEX
  8
0
 10
62.563358
 20
25.000000
 42
0.012530
  0
VERTEX
  8
0
 10
65.333497
 20
25.069432
 42
0.136958
  0
VERTEX
  8
0
 10
66.380280
 20
25.419047
 42
0.211245
  0
VERTEX
  8
0
 10
66.870748
 20
26.201594
 42
0.035889
  0
VERTEX
  8
0
 10
67.000000
 20
28.000000
 42
-0.030723
  0
VERTEX
  8
0
 10
67.103846
 20
29.688463
 42
-0.167168
  0
VERTEX
  8
0
 10
67.500000
 20
30.500000
 42
-0.167168
  0
VERTEX
  8
0
 10
68.311537
 20
30.896154
 42
-0.030723
  0
VERTEX
  8
0
 10
70.000000
 20
31.000000
 42
0.000000
  0
VERTEX
  8
0
 10
73.000000
 20
31.000000
 42
0.000000
  0
VERTEX
  8
0
 10
73.000000
 20
76.000000
 42
0.000000
  0
VERTEX
  8
0
 10
73.000000
 20
121.000000
 42
0.000000
  0
VERTEX
  8
0
 10
69.000000
 20
121.000000
 42
0.000000
  0
VERTEX
  8
0
 10
65.000000
 20
121.000000
 42
0.000000
  0
VERTEX
  8
0
 10
65.000000
 20
125.000000
 42
0.000000
  0
VERTEX
  8
0
 10
65.000000
 20
129.000000
 42
0.000000
  0
VERTEX
  8
0
 10
61.000000
 20
129.000000
 42
0.000000
  0
VERTEX
  8
0
 10
57.000000
 20
129.000000
 42
0.000000
  0
VERTEX
  8
0
 10
57.000000
 20
133.000000
 42
0.000000
  0
VERTEX
  8
0
 10
57.000000
 20
137.000000
 42
0.000000
  0
VERTEX
  8
0
 10
41.000000
 20
137.000000
 42
0.000000
  0
VERTEX
  8
0
 10
25.000000
 20
137.000000
 42
0.000000
  0
VERTEX
  8
0
 10
25.000000
 20
141.000000
 42
0.000000
  0
VERTEX
  8
0
 10
25.000000
 20
145.000000
 42
0.000000
  0
VERTEX
  8
0
 10
12.500000
 20
145.000000
 42
0.000000
  0
VERTEX
  8
0
 10
0.000000
 20
145.000000
 42
0.000000
  0
SEQEND
  0
POLYLINE
  8
0
 66
1
 70
1
  0
VERTEX
  8
0
 10
111.000000
 20
141.000000
 42
0.000000
  0
VERTEX
  8
0
 10
111.000000
 20
137.000000
 42
0.000000
  0
VERTEX
  8
0
 10
107.000000
 20
137.000000
 42
0.000000
  0
VERTEX
  8
0
 10
103.000000
 20
137.000000
 42
0.000000
  0
VERTEX
  8
0
 10
103.000000
 20
133.000000
 42
0.000000
  0
VERTEX
  8
0
 10
103.000000
 20
129.000000
 42
0.000000
  0
VERTEX
  8
0
 10
99.000000
 20
129.000000
 42
0.000000
  0
VERTEX
  8
0
 10
95.000000
 20
129.000000
 42
0.000000
  0
VERTEX
  8
0
 10
95.000000
 20
105.000000
 42
0.000000
  0
VERTEX
  8
0
 10
95.000000
 20
81.000000
 42
0.000000
  0
VERTEX
  8
0
 10
88.500000
 20
81.000000
 42
0.000000
  0
VERTEX
  8
0
 10
82.000000
 20
81.000000
 42
0.000000
  0
VERTEX
  8
0
 10
82.000000
 20
77.000000
 42
0.016149
  0
VERTEX
  8
0
 10
82.074999
 20
74.678456
 42
0.124134
  0
VERTEX
  8
0
 10
82.406250
 20
73.650000
 42
0.201266
  0
VERTEX
  8
0
 10
83.111634
 20
73.151756
 42
0.054490
  0
VERTEX
  8
0
 10
84.500000
 20
73.000000
 42
-0.063163
  0
VERTEX
  8
0
 10
85.919849
 20
72.819917
 42
-0.217022
  0
VERTEX
  8
0
 10
86.625000
 20
72.250000
 42
-0.105983
  0
VERTEX
  8
0
 10
86.937230
 20
71.039690
 42
-0.010324
  0
VERTEX
  8
0
 10
87.000000
 20
68.000000
 42
0.000000
  0
VERTEX
  8
0
 10
87.000000
 20
63.000000
 42
0.000000
  0
VERTEX
  8
0
 10
91.000000
 20
63.000000
 42
0.000000
  0
VERTEX
  8
0
 10
95.000000
 20
63.000000
 42
0.000000
  0
VERTEX
  8
0
 10
95.000000
 20
39.000000
 42
0.000000
  0
VERTEX
  8
0
 10
95.000000
 20
15.000000
 42
0.000000
  0
VERTEX
  8
0
 10
108.000000
 20
15.000000
 42
0.000000
  0
VERTEX
  8
0
 10
121.000000
 20
15.000000
 42
0.000000
  0
VERTEX
  8
0
 10
121.000000
 20
39.000000
 42
0.000000
  0
VERTEX
  8
0
 10
121.000000
 20
63.000000
 42
0.000000
  0
VERTEX
  8
0
 10
136.000000
 20
63.000000
 42
0.000000
  0
VERTEX
  8
0
 10
151.000000
 20
63.000000
 42
0.000000
  0
VERTEX
  8
0
 10
151.000000
 20
39.000000
 42
0.000000
  0
VERTEX
  8
0
 10
151.000000
 20
15.000000
 42
0.000000
  0
VERTEX
  8
0
 10
156.000000
 20
15.000000
 42
0.000000
  0
VERTEX
  8
0
 10
161.000000
 20
15.000000
 42
0.000000
  0
VERTEX
  8
0
 10
161.160037
 20
23.250000
 42
-0.005022
  0
VERTEX
  8
0
 10
161.247799
 20
26.230227
 42
-0.018181
  0
VERTEX
  8
0
 10
161.391539
 20
28.121875
 42
-0.269543
  0
VERTEX
  8
0
 10
161.557417
 20
28.345240
 42
-0.499435
  0
VERTEX
  8
0
 10
161.723396
 20
28.250000
 42
0.032252
  0
VERTEX
  8
0
 10
162.094023
 20
26.301328
 42
0.183785
  0
VERTEX
  8
0
 10
162.692450
 20
25.455861
 42
0.134167
  0
VERTEX
  8
0
 10
163.810460
 20
25.079654
 42
0.014464
  0
VERTEX
  8
0
 10
166.563358
 20
25.000000
 42
0.012530
  0
VERTEX
  8
0
 10
169.333497
 20
25.069432
 42
0.136958
  0
VERTEX
  8
0
 10
170.380280
 20
25.419047
 42
0.211245
  0
VERTEX
  8
0
 10
170.870748
 20
26.201594
 42
0.035889
  0
VERTEX
  8
0
 10
171.000000
 20
28.000000
 42
-0.030723
  0
VERTEX
  8
0
 10
171.103846
 20
29.688463
 42
-0.167168
  0
VERTEX
  8
0
 10
171.500000
 20
30.500000
 42
-0.167168
  0
VERTEX
  8
0
 10
172.311537
 20
30.896154
 42
-0.030723
  0
VERTEX
  8
0
 10
174.000000
 20
31.000000
 42
0.000000
  0
VERTEX
  8
0
 10
177.000000
 20
31.000000
 42
0.000000
  0
VERTEX
  8
0
 10
177.000000
 20
88.000000
 42
0.000000
  0
VERTEX
  8
0
 10
177.000000
 20
145.000000
 42
0.000000
  0
VERTEX
  8
0
 10
144.000000
 20
145.000000
 42
0.000000
  0
VERTEX
  8
0
 10
111.000000
 20
145.000000
 42
0.000000
  0
SEQEND
  0
POLYLINE
  8
0
 66
1
 70
1
  0
VERTEX
  8
0
 10
151.000000
 20
104.000000
 42
0.000000
  0
VERTEX
  8
0
 10
151.000000
 20
81.000000
 42
0.000000
  0
VERTEX
  8
0
 10
136.000000
 20
81.000000
 42
0.000000
  0
VERTEX
  8
0
 10
121.000000
 20
81.000000
 42
0.000000
  0
VERTEX
  8
0
 10
121.000000
 20
104.000000
 42
0.000000
  0
VERTEX
  8
0
 10
121.000000
 20
127.000000
 42
0.000000
  0
VERTEX
  8
0
 10
136.000000
 20
127.000000
 42
0.000000
  0
VERTEX
  8
0
 10
151.000000
 20
127.000000
 42
0.000000
  0
SEQEND
  0
POLYLINE
  8
0
 66
1
 70
1
  0
VERTEX
  8
0
 10
215.000000
 20
137.000000
 42
0.000000
  0
VERTEX
  8
0
 10
215.000000
 20
129.000000
 42
0.000000
  0
VERTEX
  8
0
 10
200.500000
 20
129.000000
 42
0.000000
  0
VERTEX
  8
0
 10
186.000000
 20
129.000000
 42
0.000000
  0
VERTEX
  8
0
 10
186.000000
 20
125.000000
 42
0.016149
  0
VERTEX
  8
0
 10
186.074999
 20
122.678456
 42
0.124134
  0
VERTEX
  8
0
 10
186.406250
 20
121.650000
 42
0.201266
  0
VERTEX
  8
0
 10
187.111634
 20
121.151756
 42
0.054490
  0
VERTEX
  8
0
 10
188.500000
 20
121.000000
 42
-0.063163
  0
VERTEX
  8
0
 10
189.919849
 20
120.819917
 42
-0.217022
  0
VERTEX
  8
0
 10
190.625000
 20
120.250000
 42
-0.105983
  0
VERTEX
  8
0
 10
190.937230
 20
119.039690
 42
-0.010324
  0
VERTEX
  8
0
 10
191.000000
 20
116.000000
 42
0.000000
  0
VERTEX
  8
0
 10
191.000000
 20
111.000000
 42
0.000000
  0
VERTEX
  8
0
 10
200.500000
 20
111.000000
 42
0.000000
  0
VERTEX
  8
0
 10
210.000000
 20
111.000000
 42
0.000000
  0
VERTEX
  8
0
 10
210.000000
 20
108.000000
 42
0.030103
  0
VERTEX
  8
0
 10
210.097235
 20
106.386401
 42
0.144586
  0
VERTEX
  8
0
 10
210.458333
 20
105.550000
 42
0.173074
  0
VERTEX
  8
0
 10
211.175563
 20
105.126572
 42
0.047675
  0
VERTEX
  8
0
 10
212.500000
 20
105.000000
 42
0.000000
  0
VERTEX
  8
0
 10
215.000000
 20
105.000000
 42
0.000000
  0
VERTEX
  8
0
 10
215.000000
 20
65.000000
 42
0.000000
  0
VERTEX
  8
0
 10
215.000000
 20
25.000000
 42
0.000000
  0
VERTEX
  8
0
 10
211.000000
 20
25.000000
 42
0.000000
  0
VERTEX
  8
0
 10
207.000000
 20
25.000000
 42
0.000000
  0
VERTEX
  8
0
 10
207.000000
 20
20.000000
 42
0.000000
  0
VERTEX
  8
0
 10
207.000000
 20
15.000000
 42
0.000000
  0
VERTEX
  8
0
 10
228.000000
 20
15.000000
 42
0.000000
  0
VERTEX
  8
0
 10
249.000000
 20
15.000000
 42
0.000000
  0
VERTEX
  8
0
 10
249.000000
 20
24.000000
 42
0.000000
  0
VERTEX
  8
0
 10
249.000000
 20
33.000000
 42
0.000000
  0
VERTEX
  8
0
 10
245.000000
 20
33.000000
 42
0.000000
  0
VERTEX
  8
0
 10
241.000000
 20
33.000000
 42
0.000000
  0
VERTEX
  8
0
 10
241.160037
 20
72.250000
 42
-0.000996
  0
VERTEX
  8
0
 10
241.250082
 20
87.084057
 42
-0.001896
  0
VERTEX
  8
0
 10
241.391539
 20
99.015625
 42
-0.001149
  0
VERTEX
  8
0
 10
241.557126
 20
108.241411
 42
-0.930607
  0
VERTEX
  8
0
 10
241.723396
 20
108.250000
 42
0.000000
  0
VERTEX
  8
0
 10
242.126717
 20
105.000000
 42
0.000000
  0
VERTEX
  8
0
 10
248.563358
 20
105.000000
 42
0.000000
  0
VERTEX
  8
0
 10
255.000000
 20
105.000000
 42
0.000000
  0
VERTEX
  8
0
 10
255.000000
 20
100.000000
 42
0.000000
  0
VERTEX
  8
0
 10
255.000000
 20
95.000000
 42
0.000000
  0
VERTEX
  8
0
 10
260.500000
 20
95.000000
 42
-0.008002
  0
VERTEX
  8
0
 10
264.082489
 20
94.942664
 42
-0.117370
  0
VERTEX
  8
0
 10
265.291667
 20
94.613636
 42
-0.230406
  0
VERTEX
  8
0
 10
265.847929
 20
93.832050
 42
-0.041432
  0
VERTEX
  8
0
 10
266.000000
 20
92.000000
 42
0.036189
  0
VERTEX
  8
0
 10
266.130535
 20
90.198831
 42
0.212646
  0
VERTEX
  8
0
 10
266.625000
 20
89.416667
 42
0.135673
  0
VERTEX
  8
0
 10
267.681601
 20
89.068508
 42
0.012152
  0
VERTEX
  8
0
 10
270.500000
 20
89.000000
 42
0.000000
  0
VERTEX
  8
0
 10
275.000000
 20
89.000000
 42
0.000000
  0
VERTEX
  8
0
 10
275.000000
 20
93.000000
 42
0.023598
  0
VERTEX
  8
0
 10
274.927610
 20
94.532944
 42
0.037669
  0
VERTEX
  8
0
 10
274.706250
 20
95.825000
 42
0.043820
  0
VERTEX
  8
0
 10
274.387127
 20
96.748945
 42
0.295869
  0
VERTEX
  8
0
 10
274.000000
 20
97.000000
 42
-0.379241
  0
VERTEX
  8
0
 10
273.563953
 20
97.386292
 42
-0.009430
  0
VERTEX
  8
0
 10
273.270833
 20
100.250000
 42
-0.014311
  0
VERTEX
  8
0
 10
273.064309
 20
104.034260
 42
-0.006475
  0
VERTEX
  8
0
 10
273.000000
 20
109.000000
 42
0.000000
  0
VERTEX
  8
0
 10
273.000000
 20
121.000000
 42
0.000000
  0
VERTEX
  8
0
 10
269.000000
 20
121.000000
 42
0.000000
  0
VERTEX
  8
0
 10
265.000000
 20
121.000000
 42
0.000000
  0
VERTEX
  8
0
 10
265.000000
 20
125.000000
 42
0.000000
  0
VERTEX
  8
0
 10
265.000000
 20
129.000000
 42
0.000000
  0
VERTEX
  8
0
 10
253.000000
 20
129.000000
 42
0.000000
  0
VERTEX
  8
0
 10
241.000000
 20
129.000000
 42
0.000000
  0
VERTEX
  8
0
 10
241.000000
 20
137.000000
 42
0.000000
  0
VERTEX
  8
0
 10
241.000000
 20
145.000000
 42
0.000000
  0
VERTEX
  8
0
 10
228.000000
 20
145.000000
 42
0.000000
  0
VERTEX
  8
0
 10
215.000000
 20
145.000000
 42
0.000000
  0
SEQEND
  0
POLYLINE
  8
0
 66
1
 70
1
  0
VERTEX
  8
0
 10
311.000000
 20
141.000000
 42
0.000000
  0
VERTEX
  8
0
 10
311.000000
 20
137.000000
 42
0.000000
  0
VERTEX
  8
0
 10
307.000000
 20
137.000000
 42
0.000000
  0
VERTEX
  8
0
 10
303.000000
 20
137.000000
 42
0.000000
  0
VERTEX
  8
0
 10
303.000000
 20
133.000000
 42
0.000000
  0
VERTEX
  8
0
 10
303.000000
 20
129.000000
 42
0.000000
  0
VERTEX
  8
0
 10
299.000000
 20
129.000000
 42
0.000000
  0
VERTEX
  8
0
 10
295.000000
 20
129.000000
 42
0.000000
  0
VERTEX
  8
0
 10
295.000000
 20
109.000000
 42
0.000000
  0
VERTEX
  8
0
 10
295.000000
 20
89.000000
 42
0.000000
  0
VERTEX
  8
0
 10
291.000000
 20
89.000000
 42
0.000000
  0
VERTEX
  8
0
 10
287.000000
 20
89.000000
 42
0.000000
  0
VERTEX
  8
0
 10
287.000000
 20
85.000000
 42
-0.016149
  0
VERTEX
  8
0
 10
286.925001
 20
82.678456
 42
-0.124134
  0
VERTEX
  8
0
 10
286.593750
 20
81.650000
 42
-0.201266
  0
VERTEX
  8
0
 10
285.888366
 20
81.151756
 42
-0.054490
  0
VERTEX
  8
0
 10
284.500000
 20
81.000000
 42
0.054490
  0
VERTEX
  8
0
 10
283.111634
 20
80.848244
 42
0.201266
  0
VERTEX
  8
0
 10
282.406250
 20
80.350000
 42
0.124134
  0
VERTEX
  8
0
 10
282.074999
 20
79.321544
 42
0.016149
  0
VERTEX
  8
0
 10
282.000000
 20
77.000000
 42
0.000000
  0
VERTEX
  8
0
 10
282.000000
 20
73.000000
 42
0.000000
  0
VERTEX
  8
0
 10
288.500000
 20
73.000000
 42
0.000000
  0
VERTEX
  8
0
 10
295.000000
 20
73.000000
 42
0.000000
  0
VERTEX
  8
0
 10
295.000000
 20
44.000000
 42
0.000000
  0
VERTEX
  8
0
 10
295.000000
 20
15.000000
 42
0.000000
  0
VERTEX
  8
0
 10
308.000000
 20
15.000000
 42
0.000000
  0
VERTEX
  8
0
 10
321.000000
 20
15.000000
 42
0.000000
  0
VERTEX
  8
0
 10
321.160037
 20
47.250000
 42
-0.001221
  0
VERTEX
  8
0
 10
321.250003
 20
59.401146
 42
-0.002395
  0
VERTEX
  8
0
 10
321.391539
 20
69.071875
 42
-0.001835
  0
VERTEX
  8
0
 10
321.557146
 20
76.241955
 42
-0.927571
  0
VERTEX
  8
0
 10
321.723396
 20
76.250000
 42
0.000000
  0
VERTEX
  8
0
 10
322.126717
 20
73.000000
 42
0.000000
  0
VERTEX
  8
0
 10
334.563358
 20
73.000000
 42
0.000000
  0
VERTEX
  8
0
 10
347.000000
 20
73.000000
 42
0.000000
  0
VERTEX
  8
0
 10
347.000000
 20
76.000000
 42
-0.030703
  0
VERTEX
  8
0
 10
347.092253
 20
77.500917
 42
-0.116834
  0
VERTEX
  8
0
 10
347.416667
 20
78.375000
 42
-0.166173
  0
VERTEX
  8
0
 10
348.024683
 20
78.840542
 42
-0.081208
  0
VERTEX
  8
0
 10
349.000000
 20
79.000000
 42
-0.341614
  0
VERTEX
  8
0
 10
350.204913
 20
78.068005
 42
-0.047946
  0
VERTEX
  8
0
 10
350.734375
 20
74.750000
 42
-0.014718
  0
VERTEX
  8
0
 10
350.963027
 20
67.820552
 42
-0.000888
  0
VERTEX
  8
0
 10
351.000000
 20
47.000000
 42
0.000000
  0
VERTEX
  8
0
 10
351.000000
 20
15.000000
 42
0.000000
  0
VERTEX
  8
0
 10
356.000000
 20
15.000000
 42
0.000000
  0
VERTEX
  8
0
 10
361.000000
 20
15.000000
 42
0.000000
  0
VERTEX
  8
0
 10
361.160037
 20
23.250000
 42
-0.005022
  0
VERTEX
  8
0
 10
361.247799
 20
26.230227
 42
-0.018181
  0
VERTEX
  8
0
 10
361.391539
 20
28.121875
 42
-0.269543
  0
VERTEX
  8
0
 10
361.557417
 20
28.345240
 42
-0.499435
  0
VERTEX
  8
0
 10
361.723396
 20
28.250000
 42
0.032252
  0
VERTEX
  8
0
 10
362.094023
 20
26.301328
 42
0.183785
  0
VERTEX
  8
0
 10
362.692450
 20
25.455861
 42
0.134167
  0
VERTEX
  8
0
 10
363.810460
 20
25.079654
 42
0.014464
  0
VERTEX
  8
0
 10
366.563358
 20
25.000000
 42
0.012530
  0
VERTEX
  8
0
 10
369.333497
 20
25.069432
 42
0.136958
  0
VERTEX
  8
0
 10
370.380280
 20
25.419047
 42
0.211245
  0
VERTEX
  8
0
 10
370.870748
 20
26.201594
 42
0.035889
  0
VERTEX
  8
0
 10
371.000000
 20
28.000000
 42
-0.030723
  0
VERTEX
  8
0
 10
371.103846
 20
29.688463
 42
-0.167168
  0
VERTEX
  8
0
 10
371.500000
 20
30.500000
 42
-0.167168
  0
VERTEX
  8
0
 10
372.311537
 20
30.896154
 42
-0.030723
  0
VERTEX
  8
0
 10
374.000000
 20
31.000000
 42
0.000000
  0
VERTEX
  8
0
 10
377.000000
 20
31.000000
 42
0.000000
  0
VERTEX
  8
0
 10
377.160037
 20
55.250000
 42
-0.001642
  0
VERTEX
  8
0
 10
377.249844
 20
64.336012
 42
-0.003413
  0
VERTEX
  8
0
 10
377.391539
 20
71.421875
 42
-0.003762
  0
VERTEX
  8
0
 10
377.557184
 20
76.243215
 42
-0.920571
  0
VERTEX
  8
0
 10
377.723396
 20
76.250000
 42
0.032252
  0
VERTEX
  8
0
 10
378.094023
 20
74.301328
 42
0.183785
  0
VERTEX
  8
0
 10
378.692450
 20
73.455861
 42
0.134167
  0
VERTEX
  8
0
 10
379.810460
 20
73.079654
 42
0.014464
  0
VERTEX
  8
0
 10
382.563358
 20
73.000000
 42
0.012530
  0
VERTEX
  8
0
 10
385.333497
 20
73.069432
 42
0.136958
  0
VERTEX
  8
0
 10
386.380280
 20
73.419047
 42
0.211245
  0
VERTEX
  8
0
 10
386.870748
 20
74.201594
 42
0.035889
  0
VERTEX
  8
0
 10
387.000000
 20
76.000000
 42
-0.030723
  0
VERTEX
  8
0
 10
387.103846
 20
77.688463
 42
-0.167168
  0
VERTEX
  8
0
 10
387.500000
 20
78.500000
 42
-0.167168
  0
VERTEX
  8
0
 10
388.311537
 20
78.896154
 42
-0.030723
  0
VERTEX
  8
0
 10
390.000000
 20
79.000000
 42
0.038700
  0
VERTEX
  8
0
 10
391.819245
 20
79.141020
 42
0.222479
  0
VERTEX
  8
0
 10
392.600000
 20
79.666667
 42
0.126045
  0
VERTEX
  8
0
 10
392.937776
 20
80.800013
 42
0.009722
  0
VERTEX
  8
0
 10
393.000000
 20
84.000000
 42
0.000000
  0
VERTEX
  8
0
 10
393.000000
 20
89.000000
 42
0.000000
  0
VERTEX
  8
0
 10
385.000000
 20
89.000000
 42
0.000000
  0
VERTEX
  8
0
 10
377.000000
 20
89.000000
 42
0.000000
  0
VERTEX
  8
0
 10
377.000000
 20
109.000000
 42
0.000000
  0
VERTEX
  8
0
 10
377.000000
 20
129.000000
 42
0.000000
  0
VERTEX
  8
0
 10
373.000000
 20
129.000000
 42
0.000000
  0
VERTEX
  8
0
 10
369.000000
 20
129.000000
 42
0.000000
  0
VERTEX
  8
0
 10
369.000000
 20
133.000000
 42
0.000000
  0
VERTEX
  8
0
 10
369.000000
 20
137.000000
 42
0.000000
  0
VERTEX
  8
0
 10
365.000000
 20
137.000000
 42
0.000000
  0
VERTEX
  8
0
 10
361.000000
 20
137.000000
 42
0.000000
  0
VERTEX
  8
0
 10
361.000000
 20
141.000000
 42
0.000000
  0
VERTEX
  8
0
 10
361.000000
 20
145.000000
 42
0.000000
  0
VERTEX
  8
0
 10
356.000000
 20
145.000000
 42
0.000000
  0
VERTEX
  8
0
 10
351.000000
 20
145.000000
 42
0.000000
  0
VERTEX
  8
0
 10
351.000000
 20
117.000000
 42
0.000000
  0
VERTEX
  8
0
 10
351.000000
 20
89.000000
 42
0.000000
  0
VERTEX
  8
0
 10
336.000000
 20
89.000000
 42
0.000000
  0
VERTEX
  8
0
 10
321.000000
 20
89.000000
 42
0.000000
  0
VERTEX
  8
0
 10
321.000000
 20
117.000000
 42
0.000000
  0
VERTEX
  8
0
 10
321.000000
 20
145.000000
 42
0.000000
  0
VERTEX
  8
0
 10
316.000000
 20
145.000000
 42
0.000000
  0
VERTEX
  8
0
 10
311.000000
 20
145.000000
 42
0.000000
  0
SEQEND
  0
POLYLINE
  8
0
 66
1
 70
1
  0
VERTEX
  8
0
 10
431.000000
 20
141.000000
 42
0.000000
  0
VERTEX
  8
0
 10
431.000000
 20
137.000000
 42
0.000000
  0
VERTEX
  8
0
 10
427.000000
 20
137.000000
 42
0.000000
  0
VERTEX
  8
0
 10
423.000000
 20
137.000000
 42
0.000000
  0
VERTEX
  8
0
 10
423.000000
 20
133.000000
 42
0.000000
  0
VERTEX
  8
0
 10
423.000000
 20
129.000000
 42
0.000000
  0
VERTEX
  8
0
 10
419.000000
 20
129.000000
 42
0.000000
  0
VERTEX
  8
0
 10
415.000000
 20
129.000000
 42
0.000000
  0
VERTEX
  8
0
 10
415.000000
 20
105.000000
 42
0.000000
  0
VERTEX
  8
0
 10
415.000000
 20
81.000000
 42
0.000000
  0
VERTEX
  8
0
 10
408.500000
 20
81.000000
 42
0.000000
  0
VERTEX
  8
0
 10
402.000000
 20
81.000000
 42
0.000000
  0
VERTEX
  8
0
 10
402.000000
 20
77.000000
 42
0.016149
  0
VERTEX
  8
0
 10
402.074999
 20
74.678456
 42
0.124134
  0
VERTEX
  8
0
 10
402.406250
 20
73.650000
 42
0.201266
  0
VERTEX
  8
0
 10
403.111634
 20
73.151756
 42
0.054490
  0
VERTEX
  8
0
 10
404.500000
 20
73.000000
 42
-0.063163
  0
VERTEX
  8
0
 10
405.919849
 20
72.819917
 42
-0.217022
  0
VERTEX
  8
0
 10
406.625000
 20
72.250000
 42
-0.105983
  0
VERTEX
  8
0
 10
406.937230
 20
71.039690
 42
-0.010324
  0
VERTEX
  8
0
 10
407.000000
 20
68.000000
 42
0.000000
  0
VERTEX
  8
0
 10
407.000000
 20
63.000000
 42
0.000000
  0
VERTEX
  8
0
 10
411.000000
 20
63.000000
 42
0.000000
  0
VERTEX
  8
0
 10
415.000000
 20
63.000000
 42
0.000000
  0
VERTEX
  8
0
 10
415.000000
 20
39.000000
 42
0.000000
  0
VERTEX
  8
0
 10
415.000000
 20
15.000000
 42
0.000000
  0
VERTEX
  8
0
 10
428.000000
 20
15.000000
 42
0.000000
  0
VERTEX
  8
0
 10
441.000000
 20
15.000000
 42
0.000000
  0
VERTEX
  8
0
 10
441.000000
 20
39.000000
 42
0.000000
  0
VERTEX
  8
0
 10
441.000000
 20
63.000000
 42
0.000000
  0
VERTEX
  8
0
 10
456.000000
 20
63.000000
 42
0.000000
  0
VERTEX
  8
0
 10
471.000000
 20
63.000000
 42
0.000000
  0
VERTEX
  8
0
 10
471.000000
 20
39.000000
 42
0.000000
  0
VERTEX
  8
0
 10
471.000000
 20
15.000000
 42
0.000000
  0
VERTEX
  8
0
 10
476.000000
 20
15.000000
 42
0.000000
  0
VERTEX
  8
0
 10
481.000000
 20
15.000000
 42
0.000000
  0
VERTEX
  8
0
 10
481.160037
 20
23.250000
 42
-0.005022
  0
VERTEX
  8
0
 10
481.247799
 20
26.230227
 42
-0.018181
  0
VERTEX
  8
0
 10
481.391539
 20
28.121875
 42
-0.269543
  0
VERTEX
  8
0
 10
481.557417
 20
28.345240
 42
-0.499435
  0
VERTEX
  8
0
 10
481.723396
 20
28.250000
 42
0.032252
  0
VERTEX
  8
0
 10
482.094023
 20
26.301328
 42
0.183785
  0
VERTEX
  8
0
 10
482.692450
 20
25.455861
 42
0.134167
  0
VERTEX
  8
0
 10
483.810460
 20
25.079654
 42
0.014464
  0
VERTEX
  8
0
 10
486.563358
 20
25.000000
 42
0.012530
  0
VERTEX
  8
0
 10
489.333497
 20
25.069432
 42
0.136958
  0
VERTEX
  8
0
 10
490.380280
 20
25.419047
 42
0.211245
  0
VERTEX
  8
0
 10
490.870748
 20
26.201594
 42
0.035889
  0
VERTEX
  8
0
 10
491.000000
 20
28.000000
 42
-0.030723
  0
VERTEX
  8
0
 10
491.103846
 20
29.688463
 42
-0.167168
  0
VERTEX
  8
0
 10
491.500000
 20
30.500000
 42
-0.167168
  0
VERTEX
  8
0
 10
492.311537
 20
30.896154
 42
-0.030723
  0
VERTEX
  8
0
 10
494.000000
 20
31.000000
 42
0.000000
  0
VERTEX
  8
0
 10
497.000000
 20
31.000000
 42
0.000000
  0
VERTEX
  8
0
 10
497.000000
 20
88.000000
 42
0.000000
  0
VERTEX
  8
0
 10
497.000000
 20
145.000000
 42
0.000000
  0
VERTEX
  8
0
 10
464.000000
 20
145.000000
 42
0.000000
  0
VERTEX
  8
0
 10
431.000000
 20
145.000000
 42
0.000000
  0
SEQEND
  0
POLYLINE
  8
0
 66
1
 70
1
  0
VERTEX
  8
0
 10
471.000000
 20
104.000000
 42
0.000000
  0
VERTEX
  8
0
 10
471.000000
 20
81.000000
 42
0.000000
  0
VERTEX
  8
0
 10
456.000000
 20
81.000000
 42
0.000000
  0
VERTEX
  8
0
 10
441.000000
 20
81.000000
 42
0.000000
  0
VERTEX
  8
0
 10
441.000000
 20
104.000000
 42
0.000000
  0
VERTEX
  8
0
 10
441.000000
 20
127.000000
 42
0.000000
  0
VERTEX
  8
0
 10
456.000000
 20
127.000000
 42
0.000000
  0
VERTEX
  8
0
 10
471.000000
 20
127.000000
 42
0.000000
  0
SEQEND
  0
POLYLINE
  8
0
 66
1
 70
1
  0
VERTEX
  8
0
 10
503.000000
 20
88.000000
 42
0.000000
  0
VERTEX
  8
0
 10
503.000000
 20
31.000000
 42
0.000000
  0
VERTEX
  8
0
 10
508.500000
 20
31.000000
 42
-0.008002
  0
VERTEX
  8
0
 10
512.082489
 20
30.942664
 42
-0.117370
  0
VERTEX
  8
0
 10
513.291667
 20
30.613636
 42
-0.230406
  0
VERTEX
  8
0
 10
513.847929
 20
29.832050
 42
-0.041432
  0
VERTEX
  8
0
 10
514.000000
 20
28.000000
 42
0.030103
  0
VERTEX
  8
0
 10
514.097235
 20
26.386401
 42
0.144586
  0
VERTEX
  8
0
 10
514.458333
 20
25.550000
 42
0.173074
  0
VERTEX
  8
0
 10
515.175563
 20
25.126572
 42
0.047675
  0
VERTEX
  8
0
 10
516.500000
 20
25.000000
 42
-0.063163
  0
VERTEX
  8
0
 10
517.919849
 20
24.819917
 42
-0.217022
  0
VERTEX
  8
0
 10
518.625000
 20
24.250000
 42
-0.105983
  0
VERTEX
  8
0
 10
518.937230
 20
23.039690
 42
-0.010324
  0
VERTEX
  8
0
 10
519.000000
 20
20.000000
 42
0.000000
  0
VERTEX
  8
0
 10
519.000000
 20
15.000000
 42
0.000000
  0
VERTEX
  8
0
 10
524.000000
 20
15.000000
 42
0.000000
  0
VERTEX
  8
0
 10
529.000000
 20
15.000000
 42
0.000000
  0
VERTEX
  8
0
 10
529.160037
 20
71.250000
 42
-0.000688
  0
VERTEX
  8
0
 10
529.250183
 20
92.601090
 42
-0.001257
  0
VERTEX
  8
0
 10
529.391539
 20
110.021875
 42
-0.000507
  0
VERTEX
  8
0
 10
529.557096
 20
124.240777
 42
-0.934153
  0
VERTEX
  8
0
 10
529.723396
 20
124.250000
 42
0.000000
  0
VERTEX
  8
0
 10
530.126717
 20
121.000000
 42
0.000000
  0
VERTEX
  8
0
 10
540.563358
 20
121.000000
 42
0.000000
  0
VERTEX
  8
0
 10
551.000000
 20
121.000000
 42
0.000000
  0
VERTEX
  8
0
 10
551.000000
 20
68.000000
 42
0.000000
  0
VERTEX
  8
0
 10
551.000000
 20
15.000000
 42
0.000000
  0
VERTEX
  8
0
 10
556.000000
 20
15.000000
 42
0.000000
  0
VERTEX
  8
0
 10
561.000000
 20
15.000000
 42
0.000000
  0
VERTEX
  8
0
 10
561.160037
 20
23.250000
 42
-0.005022
  0
VERTEX
  8
0
 10
561.247799
 20
26.230227
 42
-0.018181
  0
VERTEX
  8
0
 10
561.391539
 20
28.121875
 42
-0.269543
  0
VERTEX
  8
0
 10
561.557417
 20
28.345240
 42
-0.499435
  0
VERTEX
  8
0
 10
561.723396
 20
28.250000
 42
0.032252
  0
VERTEX
  8
0
 10
562.094023
 20
26.301328
 42
0.183785
  0
VERTEX
  8
0
 10
562.692450
 20
25.455861
 42
0.134167
  0
VERTEX
  8
0
 10
563.810460
 20
25.079654
 42
0.014464
  0
VERTEX
  8
0
 10
566.563358
 20
25.000000
 42
0.012530
  0
VERTEX
  8
0
 10
569.333497
 20
25.069432
 42
0.136958
  0
VERTEX
  8
0
 10
570.380280
 20
25.419047
 42
0.211245
  0
VERTEX
  8
0
 10
570.870748
 20
26.201594
 42
0.035889
  0
VERTEX
  8
0
 10
571.000000
 20
28.000000
 42
-0.030723
  0
VERTEX
  8
0
 10
571.103846
 20
29.688463
 42
-0.167168
  0
VERTEX
  8
0
 10
571.500000
 20
30.500000
 42
-0.167168
  0
VERTEX
  8
0
 10
572.311537
 20
30.896154
 42
-0.030723
  0
VERTEX
  8
0
 10
574.000000
 20
31.000000
 42
0.000000
  0
VERTEX
  8
0
 10
577.000000
 20
31.000000
 42
0.000000
  0
VERTEX
  8
0
 10
577.000000
 20
76.000000
 42
0.000000
  0
VERTEX
  8
0
 10
577.000000
 20
121.000000
 42
0.000000
  0
VERTEX
  8
0
 10
573.000000
 20
121.000000
 42
0.000000
  0
VERTEX
  8
0
 10
569.000000
 20
121.000000
 42
0.000000
  0
VERTEX
  8
0
 10
569.000000
 20
125.000000
 42
0.000000
  0
VERTEX
  8
0
 10
569.000000
 20
129.000000
 42
0.000000
  0
VERTEX
  8
0
 10
565.000000
 20
129.000000
 42
0.000000
  0
VERTEX
  8
0
 10
561.000000
 20
129.000000
 42
0.000000
  0
VERTEX
  8
0
 10
561.000000
 20
133.000000
 42
0.000000
  0
VERTEX
  8
0
 10
561.000000
 20
137.000000
 42
0.000000
  0
VERTEX
  8
0
 10
545.000000
 20
137.000000
 42
0.000000
  0
VERTEX
  8
0
 10
529.000000
 20
137.000000
 42
0.000000
  0
VERTEX
  8
0
 10
529.000000
 20
141.000000
 42
0.000000
  0
VERTEX
  8
0
 10
529.000000
 20
145.000000
 42
0.000000
  0
VERTEX
  8
0
 10
516.000000
 20
145.000000
 42
0.000000
  0
VERTEX
  8
0
 10
503.000000
 20
145.000000
 42
0.000000
  0
SEQEND
  0
POLYLINE
  8
0
 66
1
 70
1
  0
VERTEX
  8
0
 10
655.000000
 20
141.000000
 42
0.000000
  0
VERTEX
  8
0
 10
655.000000
 20
137.000000
 42
0.000000
  0
VERTEX
  8
0
 10
651.000000
 20
137.000000
 42
0.000000
  0
VERTEX
  8
0
 10
647.000000
 20
137.000000
 42
0.000000
  0
VERTEX
  8
0
 10
647.000000
 20
133.000000
 42
0.000000
  0
VERTEX
  8
0
 10
647.000000
 20
129.000000
 42
0.000000
  0
VERTEX
  8
0
 10
643.000000
 20
129.000000
 42
0.000000
  0
VERTEX
  8
0
 10
639.000000
 20
129.000000
 42
0.000000
  0
VERTEX
  8
0
 10
639.000000
 20
109.000000
 42
0.000000
  0
VERTEX
  8
0
 10
639.000000
 20
89.000000
 42
0.000000
  0
VERTEX
  8
0
 10
635.000000
 20
89.000000
 42
0.000000
  0
VERTEX
  8
0
 10
631.000000
 20
89.000000
 42
0.000000
  0
VERTEX
  8
0
 10
631.000000
 20
85.000000
 42
-0.016149
  0
VERTEX
  8
0
 10
630.925001
 20
82.678456
 42
-0.124134
  0
VERTEX
  8
0
 10
630.593750
 20
81.650000
 42
-0.201266
  0
VERTEX
  8
0
 10
629.888366
 20
81.151756
 42
-0.054490
  0
VERTEX
  8
0
 10
628.500000
 20
81.000000
 42
0.054490
  0
VERTEX
  8
0
 10
627.111634
 20
80.848244
 42
0.201266
  0
VERTEX
  8
0
 10
626.406250
 20
80.350000
 42
0.124134
  0
VERTEX
  8
0
 10
626.074999
 20
79.321544
 42
0.016149
  0
VERTEX
  8
0
 10
626.000000
 20
77.000000
 42
0.000000
  0
VERTEX
  8
0
 10
626.000000
 20
73.000000
 42
0.000000
  0
VERTEX
  8
0
 10
632.500000
 20
73.000000
 42
0.000000
  0
VERTEX
  8
0
 10
639.000000
 20
73.000000
 42
0.000000
  0
VERTEX
  8
0
 10
639.000000
 20
44.000000
 42
0.000000
  0
VERTEX
  8
0
 10
639.000000
 20
15.000000
 42
0.000000
  0
VERTEX
  8
0
 10
672.000000
 20
15.000000
 42
0.000000
  0
VERTEX
  8
0
 10
705.000000
 20
15.000000
 42
0.000000
  0
VERTEX
  8
0
 10
705.160037
 20
23.250000
 42
-0.005022
  0
VERTEX
  8
0
 10
705.247799
 20
26.230227
 42
-0.018181
  0
VERTEX
  8
0
 10
705.391539
 20
28.121875
 42
-0.269543
  0
VERTEX
  8
0
 10
705.557417
 20
28.345240
 42
-0.499435
  0
VERTEX
  8
0
 10
705.723396
 20
28.250000
 42
0.032252
  0
VERTEX
  8
0
 10
706.094023
 20
26.301328
 42
0.183785
  0
VERTEX
  8
0
 10
706.692450
 20
25.455861
 42
0.134167
  0
VERTEX
  8
0
 10
707.810460
 20
25.079654
 42
0.014464
  0
VERTEX
  8
0
 10
710.563358
 20
25.000000
 42
0.012530
  0
VERTEX
  8
0
 10
713.333497
 20
25.069432
 42
0.136958
  0
VERTEX
  8
0
 10
714.380280
 20
25.419047
 42
0.211245
  0
VERTEX
  8
0
 10
714.870748
 20
26.201594
 42
0.035889
  0
VERTEX
  8
0
 10
715.000000
 20
28.000000
 42
-0.030723
  0
VERTEX
  8
0
 10
715.103846
 20
29.688463
 42
-0.167168
  0
VERTEX
  8
0
 10
715.500000
 20
30.500000
 42
-0.167168
  0
VERTEX
  8
0
 10
716.311537
 20
30.896154
 42
-0.030723
  0
VERTEX
  8
0
 10
718.000000
 20
31.000000
 42
0.000000
  0
VERTEX
  8
0
 10
721.000000
 20
31.000000
 42
0.000000
  0
VERTEX
  8
0
 10
721.000000
 20
48.000000
 42
0.000000
  0
VERTEX
  8
0
 10
721.000000
 20
65.000000
 42
0.000000
  0
VERTEX
  8
0
 10
717.000000
 20
65.000000
 42
0.000000
  0
VERTEX
  8
0
 10
713.000000
 20
65.000000
 42
0.000000
  0
VERTEX
  8
0
 10
713.000000
 20
69.000000
 42
0.000000
  0
VERTEX
  8
0
 10
713.000000
 20
73.000000
 42
0.000000
  0
VERTEX
  8
0
 10
709.000000
 20
73.000000
 42
0.000000
  0
VERTEX
  8
0
 10
705.000000
 20
73.000000
 42
0.000000
  0
VERTEX
  8
0
 10
705.000000
 20
77.000000
 42
0.000000
  0
VERTEX
  8
0
 10
705.000000
 20
81.000000
 42
0.000000
  0
VERTEX
  8
0
 10
688.000000
 20
81.000000
 42
0.000000
  0
VERTEX
  8
0
 10
671.000000
 20
81.000000
 42
0.000000
  0
VERTEX
  8
0
 10
671.000000
 20
72.000000
 42
0.000000
  0
VERTEX
  8
0
 10
671.000000
 20
63.000000
 42
0.000000
  0
VERTEX
  8
0
 10
683.000000
 20
63.000000
 42
0.000000
  0
VERTEX
  8
0
 10
695.000000
 20
63.000000
 42
0.000000
  0
VERTEX
  8
0
 10
695.000000
 20
48.000000
 42
0.000000
  0
VERTEX
  8
0
 10
695.000000
 20
33.000000
 42
0.000000
  0
VERTEX
  8
0
 10
680.000000
 20
33.000000
 42
0.000000
  0
VERTEX
  8
0
 10
665.000000
 20
33.000000
 42
0.000000
  0
VERTEX
  8
0
 10
665.000000
 20
80.000000
 42
0.000000
  0
VERTEX
  8
0
 10
665.000000
 20
127.000000
 42
0.000000
  0
VERTEX
  8
0
 10
680.000000
 20
127.000000
 42
0.000000
  0
VERTEX
  8
0
 10
695.000000
 20
127.000000
 42
0.000000
  0
VERTEX
  8
0
 10
695.000000
 20
111.000000
 42
0.000000
  0
VERTEX
  8
0
 10
695.000000
 20
95.000000
 42
0.000000
  0
VERTEX
  8
0
 10
700.000000
 20
95.000000
 42
0.000000
  0
VERTEX
  8
0
 10
705.000000
 20
95.000000
 42
0.000000
  0
VERTEX
  8
0
 10
705.160037
 20
103.250000
 42
-0.005022
  0
VERTEX
  8
0
 10
705.247799
 20
106.230227
 42
-0.018181
  0
VERTEX
  8
0
 10
705.391539
 20
108.121875
 42
-0.269543
  0
VERTEX
  8
0
 10
705.557417
 20
108.345240
 42
-0.499435
  0
VERTEX
  8
0
 10
705.723396
 20
108.250000
 42
0.032252
  0
VERTEX
  8
0
 10
706.094023
 20
106.301328
 42
0.183785
  0
VERTEX
  8
0
 10
706.692450
 20
105.455861
 42
0.134167
  0
VERTEX
  8
0
 10
707.810460
 20
105.079654
 42
0.014464
  0
VERTEX
  8
0
 10
710.563358
 20
105.000000
 42
0.012530
  0
VERTEX
  8
0
 10
713.333497
 20
105.069432
 42
0.136958
  0
VERTEX
  8
0
 10
714.380280
 20
105.419047
 42
0.211245
  0
VERTEX
  8
0
 10
714.870748
 20
106.201594
 42
0.035889
  0
VERTEX
  8
0
 10
715.000000
 20
108.000000
 42
-0.030723
  0
VERTEX
  8
0
 10
715.103846
 20
109.688463
 42
-0.167168
  0
VERTEX
  8
0
 10
715.500000
 20
110.500000
 42
-0.167168
  0
VERTEX
  8
0
 10
716.311537
 20
110.896154
 42
-0.030723
  0
VERTEX
  8
0
 10
718.000000
 20
111.000000
 42
0.000000
  0
VERTEX
  8
0
 10
721.000000
 20
111.000000
 42
0.000000
  0
VERTEX
  8
0
 10
721.000000
 20
120.000000
 42
0.000000
  0
VERTEX
  8
0
 10
721.000000
 20
129.000000
 42
0.000000
  0
VERTEX
  8
0
 10
717.000000
 20
129.000000
 42
0.000000
  0
VERTEX
  8
0
 10
713.000000
 20
129.000000
 42
0.000000
  0
VERTEX
  8
0
 10
713.000000
 20
133.000000
 42
0.000000
  0
VERTEX
  8
0
 10
713.000000
 20
137.000000
 42
0.000000
  0
VERTEX
  8
0
 10
709.000000
 20
137.000000
 42
0.000000
  0
VERTEX
  8
0
 10
705.000000
 20
137.000000
 42
0.000000
  0
VERTEX
  8
0
 10
705.000000
 20
141.000000
 42
0.000000
  0
VERTEX
  8
0
 10
705.000000
 20
145.000000
 42
0.000000
  0
VERTEX
  8
0
 10
680.000000
 20
145.000000
 42
0.000000
  0
VERTEX
  8
0
 10
655.000000
 20
145.000000
 42
0.000000
  0
SEQEND
  0
POLYLINE
  8
0
 66
1
 70
1
  0
VERTEX
  8
0
 10
759.000000
 20
141.000000
 42
0.000000
  0
VERTEX
  8
0
 10
759.000000
 20
137.000000
 42
0.000000
  0
VERTEX
  8
0
 10
755.000000
 20
137.000000
 42
0.000000
  0
VERTEX
  8
0
 10
751.000000
 20
137.000000
 42
0.000000
  0
VERTEX
  8
0
 10
751.000000
 20
133.000000
 42
0.000000
  0
VERTEX
  8
0
 10
751.000000
 20
129.000000
 42
0.000000
  0
VERTEX
  8
0
 10
747.000000
 20
129.000000
 42
0.000000
  0
VERTEX
  8
0
 10
743.000000
 20
129.000000
 42
0.000000
  0
VERTEX
  8
0
 10
743.000000
 20
109.000000
 42
0.000000
  0
VERTEX
  8
0
 10
743.000000
 20
89.000000
 42
0.000000
  0
VERTEX
  8
0
 10
739.000000
 20
89.000000
 42
0.000000
  0
VERTEX
  8
0
 10
735.000000
 20
89.000000
 42
0.000000
  0
VERTEX
  8
0
 10
735.000000
 20
85.000000
 42
-0.016149
  0
VERTEX
  8
0
 10
734.925001
 20
82.678456
 42
-0.124134
  0
VERTEX
  8
0
 10
734.593750
 20
81.650000
 42
-0.201266
  0
VERTEX
  8
0
 10
733.888366
 20
81.151756
 42
-0.054490
  0
VERTEX
  8
0
 10
732.500000
 20
81.000000
 42
0.054490
  0
VERTEX
  8
0
 10
731.111634
 20
80.848244
 42
0.201266
  0
VERTEX
  8
0
 10
730.406250
 20
80.350000
 42
0.124134
  0
VERTEX
  8
0
 10
730.074999
 20
79.321544
 42
0.016149
  0
VERTEX
  8
0
 10
730.000000
 20
77.000000
 42
0.000000
  0
VERTEX
  8
0
 10
730.000000
 20
73.000000
 42
0.000000
  0
VERTEX
  8
0
 10
736.500000
 20
73.000000
 42
0.000000
  0
VERTEX
  8
0
 10
743.000000
 20
73.000000
 42
0.000000
  0
VERTEX
  8
0
 10
743.000000
 20
44.000000
 42
0.000000
  0
VERTEX
  8
0
 10
743.000000
 20
15.000000
 42
0.000000
  0
VERTEX
  8
0
 10
784.000000
 20
15.000000
 42
0.000000
  0
VERTEX
  8
0
 10
825.000000
 20
15.000000
 42
0.000000
  0
VERTEX
  8
0
 10
825.000000
 20
32.000000
 42
0.000000
  0
VERTEX
  8
0
 10
825.000000
 20
49.000000
 42
0.000000
  0
VERTEX
  8
0
 10
821.000000
 20
49.000000
 42
0.000000
  0
VERTEX
  8
0
 10
817.000000
 20
49.000000
 42
0.000000
  0
VERTEX
  8
0
 10
817.000000
 20
53.000000
 42
0.000000
  0
VERTEX
  8
0
 10
817.000000
 20
57.000000
 42
0.000000
  0
VERTEX
  8
0
 10
813.000000
 20
57.000000
 42
0.000000
  0
VERTEX
  8
0
 10
809.000000
 20
57.000000
 42
0.000000
  0
VERTEX
  8
0
 10
809.000000
 20
61.000000
 42
0.000000
  0
VERTEX
  8
0
 10
809.000000
 20
65.000000
 42
0.000000
  0
VERTEX
  8
0
 10
804.000000
 20
65.000000
 42
0.000000
  0
VERTEX
  8
0
 10
799.000000
 20
65.000000
 42
0.000000
  0
VERTEX
  8
0
 10
799.000000
 20
49.000000
 42
0.000000
  0
VERTEX
  8
0
 10
799.000000
 20
33.000000
 42
0.000000
  0
VERTEX
  8
0
 10
784.000000
 20
33.000000
 42
0.000000
  0
VERTEX
  8
0
 10
769.000000
 20
33.000000
 42
0.000000
  0
VERTEX
  8
0
 10
769.160037
 20
56.250000
 42
-0.001716
  0
VERTEX
  8
0
 10
769.249815
 20
64.953014
 42
-0.003603
  0
VERTEX
  8
0
 10
769.391539
 20
71.715625
 42
-0.004204
  0
VERTEX
  8
0
 10
769.557190
 20
76.243474
 42
-0.919135
  0
VERTEX
  8
0
 10
769.723396
 20
76.250000
 42
0.000000
  0
VERTEX
  8
0
 10
770.126717
 20
73.000000
 42
0.000000
  0
VERTEX
  8
0
 10
782.563358
 20
73.000000
 42
0.000000
  0
VERTEX
  8
0
 10
795.000000
 20
73.000000
 42
0.000000
  0
VERTEX
  8
0
 10
795.000000
 20
77.000000
 42
0.023598
  0
VERTEX
  8
0
 10
794.927610
 20
78.532944
 42
0.037669
  0
VERTEX
  8
0
 10
794.706250
 20
79.825000
 42
0.043820
  0
VERTEX
  8
0
 10
794.387127
 20
80.748945
 42
0.295869
  0
VERTEX
  8
0
 10
794.000000
 20
81.000000
 42
-0.295869
  0
VERTEX
  8
0
 10
793.612873
 20
81.251055
 42
-0.043820
  0
VERTEX
  8
0
 10
793.293750
 20
82.175000
 42
-0.037669
  0
VERTEX
  8
0
 10
793.072390
 20
83.467056
 42
-0.023598
  0
VERTEX
  8
0
 10
793.000000
 20
85.000000
 42
0.000000
  0
VERTEX
  8
0
 10
793.000000
 20
89.000000
 42
0.000000
  0
VERTEX
  8
0
 10
781.000000
 20
89.000000
 42
0.000000
  0
VERTEX
  8
0
 10
769.000000
 20
89.000000
 42
0.000000
  0
VERTEX
  8
0
 10
769.000000
 20
108.000000
 42
0.000000
  0
VERTEX
  8
0
 10
769.000000
 20
127.000000
 42
0.000000
  0
VERTEX
  8
0
 10
784.000000
 20
127.000000
 42
0.000000
  0
VERTEX
  8
0
 10
799.000000
 20
127.000000
 42
0.000000
  0
VERTEX
  8
0
 10
799.000000
 20
111.000000
 42
0.000000
  0
VERTEX
  8
0
 10
799.000000
 20
95.000000
 42
0.000000
  0
VERTEX
  8
0
 10
804.000000
 20
95.000000
 42
0.000000
  0
VERTEX
  8
0
 10
809.000000
 20
95.000000
 42
0.000000
  0
VERTEX
  8
0
 10
809.160037
 20
103.250000
 42
-0.005022
  0
VERTEX
  8
0
 10
809.247799
 20
106.230227
 42
-0.018181
  0
VERTEX
  8
0
 10
809.391539
 20
108.121875
 42
-0.269543
  0
VERTEX
  8
0
 10
809.557417
 20
108.345240
 42
-0.499435
  0
VERTEX
  8
0
 10
809.723396
 20
108.250000
 42
0.032252
  0
VERTEX
  8
0
 10
810.094023
 20
106.301328
 42
0.183785
  0
VERTEX
  8
0
 10
810.692450
 20
105.455861
 42
0.134167
  0
VERTEX
  8
0
 10
811.810460
 20
105.079654
 42
0.014464
  0
VERTEX
  8
0
 10
814.563358
 20
105.000000
 42
0.012530
  0
VERTEX
  8
0
 10
817.333497
 20
105.069432
 42
0.136958
  0
VERTEX
  8
0
 10
818.380280
 20
105.419047
 42
0.211245
  0
VERTEX
  8
0
 10
818.870748
 20
106.201594
 42
0.035889
  0
VERTEX
  8
0
 10
819.000000
 20
108.000000
 42
-0.030723
  0
VERTEX
  8
0
 10
819.103846
 20
109.688463
 42
-0.167168
  0
VERTEX
  8
0
 10
819.500000
 20
110.500000
 42
-0.167168
  0
VERTEX
  8
0
 10
820.311537
 20
110.896154
 42
-0.030723
  0
VERTEX
  8
0
 10
822.000000
 20
111.000000
 42
0.000000
  0
VERTEX
  8
0
 10
825.000000
 20
111.000000
 42
0.000000
  0
VERTEX
  8
0
 10
825.000000
 20
128.000000
 42
0.000000
  0
VERTEX
  8
0
 10
825.000000
 20
145.000000
 42
0.000000
  0
VERTEX
  8
0
 10
792.000000
 20
145.000000
 42
0.000000
  0
VERTEX
  8
0
 10
759.000000
 20
145.000000
 42
0.000000
  0
SEQEND
  0
POLYLINE
  8
0
 66
1
 70
1
  0
VERTEX
  8
0
 10
250.000000
 20
29.000000
 42
0.000000
  0
VERTEX
  8
0
 10
250.000000
 20
25.000000
 42
0.000000
  0
VERTEX
  8
0
 10
254.500000
 20
25.000000
 42
0.000000
  0
VERTEX
  8
0
 10
259.000000
 20
25.000000
 42
0.000000
  0
VERTEX
  8
0
 10
259.000000
 20
29.000000
 42
0.000000
  0
VERTEX
  8
0
 10
259.000000
 20
33.000000
 42
0.000000
  0
VERTEX
  8
0
 10
254.500000
 20
33.000000
 42
0.000000
  0
VERTEX
  8
0
 10
250.000000
 20
33.000000
 42
0.000000
  0
SEQEND
  0
ENDSEC
  0
EOF
