<svg xmlns="http://www.w3.org/2000/svg" width="832" height="160" class="svgbob"><style>.svgbob line, .svgbob path, .svgbob circle, .svgbob rect, .svgbob polygon {
    stroke: black;
    stroke-width: 2;
    stroke-opacity: 1;
    fill-opacity: 1;
    stroke-linecap: round;
    stroke-linejoin: miter;
}
.svgbob text {
    white-space: pre;
    fill: black;
    font-family: Iosevka Fixed, monospace;
    font-size: 14px;
}
.svgbob rect.backdrop {
    stroke: none;
    fill: white;
}
.svgbob .broken {
    stroke-dasharray: 8;
}
.svgbob .filled {
    fill: black;
}
.svgbob .bg_filled {
    fill: white;
    stroke-width: 1;
}
.svgbob .nofill {
    fill: white;
}
.svgbob .end_marked_arrow {
    marker-end: url(#arrow);
}
.svgbob .start_marked_arrow {
    marker-start: url(#arrow);
}
.svgbob .end_marked_diamond {
    marker-end: url(#diamond);
}
.svgbob .start_marked_diamond {
    marker-start: url(#diamond);
}
.svgbob .end_marked_circle {
    marker-end: url(#circle);
}
.svgbob .start_marked_circle {
    marker-start: url(#circle);
}
.svgbob .end_marked_open_circle {
    marker-end: url(#open_circle);
}
.svgbob .start_marked_open_circle {
    marker-start: url(#open_circle);
}
.svgbob .end_marked_big_open_circle {
    marker-end: url(#big_open_circle);
}
.svgbob .start_marked_big_open_circle {
    marker-start: url(#big_open_circle);
}<!--separator--></style><defs><marker id="arrow" viewBox="-2 -2 8 8" refX="4" refY="2" markerWidth="7" markerHeight="7" orient="auto-start-reverse"><polygon points="0,0 0,4 4,2 0,0"></polygon></marker><marker id="diamond" viewBox="-2 -2 8 8" refX="4" refY="2" markerWidth="7" markerHeight="7" orient="auto-start-reverse"><polygon points="0,2 2,0 4,2 2,4 0,2"></polygon></marker><marker id="circle" viewBox="0 0 8 8" refX="4" refY="4" markerWidth="7" markerHeight="7" orient="auto-start-reverse"><circle cx="4" cy="4" r="2" class="filled"></circle></marker><marker id="open_circle" viewBox="0 0 8 8" refX="4" refY="4" markerWidth="7" markerHeight="7" orient="auto-start-reverse"><circle cx="4" cy="4" r="2" class="bg_filled"></circle></marker><marker id="big_open_circle" viewBox="0 0 8 8" refX="4" refY="4" markerWidth="7" markerHeight="7" orient="auto-start-reverse"><circle cx="4" cy="4" r="3" class="bg_filled"></circle></marker></defs><rect class="backdrop" x="0" y="0" width="832" height="160"></rect><rect x="0" y="16" width="8" height="16" class="solid filled" rx="0"></rect><rect x="8" y="16" width="8" height="16" class="solid filled" rx="0"></rect><rect x="16" y="16" width="8" height="16" class="solid filled" rx="0"></rect><rect x="24" y="24" width="8" height="8" class="solid filled" rx="0"></rect><rect x="32" y="24" width="8" height="8" class="solid filled" rx="0"></rect><rect x="40" y="24" width="8" height="8" class="solid filled" rx="0"></rect><rect x="48" y="24" width="8" height="8" class="solid filled" rx="0"></rect><rect x="0" y="32" width="8" height="16" class="solid filled" rx="0"></rect><rect x="8" y="32" width="8" height="16" class="solid filled" rx="0"></rect><rect x="16" y="32" width="8" height="16" class="solid filled" rx="0"></rect><rect x="48" y="32" width="8" height="16" class="solid filled" rx="0"></rect><rect x="56" y="32" width="8" height="16" class="solid filled" rx="0"></rect><rect x="64" y="40" width="8" height="8" class="solid filled" rx="0"></rect><rect x="0" y="48" width="8" height="16" class="solid filled" rx="0"></rect><rect x="8" y="48" width="8" height="16" class="solid filled" rx="0"></rect><rect x="16" y="48" width="8" height="16" class="solid filled" rx="0"></rect><rect x="48" y="48" width="8" height="16" class="solid filled" rx="0"></rect><rect x="56" y="48" width="8" height="16" class="solid filled" rx="0"></rect><rect x="64" y="48" width="8" height="16" class="solid filled" rx="0"></rect><rect x="0" y="64" width="8" height="16" class="solid filled" rx="0"></rect><rect x="8" y="64" width="8" height="16" class="solid filled" rx="0"></rect><rect x="16" y="64" width="8" height="16" class="solid filled" rx="0"></rect><rect x="48" y="64" width="8" height="16" class="solid filled" rx="0"></rect><rect x="56" y="64" width="8" height="16" class="solid filled" rx="0"></rect><rect x="64" y="64" width="8" height="16" class="solid filled" rx="0"></rect><rect x="0" y="80" width="8" height="16" class="solid filled" rx="0"></rect><rect x="8" y="80" width="8" height="16" class="solid filled" rx="0"></rect><rect x="16" y="80" width="8" height="16" class="solid filled" rx="0"></rect><rect x="48" y="80" width="8" height="16" class="solid filled" rx="0"></rect><rect x="56" y="80" width="8" height="16" class="solid filled" rx="0"></rect><rect x="64" y="80" width="8" height="16" class="solid filled" rx="0"></rect><rect x="0" y="96" width="8" height="16" class="solid filled" rx="0"></rect><rect x="8" y="96" width="8" height="16" class="solid filled" rx="0"></rect><rect x="16" y="96" width="8" height="16" class="solid filled" rx="0"></rect><rect x="48" y="96" width="8" height="16" class="solid filled" rx="0"></rect><rect x="56" y="96" width="8" height="16" class="solid filled" rx="0"></rect><rect x="64" y="96" width="8" height="16" class="solid filled" rx="0"></rect><rect x="0" y="112" width="8" height="16" class="solid filled" rx="0"></rect><rect x="8" y="112" width="8" height="16" class="solid filled" rx="0"></rect><rect x="16" y="112" width="8" height="16" class="solid filled" rx="0"></rect><rect x="48" y="112" width="8" height="16" class="solid filled" rx="0"></rect><rect x="56" y="112" width="8" height="16" class="solid filled" rx="0"></rect><rect x="64" y="112" width="8" height="16" class="solid filled" rx="0"></rect><text x="10" y="140" >▀</text><rect x="16" y="128" width="8" height="16" class="solid filled" rx="0"></rect><rect x="48" y="128" width="8" height="16" class="solid filled" rx="0"></rect><text x="58" y="140" >▀</text><rect x="104" y="24" width="8" height="8" class="solid filled" rx="0"></rect><rect x="112" y="16" width="8" height="16" class="solid filled" rx="0"></rect><rect x="120" y="16" width="8" height="16" class="solid filled" rx="0"></rect><rect x="128" y="16" width="8" height="16" class="solid filled" rx="0"></rect><rect x="136" y="16" width="8" height="16" class="solid filled" rx="0"></rect><rect x="144" y="16" width="8" height="16" class="solid filled" rx="0"></rect><rect x="152" y="16" width="8" height="16" class="solid filled" rx="0"></rect><rect x="160" y="16" width="8" height="16" class="solid filled" rx="0"></rect><rect x="168" y="16" width="8" height="16" class="solid filled" rx="0"></rect><rect x="96" y="32" width="8" height="16" class="solid filled" rx="0"></rect><rect x="104" y="32" width="8" height="16" class="solid filled" rx="0"></rect><rect x="112" y="32" width="8" height="16" class="solid filled" rx="0"></rect><rect x="152" y="32" width="8" height="16" class="solid filled" rx="0"></rect><rect x="160" y="32" width="8" height="16" class="solid filled" rx="0"></rect><rect x="168" y="32" width="8" height="16" class="solid filled" rx="0"></rect><rect x="96" y="48" width="8" height="16" class="solid filled" rx="0"></rect><rect x="104" y="48" width="8" height="16" class="solid filled" rx="0"></rect><rect x="112" y="48" width="8" height="16" class="solid filled" rx="0"></rect><rect x="152" y="48" width="8" height="16" class="solid filled" rx="0"></rect><rect x="160" y="48" width="8" height="16" class="solid filled" rx="0"></rect><rect x="168" y="48" width="8" height="16" class="solid filled" rx="0"></rect><rect x="96" y="64" width="8" height="16" class="solid filled" rx="0"></rect><rect x="104" y="64" width="8" height="16" class="solid filled" rx="0"></rect><rect x="112" y="64" width="8" height="16" class="solid filled" rx="0"></rect><rect x="152" y="64" width="8" height="16" class="solid filled" rx="0"></rect><rect x="160" y="64" width="8" height="16" class="solid filled" rx="0"></rect><rect x="168" y="64" width="8" height="16" class="solid filled" rx="0"></rect><text x="82" y="92" >▀</text><rect x="88" y="80" width="8" height="16" class="solid filled" rx="0"></rect><rect x="96" y="80" width="8" height="16" class="solid filled" rx="0"></rect><rect x="104" y="80" width="8" height="16" class="solid filled" rx="0"></rect><rect x="112" y="80" width="8" height="16" class="solid filled" rx="0"></rect><rect x="120" y="80" width="8" height="16" class="solid filled" rx="0"></rect><rect x="128" y="80" width="8" height="16" class="solid filled" rx="0"></rect><rect x="136" y="80" width="8" height="16" class="solid filled" rx="0"></rect><rect x="144" y="80" width="8" height="16" class="solid filled" rx="0"></rect><rect x="152" y="80" width="8" height="16" class="solid filled" rx="0"></rect><rect x="160" y="80" width="8" height="16" class="solid filled" rx="0"></rect><rect x="168" y="80" width="8" height="16" class="solid filled" rx="0"></rect><rect x="96" y="96" width="8" height="16" class="solid filled" rx="0"></rect><rect x="104" y="96" width="8" height="16" class="solid filled" rx="0"></rect><rect x="112" y="96" width="8" height="16" class="solid filled" rx="0"></rect><rect x="152" y="96" width="8" height="16" class="solid filled" rx="0"></rect><rect x="160" y="96" width="8" height="16" class="solid filled" rx="0"></rect><rect x="168" y="96" width="8" height="16" class="solid filled" rx="0"></rect><rect x="96" y="112" width="8" height="16" class="solid filled" rx="0"></rect><rect x="104" y="112" width="8" height="16" class="solid filled" rx="0"></rect><rect x="112" y="112" width="8" height="16" class="solid filled" rx="0"></rect><rect x="152" y="112" width="8" height="16" class="solid filled" rx="0"></rect><rect x="160" y="112" width="8" height="16" class="solid filled" rx="0"></rect><rect x="168" y="112" width="8" height="16" class="solid filled" rx="0"></rect><rect x="96" y="128" width="8" height="16" class="solid filled" rx="0"></rect><rect x="104" y="128" width="8" height="16" class="solid filled" rx="0"></rect><rect x="112" y="128" width="8" height="16" class="solid filled" rx="0"></rect><rect x="152" y="128" width="8" height="16" class="solid filled" rx="0"></rect><text x="162" y="140" >▀</text><rect x="216" y="16" width="8" height="16" class="solid filled" rx="0"></rect><rect x="224" y="16" width="8" height="16" class="solid filled" rx="0"></rect><rect x="232" y="16" width="8" height="16" class="solid filled" rx="0"></rect><text x="186" y="44" >▀</text><rect x="192" y="32" width="8" height="16" class="solid filled" rx="0"></rect><rect x="200" y="32" width="8" height="16" class="solid filled" rx="0"></rect><rect x="208" y="32" width="8" height="16" class="solid filled" rx="0"></rect><rect x="216" y="32" width="8" height="16" class="solid filled" rx="0"></rect><rect x="224" y="32" width="8" height="16" class="solid filled" rx="0"></rect><rect x="232" y="32" width="8" height="16" class="solid filled" rx="0"></rect><rect x="240" y="32" width="8" height="16" class="solid filled" rx="0"></rect><rect x="248" y="32" width="8" height="16" class="solid filled" rx="0"></rect><rect x="256" y="32" width="8" height="16" class="solid filled" rx="0"></rect><rect x="264" y="40" width="8" height="8" class="solid filled" rx="0"></rect><text x="210" y="60" >▀</text><rect x="216" y="48" width="8" height="16" class="solid filled" rx="0"></rect><rect x="224" y="48" width="8" height="16" class="solid filled" rx="0"></rect><rect x="232" y="48" width="8" height="16" class="solid filled" rx="0"></rect><rect x="256" y="48" width="8" height="16" class="solid filled" rx="0"></rect><rect x="264" y="48" width="8" height="16" class="solid filled" rx="0"></rect><rect x="216" y="64" width="8" height="16" class="solid filled" rx="0"></rect><rect x="224" y="64" width="8" height="16" class="solid filled" rx="0"></rect><rect x="232" y="64" width="8" height="16" class="solid filled" rx="0"></rect><text x="266" y="76" >▀</text><rect x="216" y="80" width="8" height="16" class="solid filled" rx="0"></rect><rect x="224" y="80" width="8" height="16" class="solid filled" rx="0"></rect><rect x="232" y="80" width="8" height="16" class="solid filled" rx="0"></rect><rect x="216" y="96" width="8" height="16" class="solid filled" rx="0"></rect><rect x="224" y="96" width="8" height="16" class="solid filled" rx="0"></rect><rect x="232" y="96" width="8" height="16" class="solid filled" rx="0"></rect><rect x="216" y="112" width="8" height="16" class="solid filled" rx="0"></rect><rect x="224" y="112" width="8" height="16" class="solid filled" rx="0"></rect><rect x="232" y="112" width="8" height="16" class="solid filled" rx="0"></rect><rect x="208" y="136" width="8" height="8" class="solid filled" rx="0"></rect><rect x="216" y="128" width="8" height="16" class="solid filled" rx="0"></rect><rect x="224" y="128" width="8" height="16" class="solid filled" rx="0"></rect><rect x="232" y="128" width="8" height="16" class="solid filled" rx="0"></rect><rect x="240" y="128" width="8" height="16" class="solid filled" rx="0"></rect><text x="250" y="140" >▀</text><rect x="304" y="24" width="8" height="8" class="solid filled" rx="0"></rect><rect x="312" y="16" width="8" height="16" class="solid filled" rx="0"></rect><rect x="352" y="16" width="8" height="16" class="solid filled" rx="0"></rect><rect x="360" y="24" width="8" height="8" class="solid filled" rx="0"></rect><rect x="296" y="32" width="8" height="16" class="solid filled" rx="0"></rect><rect x="304" y="32" width="8" height="16" class="solid filled" rx="0"></rect><rect x="312" y="32" width="8" height="16" class="solid filled" rx="0"></rect><rect x="352" y="32" width="8" height="16" class="solid filled" rx="0"></rect><rect x="360" y="32" width="8" height="16" class="solid filled" rx="0"></rect><rect x="368" y="32" width="8" height="16" class="solid filled" rx="0"></rect><rect x="296" y="48" width="8" height="16" class="solid filled" rx="0"></rect><rect x="304" y="48" width="8" height="16" class="solid filled" rx="0"></rect><rect x="312" y="48" width="8" height="16" class="solid filled" rx="0"></rect><rect x="352" y="48" width="8" height="16" class="solid filled" rx="0"></rect><rect x="360" y="48" width="8" height="16" class="solid filled" rx="0"></rect><rect x="368" y="48" width="8" height="16" class="solid filled" rx="0"></rect><rect x="288" y="72" width="8" height="8" class="solid filled" rx="0"></rect><rect x="296" y="64" width="8" height="16" class="solid filled" rx="0"></rect><rect x="304" y="64" width="8" height="16" class="solid filled" rx="0"></rect><rect x="312" y="64" width="8" height="16" class="solid filled" rx="0"></rect><rect x="320" y="72" width="8" height="8" class="solid filled" rx="0"></rect><rect x="328" y="72" width="8" height="8" class="solid filled" rx="0"></rect><rect x="336" y="72" width="8" height="8" class="solid filled" rx="0"></rect><rect x="344" y="72" width="8" height="8" class="solid filled" rx="0"></rect><rect x="352" y="64" width="8" height="16" class="solid filled" rx="0"></rect><rect x="360" y="64" width="8" height="16" class="solid filled" rx="0"></rect><rect x="368" y="64" width="8" height="16" class="solid filled" rx="0"></rect><rect x="376" y="72" width="8" height="8" class="solid filled" rx="0"></rect><rect x="384" y="72" width="8" height="8" class="solid filled" rx="0"></rect><rect x="296" y="80" width="8" height="16" class="solid filled" rx="0"></rect><rect x="304" y="80" width="8" height="16" class="solid filled" rx="0"></rect><rect x="312" y="80" width="8" height="16" class="solid filled" rx="0"></rect><rect x="352" y="80" width="8" height="16" class="solid filled" rx="0"></rect><rect x="360" y="80" width="8" height="16" class="solid filled" rx="0"></rect><rect x="368" y="80" width="8" height="16" class="solid filled" rx="0"></rect><text x="378" y="92" >▀</text><rect x="296" y="96" width="8" height="16" class="solid filled" rx="0"></rect><rect x="304" y="96" width="8" height="16" class="solid filled" rx="0"></rect><rect x="312" y="96" width="8" height="16" class="solid filled" rx="0"></rect><rect x="352" y="96" width="8" height="16" class="solid filled" rx="0"></rect><rect x="360" y="96" width="8" height="16" class="solid filled" rx="0"></rect><rect x="368" y="96" width="8" height="16" class="solid filled" rx="0"></rect><rect x="296" y="112" width="8" height="16" class="solid filled" rx="0"></rect><rect x="304" y="112" width="8" height="16" class="solid filled" rx="0"></rect><rect x="312" y="112" width="8" height="16" class="solid filled" rx="0"></rect><rect x="352" y="112" width="8" height="16" class="solid filled" rx="0"></rect><rect x="360" y="112" width="8" height="16" class="solid filled" rx="0"></rect><rect x="368" y="112" width="8" height="16" class="solid filled" rx="0"></rect><rect x="296" y="128" width="8" height="16" class="solid filled" rx="0"></rect><rect x="304" y="128" width="8" height="16" class="solid filled" rx="0"></rect><rect x="312" y="128" width="8" height="16" class="solid filled" rx="0"></rect><rect x="352" y="128" width="8" height="16" class="solid filled" rx="0"></rect><text x="362" y="140" >▀</text><rect x="424" y="24" width="8" height="8" class="solid filled" rx="0"></rect><rect x="432" y="16" width="8" height="16" class="solid filled" rx="0"></rect><rect x="440" y="16" width="8" height="16" class="solid filled" rx="0"></rect><rect x="448" y="16" width="8" height="16" class="solid filled" rx="0"></rect><rect x="456" y="16" width="8" height="16" class="solid filled" rx="0"></rect><rect x="464" y="16" width="8" height="16" class="solid filled" rx="0"></rect><rect x="472" y="16" width="8" height="16" class="solid filled" rx="0"></rect><rect x="480" y="16" width="8" height="16" class="solid filled" rx="0"></rect><rect x="488" y="16" width="8" height="16" class="solid filled" rx="0"></rect><rect x="416" y="32" width="8" height="16" class="solid filled" rx="0"></rect><rect x="424" y="32" width="8" height="16" class="solid filled" rx="0"></rect><rect x="432" y="32" width="8" height="16" class="solid filled" rx="0"></rect><rect x="472" y="32" width="8" height="16" class="solid filled" rx="0"></rect><rect x="480" y="32" width="8" height="16" class="solid filled" rx="0"></rect><rect x="488" y="32" width="8" height="16" class="solid filled" rx="0"></rect><rect x="416" y="48" width="8" height="16" class="solid filled" rx="0"></rect><rect x="424" y="48" width="8" height="16" class="solid filled" rx="0"></rect><rect x="432" y="48" width="8" height="16" class="solid filled" rx="0"></rect><rect x="472" y="48" width="8" height="16" class="solid filled" rx="0"></rect><rect x="480" y="48" width="8" height="16" class="solid filled" rx="0"></rect><rect x="488" y="48" width="8" height="16" class="solid filled" rx="0"></rect><rect x="416" y="64" width="8" height="16" class="solid filled" rx="0"></rect><rect x="424" y="64" width="8" height="16" class="solid filled" rx="0"></rect><rect x="432" y="64" width="8" height="16" class="solid filled" rx="0"></rect><rect x="472" y="64" width="8" height="16" class="solid filled" rx="0"></rect><rect x="480" y="64" width="8" height="16" class="solid filled" rx="0"></rect><rect x="488" y="64" width="8" height="16" class="solid filled" rx="0"></rect><text x="402" y="92" >▀</text><rect x="408" y="80" width="8" height="16" class="solid filled" rx="0"></rect><rect x="416" y="80" width="8" height="16" class="solid filled" rx="0"></rect><rect x="424" y="80" width="8" height="16" class="solid filled" rx="0"></rect><rect x="432" y="80" width="8" height="16" class="solid filled" rx="0"></rect><rect x="440" y="80" width="8" height="16" class="solid filled" rx="0"></rect><rect x="448" y="80" width="8" height="16" class="solid filled" rx="0"></rect><rect x="456" y="80" width="8" height="16" class="solid filled" rx="0"></rect><rect x="464" y="80" width="8" height="16" class="solid filled" rx="0"></rect><rect x="472" y="80" width="8" height="16" class="solid filled" rx="0"></rect><rect x="480" y="80" width="8" height="16" class="solid filled" rx="0"></rect><rect x="488" y="80" width="8" height="16" class="solid filled" rx="0"></rect><rect x="416" y="96" width="8" height="16" class="solid filled" rx="0"></rect><rect x="424" y="96" width="8" height="16" class="solid filled" rx="0"></rect><rect x="432" y="96" width="8" height="16" class="solid filled" rx="0"></rect><rect x="472" y="96" width="8" height="16" class="solid filled" rx="0"></rect><rect x="480" y="96" width="8" height="16" class="solid filled" rx="0"></rect><rect x="488" y="96" width="8" height="16" class="solid filled" rx="0"></rect><rect x="416" y="112" width="8" height="16" class="solid filled" rx="0"></rect><rect x="424" y="112" width="8" height="16" class="solid filled" rx="0"></rect><rect x="432" y="112" width="8" height="16" class="solid filled" rx="0"></rect><rect x="472" y="112" width="8" height="16" class="solid filled" rx="0"></rect><rect x="480" y="112" width="8" height="16" class="solid filled" rx="0"></rect><rect x="488" y="112" width="8" height="16" class="solid filled" rx="0"></rect><rect x="416" y="128" width="8" height="16" class="solid filled" rx="0"></rect><rect x="424" y="128" width="8" height="16" class="solid filled" rx="0"></rect><rect x="432" y="128" width="8" height="16" class="solid filled" rx="0"></rect><rect x="472" y="128" width="8" height="16" class="solid filled" rx="0"></rect><text x="482" y="140" >▀</text><rect x="504" y="16" width="8" height="16" class="solid filled" rx="0"></rect><rect x="512" y="16" width="8" height="16" class="solid filled" rx="0"></rect><rect x="520" y="16" width="8" height="16" class="solid filled" rx="0"></rect><rect x="528" y="24" width="8" height="8" class="solid filled" rx="0"></rect><rect x="536" y="24" width="8" height="8" class="solid filled" rx="0"></rect><rect x="544" y="24" width="8" height="8" class="solid filled" rx="0"></rect><rect x="552" y="24" width="8" height="8" class="solid filled" rx="0"></rect><rect x="504" y="32" width="8" height="16" class="solid filled" rx="0"></rect><rect x="512" y="32" width="8" height="16" class="solid filled" rx="0"></rect><rect x="520" y="32" width="8" height="16" class="solid filled" rx="0"></rect><rect x="552" y="32" width="8" height="16" class="solid filled" rx="0"></rect><rect x="560" y="32" width="8" height="16" class="solid filled" rx="0"></rect><rect x="568" y="40" width="8" height="8" class="solid filled" rx="0"></rect><rect x="504" y="48" width="8" height="16" class="solid filled" rx="0"></rect><rect x="512" y="48" width="8" height="16" class="solid filled" rx="0"></rect><rect x="520" y="48" width="8" height="16" class="solid filled" rx="0"></rect><rect x="552" y="48" width="8" height="16" class="solid filled" rx="0"></rect><rect x="560" y="48" width="8" height="16" class="solid filled" rx="0"></rect><rect x="568" y="48" width="8" height="16" class="solid filled" rx="0"></rect><rect x="504" y="64" width="8" height="16" class="solid filled" rx="0"></rect><rect x="512" y="64" width="8" height="16" class="solid filled" rx="0"></rect><rect x="520" y="64" width="8" height="16" class="solid filled" rx="0"></rect><rect x="552" y="64" width="8" height="16" class="solid filled" rx="0"></rect><rect x="560" y="64" width="8" height="16" class="solid filled" rx="0"></rect><rect x="568" y="64" width="8" height="16" class="solid filled" rx="0"></rect><rect x="504" y="80" width="8" height="16" class="solid filled" rx="0"></rect><rect x="512" y="80" width="8" height="16" class="solid filled" rx="0"></rect><rect x="520" y="80" width="8" height="16" class="solid filled" rx="0"></rect><rect x="552" y="80" width="8" height="16" class="solid filled" rx="0"></rect><rect x="560" y="80" width="8" height="16" class="solid filled" rx="0"></rect><rect x="568" y="80" width="8" height="16" class="solid filled" rx="0"></rect><rect x="504" y="96" width="8" height="16" class="solid filled" rx="0"></rect><rect x="512" y="96" width="8" height="16" class="solid filled" rx="0"></rect><rect x="520" y="96" width="8" height="16" class="solid filled" rx="0"></rect><rect x="552" y="96" width="8" height="16" class="solid filled" rx="0"></rect><rect x="560" y="96" width="8" height="16" class="solid filled" rx="0"></rect><rect x="568" y="96" width="8" height="16" class="solid filled" rx="0"></rect><rect x="504" y="112" width="8" height="16" class="solid filled" rx="0"></rect><rect x="512" y="112" width="8" height="16" class="solid filled" rx="0"></rect><rect x="520" y="112" width="8" height="16" class="solid filled" rx="0"></rect><rect x="552" y="112" width="8" height="16" class="solid filled" rx="0"></rect><rect x="560" y="112" width="8" height="16" class="solid filled" rx="0"></rect><rect x="568" y="112" width="8" height="16" class="solid filled" rx="0"></rect><text x="514" y="140" >▀</text><rect x="520" y="128" width="8" height="16" class="solid filled" rx="0"></rect><rect x="552" y="128" width="8" height="16" class="solid filled" rx="0"></rect><text x="562" y="140" >▀</text><rect x="648" y="24" width="8" height="8" class="solid filled" rx="0"></rect><rect x="656" y="16" width="8" height="16" class="solid filled" rx="0"></rect><rect x="664" y="16" width="8" height="16" class="solid filled" rx="0"></rect><rect x="672" y="16" width="8" height="16" class="solid filled" rx="0"></rect><rect x="680" y="16" width="8" height="16" class="solid filled" rx="0"></rect><rect x="688" y="16" width="8" height="16" class="solid filled" rx="0"></rect><rect x="696" y="16" width="8" height="16" class="solid filled" rx="0"></rect><rect x="704" y="24" width="8" height="8" class="solid filled" rx="0"></rect><rect x="640" y="32" width="8" height="16" class="solid filled" rx="0"></rect><rect x="648" y="32" width="8" height="16" class="solid filled" rx="0"></rect><rect x="656" y="32" width="8" height="16" class="solid filled" rx="0"></rect><rect x="696" y="32" width="8" height="16" class="solid filled" rx="0"></rect><rect x="704" y="32" width="8" height="16" class="solid filled" rx="0"></rect><rect x="712" y="32" width="8" height="16" class="solid filled" rx="0"></rect><rect x="640" y="48" width="8" height="16" class="solid filled" rx="0"></rect><rect x="648" y="48" width="8" height="16" class="solid filled" rx="0"></rect><rect x="656" y="48" width="8" height="16" class="solid filled" rx="0"></rect><rect x="696" y="48" width="8" height="16" class="solid filled" rx="0"></rect><text x="706" y="60" >▀</text><rect x="632" y="72" width="8" height="8" class="solid filled" rx="0"></rect><rect x="640" y="64" width="8" height="16" class="solid filled" rx="0"></rect><rect x="648" y="64" width="8" height="16" class="solid filled" rx="0"></rect><rect x="656" y="64" width="8" height="16" class="solid filled" rx="0"></rect><rect x="640" y="80" width="8" height="16" class="solid filled" rx="0"></rect><rect x="648" y="80" width="8" height="16" class="solid filled" rx="0"></rect><rect x="656" y="80" width="8" height="16" class="solid filled" rx="0"></rect><rect x="672" y="80" width="8" height="16" class="solid filled" rx="0"></rect><rect x="680" y="80" width="8" height="16" class="solid filled" rx="0"></rect><rect x="688" y="80" width="8" height="16" class="solid filled" rx="0"></rect><rect x="696" y="80" width="8" height="16" class="solid filled" rx="0"></rect><rect x="704" y="88" width="8" height="8" class="solid filled" rx="0"></rect><rect x="640" y="96" width="8" height="16" class="solid filled" rx="0"></rect><rect x="648" y="96" width="8" height="16" class="solid filled" rx="0"></rect><rect x="656" y="96" width="8" height="16" class="solid filled" rx="0"></rect><rect x="696" y="96" width="8" height="16" class="solid filled" rx="0"></rect><rect x="704" y="96" width="8" height="16" class="solid filled" rx="0"></rect><rect x="712" y="96" width="8" height="16" class="solid filled" rx="0"></rect><rect x="640" y="112" width="8" height="16" class="solid filled" rx="0"></rect><rect x="648" y="112" width="8" height="16" class="solid filled" rx="0"></rect><rect x="656" y="112" width="8" height="16" class="solid filled" rx="0"></rect><rect x="696" y="112" width="8" height="16" class="solid filled" rx="0"></rect><rect x="704" y="112" width="8" height="16" class="solid filled" rx="0"></rect><rect x="712" y="112" width="8" height="16" class="solid filled" rx="0"></rect><rect x="640" y="128" width="8" height="16" class="solid filled" rx="0"></rect><rect x="648" y="128" width="8" height="16" class="solid filled" rx="0"></rect><rect x="656" y="128" width="8" height="16" class="solid filled" rx="0"></rect><rect x="664" y="128" width="8" height="16" class="solid filled" rx="0"></rect><rect x="672" y="128" width="8" height="16" class="solid filled" rx="0"></rect><rect x="680" y="128" width="8" height="16" class="solid filled" rx="0"></rect><rect x="688" y="128" width="8" height="16" class="solid filled" rx="0"></rect><rect x="696" y="128" width="8" height="16" class="solid filled" rx="0"></rect><text x="706" y="140" >▀</text><rect x="752" y="24" width="8" height="8" class="solid filled" rx="0"></rect><rect x="760" y="16" width="8" height="16" class="solid filled" rx="0"></rect><rect x="768" y="16" width="8" height="16" class="solid filled" rx="0"></rect><rect x="776" y="16" width="8" height="16" class="solid filled" rx="0"></rect><rect x="784" y="16" width="8" height="16" class="solid filled" rx="0"></rect><rect x="792" y="16" width="8" height="16" class="solid filled" rx="0"></rect><rect x="800" y="16" width="8" height="16" class="solid filled" rx="0"></rect><rect x="808" y="16" width="8" height="16" class="solid filled" rx="0"></rect><rect x="816" y="16" width="8" height="16" class="solid filled" rx="0"></rect><rect x="744" y="32" width="8" height="16" class="solid filled" rx="0"></rect><rect x="752" y="32" width="8" height="16" class="solid filled" rx="0"></rect><rect x="760" y="32" width="8" height="16" class="solid filled" rx="0"></rect><rect x="800" y="32" width="8" height="16" class="solid filled" rx="0"></rect><rect x="808" y="32" width="8" height="16" class="solid filled" rx="0"></rect><rect x="816" y="32" width="8" height="16" class="solid filled" rx="0"></rect><rect x="744" y="48" width="8" height="16" class="solid filled" rx="0"></rect><rect x="752" y="48" width="8" height="16" class="solid filled" rx="0"></rect><rect x="760" y="48" width="8" height="16" class="solid filled" rx="0"></rect><rect x="800" y="48" width="8" height="16" class="solid filled" rx="0"></rect><text x="810" y="60" >▀</text><rect x="736" y="72" width="8" height="8" class="solid filled" rx="0"></rect><rect x="744" y="64" width="8" height="16" class="solid filled" rx="0"></rect><rect x="752" y="64" width="8" height="16" class="solid filled" rx="0"></rect><rect x="760" y="64" width="8" height="16" class="solid filled" rx="0"></rect><rect x="768" y="72" width="8" height="8" class="solid filled" rx="0"></rect><rect x="776" y="72" width="8" height="8" class="solid filled" rx="0"></rect><rect x="784" y="72" width="8" height="8" class="solid filled" rx="0"></rect><rect x="744" y="80" width="8" height="16" class="solid filled" rx="0"></rect><rect x="752" y="80" width="8" height="16" class="solid filled" rx="0"></rect><rect x="760" y="80" width="8" height="16" class="solid filled" rx="0"></rect><rect x="744" y="96" width="8" height="16" class="solid filled" rx="0"></rect><rect x="752" y="96" width="8" height="16" class="solid filled" rx="0"></rect><rect x="760" y="96" width="8" height="16" class="solid filled" rx="0"></rect><rect x="800" y="96" width="8" height="16" class="solid filled" rx="0"></rect><rect x="808" y="104" width="8" height="8" class="solid filled" rx="0"></rect><rect x="744" y="112" width="8" height="16" class="solid filled" rx="0"></rect><rect x="752" y="112" width="8" height="16" class="solid filled" rx="0"></rect><rect x="760" y="112" width="8" height="16" class="solid filled" rx="0"></rect><rect x="800" y="112" width="8" height="16" class="solid filled" rx="0"></rect><rect x="808" y="112" width="8" height="16" class="solid filled" rx="0"></rect><rect x="816" y="112" width="8" height="16" class="solid filled" rx="0"></rect><rect x="744" y="128" width="8" height="16" class="solid filled" rx="0"></rect><rect x="752" y="128" width="8" height="16" class="solid filled" rx="0"></rect><rect x="760" y="128" width="8" height="16" class="solid filled" rx="0"></rect><rect x="768" y="128" width="8" height="16" class="solid filled" rx="0"></rect><rect x="776" y="128" width="8" height="16" class="solid filled" rx="0"></rect><rect x="784" y="128" width="8" height="16" class="solid filled" rx="0"></rect><rect x="792" y="128" width="8" height="16" class="solid filled" rx="0"></rect><rect x="800" y="128" width="8" height="16" class="solid filled" rx="0"></rect><rect x="808" y="128" width="8" height="16" class="solid filled" rx="0"></rect><rect x="816" y="128" width="8" height="16" class="solid filled" rx="0"></rect><g><text x="26" y="44">▀</text><text x="34" y="44">▀</text><text x="42" y="44">▀</text></g><g><text x="242" y="60">▀</text><text x="250" y="60">▀</text></g><g><text x="282" y="92">▀</text><text x="290" y="92">▀</text></g><g><text x="322" y="92">▀▀</text><text x="330" y="92">▀</text><text x="338" y="92">▀</text></g><g><text x="530" y="44">▀</text><text x="538" y="44">▀</text><text x="546" y="44">▀</text></g><g><text x="626" y="92">▀</text><text x="634" y="92">▀</text></g><g><text x="730" y="92">▀</text><text x="738" y="92">▀</text></g><g><text x="770" y="92">▀</text><text x="778" y="92">▀</text><text x="786" y="92">▀</text></g></svg>