999
"DXF R12 Output" (www.mydxf.blogspot.com)
 0 
SECTION
 2 
HEADER
 9 
$ACADVER
 1 
AC1009
 9 
$EXTMIN
 10 
 0 
 20 
 0 
 9 
$EXTMAX
 10 
 8.5 
 20 
 11 
 0 
ENDSEC
 0 
SECTION
 2 
ENTITIES
0
LINE
8
Layer 1
10
90.248021
20
528.991113
11
87.488846
21
528.417344
0
LINE
8
Layer 1
10
87.488846
20
528.417344
11
84.828452
21
527.645216
0
LINE
8
Layer 1
10
84.828452
20
527.645216
11
82.273619
21
526.681655
0
LINE
8
Layer 1
10
82.273619
20
526.681655
11
79.831126
21
525.533586
0
LINE
8
Layer 1
10
79.831126
20
525.533586
11
77.507753
21
524.207933
0
LINE
8
Layer 1
10
77.507753
20
524.207933
11
75.310281
21
522.711623
0
LINE
8
Layer 1
10
75.310281
20
522.711623
11
73.245490
21
521.051580
0
LINE
8
Layer 1
10
73.245490
20
521.051580
11
71.320158
21
519.234729
0
LINE
8
Layer 1
10
71.320158
20
519.234729
11
69.541067
21
517.267996
0
LINE
8
Layer 1
10
69.541067
20
517.267996
11
67.914996
21
515.158306
0
LINE
8
Layer 1
10
67.914996
20
515.158306
11
66.448725
21
512.912583
0
LINE
8
Layer 1
10
66.448725
20
512.912583
11
65.149035
21
510.537754
0
LINE
8
Layer 1
10
65.149035
20
510.537754
11
64.022704
21
508.040742
0
LINE
8
Layer 1
10
64.022704
20
508.040742
11
63.076513
21
505.428475
0
LINE
8
Layer 1
10
63.076513
20
505.428475
11
62.317243
21
502.707875
0
LINE
8
Layer 1
10
62.317243
20
502.707875
11
61.751672
21
499.885870
0
LINE
8
Layer 1
10
61.751672
20
499.885870
11
61.613047
21
486.817363
0
LINE
8
Layer 1
10
61.613047
20
486.817363
11
61.592525
21
448.521217
0
LINE
8
Layer 1
10
61.592525
20
448.521217
11
61.912539
21
287.160736
0
LINE
8
Layer 1
10
61.912539
20
287.160736
11
62.568750
21
55.197074
0
LINE
8
Layer 1
10
62.568750
20
55.197074
11
62.803077
21
24.401986
0
LINE
8
Layer 1
10
62.803077
20
24.401986
11
62.944213
21
19.728488
0
LINE
8
Layer 1
10
62.944213
20
19.728488
11
63.119393
21
18.176683
0
LINE
8
Layer 1
10
63.119393
20
18.176683
11
63.659155
21
15.885622
0
LINE
8
Layer 1
10
63.659155
20
15.885622
11
64.369577
21
13.594169
0
LINE
8
Layer 1
10
64.369577
20
13.594169
11
65.235947
21
11.331993
0
LINE
8
Layer 1
10
65.235947
20
11.331993
11
66.243550
21
9.128765
0
LINE
8
Layer 1
10
66.243550
20
9.128765
11
67.377674
21
7.014157
0
LINE
8
Layer 1
10
67.377674
20
7.014157
11
68.623606
21
5.017838
0
LINE
8
Layer 1
10
68.623606
20
5.017838
11
69.966631
21
3.169479
0
LINE
8
Layer 1
10
69.966631
20
3.169479
11
71.392037
21
1.498751
0
LINE
8
Layer 1
10
71.392037
20
1.498751
11
72.457779
21
0.352222
0
LINE
8
Layer 1
10
72.457779
20
0.352222
11
328.607063
21
0.352222
0
LINE
8
Layer 1
10
328.607063
20
0.352222
11
584.755993
21
0.352222
0
LINE
8
Layer 1
10
584.755993
20
0.352222
11
586.358664
21
2.027917
0
LINE
8
Layer 1
10
586.358664
20
2.027917
11
587.930384
21
3.758740
0
LINE
8
Layer 1
10
587.930384
20
3.758740
11
589.240199
21
5.417629
0
LINE
8
Layer 1
10
589.240199
20
5.417629
11
590.411703
21
7.174745
0
LINE
8
Layer 1
10
590.411703
20
7.174745
11
591.568489
21
9.200247
0
LINE
8
Layer 1
10
591.568489
20
9.200247
11
593.412052
21
13.048355
0
LINE
8
Layer 1
10
593.412052
20
13.048355
11
594.639069
21
16.735629
0
LINE
8
Layer 1
10
594.639069
20
16.735629
11
595.362319
21
20.705016
0
LINE
8
Layer 1
10
595.362319
20
20.705016
11
595.694581
21
25.399460
0
LINE
8
Layer 1
10
595.694581
20
25.399460
11
595.645109
21
103.942968
0
LINE
8
Layer 1
10
595.645109
20
103.942968
11
595.173925
21
266.946292
0
LINE
8
Layer 1
10
595.173925
20
266.946292
11
594.566810
21
428.415164
0
LINE
8
Layer 1
10
594.566810
20
428.415164
11
594.109549
21
502.355316
0
LINE
8
Layer 1
10
594.109549
20
502.355316
11
593.596273
21
504.649026
0
LINE
8
Layer 1
10
593.596273
20
504.649026
11
592.941983
21
506.878919
0
LINE
8
Layer 1
10
592.941983
20
506.878919
11
592.150617
21
509.040445
0
LINE
8
Layer 1
10
592.150617
20
509.040445
11
591.226113
21
511.129054
0
LINE
8
Layer 1
10
591.226113
20
511.129054
11
588.993437
21
515.069320
0
LINE
8
Layer 1
10
588.993437
20
515.069320
11
586.275452
21
518.663317
0
LINE
8
Layer 1
10
586.275452
20
518.663317
11
583.103658
21
521.874643
0
LINE
8
Layer 1
10
583.103658
20
521.874643
11
579.509551
21
524.666898
0
LINE
8
Layer 1
10
579.509551
20
524.666898
11
577.563973
21
525.894499
0
LINE
8
Layer 1
10
577.563973
20
525.894499
11
575.524629
21
527.003681
0
LINE
8
Layer 1
10
575.524629
20
527.003681
11
573.395456
21
527.989895
0
LINE
8
Layer 1
10
573.395456
20
527.989895
11
571.180390
21
528.848591
0
LINE
8
Layer 1
10
571.180390
20
528.848591
11
569.892341
21
529.065800
0
LINE
8
Layer 1
10
569.892341
20
529.065800
11
565.671111
21
529.229679
0
LINE
8
Layer 1
10
565.671111
20
529.229679
11
537.883968
21
529.425295
0
LINE
8
Layer 1
10
537.883968
20
529.425295
11
331.114961
21
529.482886
0
LINE
8
Layer 1
10
331.114961
20
529.482886
11
139.161661
21
529.364397
0
LINE
8
Layer 1
10
139.161661
20
529.364397
11
101.680685
21
529.219510
0
LINE
8
Layer 1
10
101.680685
20
529.219510
11
90.248021
21
528.991113
0
LINE
8
Layer 1
10
550.686458
20
500.076017
11
553.156246
21
499.121393
0
LINE
8
Layer 1
10
553.156246
20
499.121393
11
555.452136
21
497.877538
0
LINE
8
Layer 1
10
555.452136
20
497.877538
11
557.550515
21
496.369413
0
LINE
8
Layer 1
10
557.550515
20
496.369413
11
559.427768
21
494.621981
0
LINE
8
Layer 1
10
559.427768
20
494.621981
11
561.060281
21
492.660203
0
LINE
8
Layer 1
10
561.060281
20
492.660203
11
562.424440
21
490.509042
0
LINE
8
Layer 1
10
562.424440
20
490.509042
11
563.496632
21
488.193458
0
LINE
8
Layer 1
10
563.496632
20
488.193458
11
564.253242
21
485.738414
0
LINE
8
Layer 1
10
564.253242
20
485.738414
11
564.413398
21
483.630080
0
LINE
8
Layer 1
10
564.413398
20
483.630080
11
564.550507
21
477.760488
0
LINE
8
Layer 1
10
564.550507
20
477.760488
11
564.787744
21
448.562536
0
LINE
8
Layer 1
10
564.787744
20
448.562536
11
565.339445
21
277.106563
0
LINE
8
Layer 1
10
565.339445
20
277.106563
11
565.787826
21
53.445311
0
LINE
8
Layer 1
10
565.787826
20
53.445311
11
565.679523
21
36.159189
0
LINE
8
Layer 1
10
565.679523
20
36.159189
11
564.708325
21
33.733135
0
LINE
8
Layer 1
10
564.708325
20
33.733135
11
563.704488
21
31.580443
0
LINE
8
Layer 1
10
563.704488
20
31.580443
11
562.487814
21
29.593472
0
LINE
8
Layer 1
10
562.487814
20
29.593472
11
561.070064
21
27.782796
0
LINE
8
Layer 1
10
561.070064
20
27.782796
11
559.463001
21
26.158991
0
LINE
8
Layer 1
10
559.463001
20
26.158991
11
557.678386
21
24.732631
0
LINE
8
Layer 1
10
557.678386
20
24.732631
11
555.727981
21
23.514292
0
LINE
8
Layer 1
10
555.727981
20
23.514292
11
553.623546
21
22.514548
0
LINE
8
Layer 1
10
553.623546
20
22.514548
11
551.376845
21
21.743974
0
LINE
8
Layer 1
10
551.376845
20
21.743974
11
549.307773
21
21.481932
0
LINE
8
Layer 1
10
549.307773
20
21.481932
11
543.641189
21
21.271913
0
LINE
8
Layer 1
10
543.641189
20
21.271913
11
512.324364
21
20.957809
0
LINE
8
Layer 1
10
512.324364
20
20.957809
11
305.418259
21
20.402360
0
LINE
8
Layer 1
10
305.418259
20
20.402360
11
148.437120
21
20.164984
0
LINE
8
Layer 1
10
148.437120
20
20.164984
11
117.245267
21
20.236615
0
LINE
8
Layer 1
10
117.245267
20
20.236615
11
107.686190
21
20.436932
0
LINE
8
Layer 1
10
107.686190
20
20.436932
11
105.072035
21
21.212354
0
LINE
8
Layer 1
10
105.072035
20
21.212354
11
102.612642
21
22.350290
0
LINE
8
Layer 1
10
102.612642
20
22.350290
11
100.341127
21
23.818061
0
LINE
8
Layer 1
10
100.341127
20
23.818061
11
98.290609
21
25.582993
0
LINE
8
Layer 1
10
98.290609
20
25.582993
11
96.494208
21
27.612409
0
LINE
8
Layer 1
10
96.494208
20
27.612409
11
94.985041
21
29.873633
0
LINE
8
Layer 1
10
94.985041
20
29.873633
11
93.796227
21
32.333990
0
LINE
8
Layer 1
10
93.796227
20
32.333990
11
92.960884
21
34.960802
0
LINE
8
Layer 1
10
92.960884
20
34.960802
11
92.795812
21
37.093916
0
LINE
8
Layer 1
10
92.795812
20
37.093916
11
92.655124
21
43.153503
0
LINE
8
Layer 1
10
92.655124
20
43.153503
11
92.411873
21
74.025806
0
LINE
8
Layer 1
10
92.411873
20
74.025806
11
91.832700
21
259.598896
0
LINE
8
Layer 1
10
91.832700
20
259.598896
11
91.451214
21
437.952870
0
LINE
8
Layer 1
10
91.451214
20
437.952870
11
91.494314
21
473.351540
0
LINE
8
Layer 1
10
91.494314
20
473.351540
11
91.685944
21
484.142093
0
LINE
8
Layer 1
10
91.685944
20
484.142093
11
92.374006
21
486.633927
0
LINE
8
Layer 1
10
92.374006
20
486.633927
11
93.383484
21
488.980422
0
LINE
8
Layer 1
10
93.383484
20
488.980422
11
94.693620
21
491.158873
0
LINE
8
Layer 1
10
94.693620
20
491.158873
11
96.283655
21
493.146575
0
LINE
8
Layer 1
10
96.283655
20
493.146575
11
98.132834
21
494.920826
0
LINE
8
Layer 1
10
98.132834
20
494.920826
11
100.220399
21
496.458918
0
LINE
8
Layer 1
10
100.220399
20
496.458918
11
102.525592
21
497.738149
0
LINE
8
Layer 1
10
102.525592
20
497.738149
11
105.027655
21
498.735814
0
LINE
8
Layer 1
10
105.027655
20
498.735814
11
107.773679
21
499.634692
0
LINE
8
Layer 1
10
107.773679
20
499.634692
11
318.558534
21
500.254876
0
LINE
8
Layer 1
10
318.558534
20
500.254876
11
539.044784
21
500.780515
0
LINE
8
Layer 1
10
539.044784
20
500.780515
11
547.273331
21
500.588339
0
LINE
8
Layer 1
10
547.273331
20
500.588339
11
549.318892
21
500.388105
0
LINE
8
Layer 1
10
549.318892
20
500.388105
11
550.686458
21
500.076017
0
LINE
8
Layer 1
10
432.153050
20
349.926645
11
417.171274
21
348.937147
0
LINE
8
Layer 1
10
417.171274
20
348.937147
11
407.811368
21
348.160638
0
LINE
8
Layer 1
10
407.811368
20
348.160638
11
398.858342
21
347.459547
0
LINE
8
Layer 1
10
398.858342
20
347.459547
11
390.698240
21
347.067820
0
LINE
8
Layer 1
10
390.698240
20
347.067820
11
383.289488
21
346.984201
0
LINE
8
Layer 1
10
383.289488
20
346.984201
11
376.590515
21
347.207432
0
LINE
8
Layer 1
10
376.590515
20
347.207432
11
369.752663
21
347.519801
0
LINE
8
Layer 1
10
369.752663
20
347.519801
11
363.756187
21
347.544203
0
LINE
8
Layer 1
10
363.756187
20
347.544203
11
357.606384
21
347.259373
0
LINE
8
Layer 1
10
357.606384
20
347.259373
11
350.308554
21
346.644046
0
LINE
8
Layer 1
10
350.308554
20
346.644046
11
336.902990
21
345.366637
0
LINE
8
Layer 1
10
336.902990
20
345.366637
11
331.653059
21
345.060378
0
LINE
8
Layer 1
10
331.653059
20
345.060378
11
323.883701
21
344.861784
0
LINE
8
Layer 1
10
323.883701
20
344.861784
11
302.387323
21
344.779570
0
LINE
8
Layer 1
10
302.387323
20
344.779570
11
275.615083
21
345.103955
0
LINE
8
Layer 1
10
275.615083
20
345.103955
11
246.768211
21
345.818898
0
LINE
8
Layer 1
10
246.768211
20
345.818898
11
232.284469
21
346.121096
0
LINE
8
Layer 1
10
232.284469
20
346.121096
11
216.782081
21
346.240468
0
LINE
8
Layer 1
10
216.782081
20
346.240468
11
202.373613
21
346.126432
0
LINE
8
Layer 1
10
202.373613
20
346.126432
11
199.871574
21
345.885264
0
LINE
8
Layer 1
10
199.871574
20
345.885264
11
198.290517
21
345.423434
0
LINE
8
Layer 1
10
198.290517
20
345.423434
11
195.665043
21
344.254102
0
LINE
8
Layer 1
10
195.665043
20
344.254102
11
193.256727
21
342.715113
0
LINE
8
Layer 1
10
193.256727
20
342.715113
11
191.139718
21
340.861998
0
LINE
8
Layer 1
10
191.139718
20
340.861998
11
189.388164
21
338.750285
0
LINE
8
Layer 1
10
189.388164
20
338.750285
11
188.005759
21
336.015170
0
LINE
8
Layer 1
10
188.005759
20
336.015170
11
186.390785
21
331.841349
0
LINE
8
Layer 1
10
186.390785
20
331.841349
11
184.961020
21
327.409625
0
LINE
8
Layer 1
10
184.961020
20
327.409625
11
184.134241
21
323.900801
0
LINE
8
Layer 1
10
184.134241
20
323.900801
11
183.854179
21
319.386918
0
LINE
8
Layer 1
10
183.854179
20
319.386918
11
183.889766
21
311.553571
0
LINE
8
Layer 1
10
183.889766
20
311.553571
11
184.222215
21
302.683806
0
LINE
8
Layer 1
10
184.222215
20
302.683806
11
184.573830
21
299.561836
0
LINE
8
Layer 1
10
184.573830
20
299.561836
11
185.157650
21
295.980186
0
LINE
8
Layer 1
10
185.157650
20
295.980186
11
186.597618
21
287.119400
0
LINE
8
Layer 1
10
186.597618
20
287.119400
11
187.243935
21
281.042198
0
LINE
8
Layer 1
10
187.243935
20
281.042198
11
187.285049
21
278.755211
0
LINE
8
Layer 1
10
187.285049
20
278.755211
11
187.146441
21
276.813443
0
LINE
8
Layer 1
10
187.146441
20
276.813443
11
186.834341
21
275.100002
0
LINE
8
Layer 1
10
186.834341
20
275.100002
11
186.354978
21
273.497997
0
LINE
8
Layer 1
10
186.354978
20
273.497997
11
185.794265
21
271.758663
0
LINE
8
Layer 1
10
185.794265
20
271.758663
11
185.506239
21
269.863987
0
LINE
8
Layer 1
10
185.506239
20
269.863987
11
185.384839
21
260.878775
0
LINE
8
Layer 1
10
185.384839
20
260.878775
11
185.453598
21
254.069272
0
LINE
8
Layer 1
10
185.453598
20
254.069272
11
185.806321
21
249.418473
0
LINE
8
Layer 1
10
185.806321
20
249.418473
11
186.662678
21
245.340563
0
LINE
8
Layer 1
10
186.662678
20
245.340563
11
188.242341
21
240.249729
0
LINE
8
Layer 1
10
188.242341
20
240.249729
11
189.191629
21
237.598605
0
LINE
8
Layer 1
10
189.191629
20
237.598605
11
190.193809
21
235.304161
0
LINE
8
Layer 1
10
190.193809
20
235.304161
11
191.287056
21
233.319189
0
LINE
8
Layer 1
10
191.287056
20
233.319189
11
192.509543
21
231.596481
0
LINE
8
Layer 1
10
192.509543
20
231.596481
11
193.899446
21
230.088830
0
LINE
8
Layer 1
10
193.899446
20
230.088830
11
195.494938
21
228.749028
0
LINE
8
Layer 1
10
195.494938
20
228.749028
11
197.334195
21
227.529868
0
LINE
8
Layer 1
10
197.334195
20
227.529868
11
199.455390
21
226.384142
0
LINE
8
Layer 1
10
199.455390
20
226.384142
11
201.677618
21
225.377343
0
LINE
8
Layer 1
10
201.677618
20
225.377343
11
204.030567
21
224.589064
0
LINE
8
Layer 1
10
204.030567
20
224.589064
11
206.881794
21
223.986110
0
LINE
8
Layer 1
10
206.881794
20
223.986110
11
210.598853
21
223.535283
0
LINE
8
Layer 1
10
210.598853
20
223.535283
11
215.549301
21
223.203387
0
LINE
8
Layer 1
10
215.549301
20
223.203387
11
222.100694
21
222.957224
0
LINE
8
Layer 1
10
222.100694
20
222.957224
11
241.476541
21
222.589309
0
LINE
8
Layer 1
10
241.476541
20
222.589309
11
260.315989
21
222.220392
0
LINE
8
Layer 1
10
260.315989
20
222.220392
11
270.933504
21
221.835070
0
LINE
8
Layer 1
10
270.933504
20
221.835070
11
277.510388
21
221.585435
0
LINE
8
Layer 1
10
277.510388
20
221.585435
11
286.808514
21
221.557786
0
LINE
8
Layer 1
10
286.808514
20
221.557786
11
303.329108
21
221.698898
0
LINE
8
Layer 1
10
303.329108
20
221.698898
11
308.736842
21
221.720417
0
LINE
8
Layer 1
10
308.736842
20
221.720417
11
304.574061
21
213.341939
0
LINE
8
Layer 1
10
304.574061
20
213.341939
11
300.411634
21
204.963462
0
LINE
8
Layer 1
10
300.411634
20
204.963462
11
285.407985
21
204.957465
0
LINE
8
Layer 1
10
285.407985
20
204.957465
11
274.195306
21
204.875868
0
LINE
8
Layer 1
10
274.195306
20
204.875868
11
264.439787
21
204.657118
0
LINE
8
Layer 1
10
264.439787
20
204.657118
11
256.919536
21
204.325987
0
LINE
8
Layer 1
10
256.919536
20
204.325987
11
252.412659
21
203.907245
0
LINE
8
Layer 1
10
252.412659
20
203.907245
11
244.825948
21
203.214786
0
LINE
8
Layer 1
10
244.825948
20
203.214786
11
228.247366
21
202.322566
0
LINE
8
Layer 1
10
228.247366
20
202.322566
11
213.648795
21
201.432948
0
LINE
8
Layer 1
10
213.648795
20
201.432948
11
209.474571
21
200.952751
0
LINE
8
Layer 1
10
209.474571
20
200.952751
11
206.532116
21
200.372409
0
LINE
8
Layer 1
10
206.532116
20
200.372409
11
203.196683
21
199.239920
0
LINE
8
Layer 1
10
203.196683
20
199.239920
11
199.916779
21
197.532590
0
LINE
8
Layer 1
10
199.916779
20
197.532590
11
196.565636
21
195.172599
0
LINE
8
Layer 1
10
196.565636
20
195.172599
11
193.016485
21
192.082126
0
LINE
8
Layer 1
10
193.016485
20
192.082126
11
191.002145
21
190.031946
0
LINE
8
Layer 1
10
191.002145
20
190.031946
11
189.510754
21
188.127485
0
LINE
8
Layer 1
10
189.510754
20
188.127485
11
188.411740
21
186.174340
0
LINE
8
Layer 1
10
188.411740
20
186.174340
11
187.574532
21
183.978110
0
LINE
8
Layer 1
10
187.574532
20
183.978110
11
187.161479
21
182.459423
0
LINE
8
Layer 1
10
187.161479
20
182.459423
11
186.931550
21
180.831330
0
LINE
8
Layer 1
10
186.931550
20
180.831330
11
186.834404
21
174.977332
0
LINE
8
Layer 1
10
186.834404
20
174.977332
11
186.988744
21
169.506583
0
LINE
8
Layer 1
10
186.988744
20
169.506583
11
187.376712
21
163.570432
0
LINE
8
Layer 1
10
187.376712
20
163.570432
11
187.977008
21
157.428699
0
LINE
8
Layer 1
10
187.977008
20
157.428699
11
188.768333
21
151.341206
0
LINE
8
Layer 1
10
188.768333
20
151.341206
11
190.023032
21
141.829870
0
LINE
8
Layer 1
10
190.023032
20
141.829870
11
190.077872
21
139.500036
0
LINE
8
Layer 1
10
190.077872
20
139.500036
11
189.857711
21
137.424467
0
LINE
8
Layer 1
10
189.857711
20
137.424467
11
189.499620
21
133.445335
0
LINE
8
Layer 1
10
189.499620
20
133.445335
11
189.439581
21
129.001495
0
LINE
8
Layer 1
10
189.439581
20
129.001495
11
189.665425
21
124.728775
0
LINE
8
Layer 1
10
189.665425
20
124.728775
11
190.164981
21
121.263001
0
LINE
8
Layer 1
10
190.164981
20
121.263001
11
191.612534
21
115.957826
0
LINE
8
Layer 1
10
191.612534
20
115.957826
11
193.565805
21
110.515002
0
LINE
8
Layer 1
10
193.565805
20
110.515002
11
195.806215
21
105.480562
0
LINE
8
Layer 1
10
195.806215
20
105.480562
11
198.115186
21
101.400541
0
LINE
8
Layer 1
10
198.115186
20
101.400541
11
199.445632
21
99.572253
0
LINE
8
Layer 1
10
199.445632
20
99.572253
11
200.904927
21
97.907185
0
LINE
8
Layer 1
10
200.904927
20
97.907185
11
202.502623
21
96.398592
0
LINE
8
Layer 1
10
202.502623
20
96.398592
11
204.248276
21
95.039733
0
LINE
8
Layer 1
10
204.248276
20
95.039733
11
206.151438
21
93.823865
0
LINE
8
Layer 1
10
206.151438
20
93.823865
11
208.221664
21
92.744246
0
LINE
8
Layer 1
10
208.221664
20
92.744246
11
210.468508
21
91.794131
0
LINE
8
Layer 1
10
210.468508
20
91.794131
11
212.901523
21
90.966779
0
LINE
8
Layer 1
10
212.901523
20
90.966779
11
214.507231
21
90.566073
0
LINE
8
Layer 1
10
214.507231
20
90.566073
11
216.537826
21
90.315948
0
LINE
8
Layer 1
10
216.537826
20
90.315948
11
224.683955
21
90.048498
0
LINE
8
Layer 1
10
224.683955
20
90.048498
11
233.159623
21
90.039546
0
LINE
8
Layer 1
10
233.159623
20
90.039546
11
239.500631
21
90.436201
0
LINE
8
Layer 1
10
239.500631
20
90.436201
11
243.291253
21
90.708507
0
LINE
8
Layer 1
10
243.291253
20
90.708507
11
248.917687
21
90.910731
0
LINE
8
Layer 1
10
248.917687
20
90.910731
11
268.464058
21
91.175976
0
LINE
8
Layer 1
10
268.464058
20
91.175976
11
289.234612
21
91.470634
0
LINE
8
Layer 1
10
289.234612
20
91.470634
11
302.507135
21
92.072738
0
LINE
8
Layer 1
10
302.507135
20
92.072738
11
330.527145
21
94.085645
0
LINE
8
Layer 1
10
330.527145
20
94.085645
11
338.055450
21
94.752390
0
LINE
8
Layer 1
10
338.055450
20
94.752390
11
341.324357
21
95.197646
0
LINE
8
Layer 1
10
341.324357
20
95.197646
11
344.177235
21
96.314010
0
LINE
8
Layer 1
10
344.177235
20
96.314010
11
346.715830
21
97.880021
0
LINE
8
Layer 1
10
346.715830
20
97.880021
11
348.902082
21
99.837260
0
LINE
8
Layer 1
10
348.902082
20
99.837260
11
350.697933
21
102.127308
0
LINE
8
Layer 1
10
350.697933
20
102.127308
11
352.065324
21
104.691746
0
LINE
8
Layer 1
10
352.065324
20
104.691746
11
352.966196
21
107.472154
0
LINE
8
Layer 1
10
352.966196
20
107.472154
11
353.362491
21
110.410113
0
LINE
8
Layer 1
10
353.362491
20
110.410113
11
353.216150
21
113.447204
0
LINE
8
Layer 1
10
353.216150
20
113.447204
11
352.802293
21
115.496884
0
LINE
8
Layer 1
10
352.802293
20
115.496884
11
352.155115
21
117.439780
0
LINE
8
Layer 1
10
352.155115
20
117.439780
11
351.281966
21
119.265879
0
LINE
8
Layer 1
10
351.281966
20
119.265879
11
350.190197
21
120.965168
0
LINE
8
Layer 1
10
350.190197
20
120.965168
11
348.887158
21
122.527634
0
LINE
8
Layer 1
10
348.887158
20
122.527634
11
347.380199
21
123.943265
0
LINE
8
Layer 1
10
347.380199
20
123.943265
11
345.676671
21
125.202047
0
LINE
8
Layer 1
10
345.676671
20
125.202047
11
343.783925
21
126.293968
0
LINE
8
Layer 1
10
343.783925
20
126.293968
11
341.345171
21
127.528691
0
LINE
8
Layer 1
10
341.345171
20
127.528691
11
334.978939
21
127.512463
0
LINE
8
Layer 1
10
334.978939
20
127.512463
11
326.804014
21
127.221598
0
LINE
8
Layer 1
10
326.804014
20
127.221598
11
316.089088
21
126.545499
0
LINE
8
Layer 1
10
316.089088
20
126.545499
11
297.921021
21
125.209881
0
LINE
8
Layer 1
10
297.921021
20
125.209881
11
285.955232
21
124.848240
0
LINE
8
Layer 1
10
285.955232
20
124.848240
11
265.112667
21
124.519142
0
LINE
8
Layer 1
10
265.112667
20
124.519142
11
245.247650
21
124.198378
0
LINE
8
Layer 1
10
245.247650
20
124.198378
11
235.832093
21
123.855919
0
LINE
8
Layer 1
10
235.832093
20
123.855919
11
229.300761
21
123.260430
0
LINE
8
Layer 1
10
229.300761
20
123.260430
11
225.682273
21
123.166282
0
LINE
8
Layer 1
10
225.682273
20
123.166282
11
224.877537
21
123.279133
0
LINE
8
Layer 1
10
224.877537
20
123.279133
11
224.492397
21
123.511608
0
LINE
8
Layer 1
10
224.492397
20
123.511608
11
224.309074
21
124.360535
0
LINE
8
Layer 1
10
224.309074
20
124.360535
11
224.145528
21
126.400154
0
LINE
8
Layer 1
10
224.145528
20
126.400154
11
223.888088
21
133.878695
0
LINE
8
Layer 1
10
223.888088
20
133.878695
11
223.593254
21
141.866868
0
LINE
8
Layer 1
10
223.593254
20
141.866868
11
223.176182
21
147.107870
0
LINE
8
Layer 1
10
223.176182
20
147.107870
11
221.641554
21
158.259491
0
LINE
8
Layer 1
10
221.641554
20
158.259491
11
220.730020
21
166.203038
0
LINE
8
Layer 1
10
220.730020
20
166.203038
11
220.574444
21
168.541250
0
LINE
8
Layer 1
10
220.574444
20
168.541250
11
225.910212
21
168.775848
0
LINE
8
Layer 1
10
225.910212
20
168.775848
11
243.831996
21
169.724115
0
LINE
8
Layer 1
10
243.831996
20
169.724115
11
255.058494
21
170.627932
0
LINE
8
Layer 1
10
255.058494
20
170.627932
11
258.553989
21
170.913467
0
LINE
8
Layer 1
10
258.553989
20
170.913467
11
264.609032
21
171.126275
0
LINE
8
Layer 1
10
264.609032
20
171.126275
11
289.454349
21
171.455549
0
LINE
8
Layer 1
10
289.454349
20
171.455549
11
314.187394
21
171.783060
0
LINE
8
Layer 1
10
314.187394
20
171.783060
11
320.245866
21
171.992968
0
LINE
8
Layer 1
10
320.245866
20
171.992968
11
323.673815
21
172.271172
0
LINE
8
Layer 1
10
323.673815
20
172.271172
11
329.118877
21
172.794617
0
LINE
8
Layer 1
10
329.118877
20
172.794617
11
337.184771
21
173.242723
0
LINE
8
Layer 1
10
337.184771
20
173.242723
11
365.478008
21
174.101031
0
LINE
8
Layer 1
10
365.478008
20
174.101031
11
393.876637
21
174.979801
0
LINE
8
Layer 1
10
393.876637
20
174.979801
11
400.495634
21
175.222777
0
LINE
8
Layer 1
10
400.495634
20
175.222777
11
407.987757
21
175.329757
0
LINE
8
Layer 1
10
407.987757
20
175.329757
11
418.617482
21
175.470532
0
LINE
8
Layer 1
10
418.617482
20
175.470532
11
428.151798
21
175.881811
0
LINE
8
Layer 1
10
428.151798
20
175.881811
11
436.996808
21
176.588298
0
LINE
8
Layer 1
10
436.996808
20
176.588298
11
445.558614
21
177.614700
0
LINE
8
Layer 1
10
445.558614
20
177.614700
11
456.241570
21
178.822656
0
LINE
8
Layer 1
10
456.241570
20
178.822656
11
460.269341
21
179.108192
0
LINE
8
Layer 1
10
460.269341
20
179.108192
11
462.089791
21
179.064618
0
LINE
8
Layer 1
10
462.089791
20
179.064618
11
462.443169
21
178.188022
0
LINE
8
Layer 1
10
462.443169
20
178.188022
11
462.876150
21
176.135304
0
LINE
8
Layer 1
10
462.876150
20
176.135304
11
463.824797
21
169.735051
0
LINE
8
Layer 1
10
463.824797
20
169.735051
11
464.623492
21
162.330968
0
LINE
8
Layer 1
10
464.623492
20
162.330968
11
464.959993
21
156.390165
0
LINE
8
Layer 1
10
464.959993
20
156.390165
11
465.168220
21
151.465648
0
LINE
8
Layer 1
10
465.168220
20
151.465648
11
465.666960
21
146.159603
0
LINE
8
Layer 1
10
465.666960
20
146.159603
11
466.749283
21
136.350787
0
LINE
8
Layer 1
10
466.749283
20
136.350787
11
466.767098
21
134.284500
0
LINE
8
Layer 1
10
466.767098
20
134.284500
11
466.658597
21
133.750386
0
LINE
8
Layer 1
10
466.658597
20
133.750386
11
466.476938
21
133.468767
0
LINE
8
Layer 1
10
466.476938
20
133.468767
11
465.491640
21
133.155831
0
LINE
8
Layer 1
10
465.491640
20
133.155831
11
462.900916
21
132.895679
0
LINE
8
Layer 1
10
462.900916
20
132.895679
11
449.791950
21
132.319416
0
LINE
8
Layer 1
10
449.791950
20
132.319416
11
441.230469
21
131.863010
0
LINE
8
Layer 1
10
441.230469
20
131.863010
11
434.269718
21
131.257907
0
LINE
8
Layer 1
10
434.269718
20
131.257907
11
425.128182
21
130.151948
0
LINE
8
Layer 1
10
425.128182
20
130.151948
11
421.530419
21
129.531412
0
LINE
8
Layer 1
10
421.530419
20
129.531412
11
417.543455
21
128.593375
0
LINE
8
Layer 1
10
417.543455
20
128.593375
11
411.579654
21
127.106283
0
LINE
8
Layer 1
10
411.579654
20
127.106283
11
405.694700
21
126.124282
0
LINE
8
Layer 1
10
405.694700
20
126.124282
11
398.581781
21
125.013665
0
LINE
8
Layer 1
10
398.581781
20
125.013665
11
393.118341
21
123.924579
0
LINE
8
Layer 1
10
393.118341
20
123.924579
11
389.004806
21
122.787404
0
LINE
8
Layer 1
10
389.004806
20
122.787404
11
385.941601
21
121.532523
0
LINE
8
Layer 1
10
385.941601
20
121.532523
11
382.923553
21
119.663880
0
LINE
8
Layer 1
10
382.923553
20
119.663880
11
379.935732
21
117.186563
0
LINE
8
Layer 1
10
379.935732
20
117.186563
11
377.170162
21
114.280223
0
LINE
8
Layer 1
10
377.170162
20
114.280223
11
374.818864
21
111.124514
0
LINE
8
Layer 1
10
374.818864
20
111.124514
11
373.333051
21
109.052957
0
LINE
8
Layer 1
10
373.333051
20
109.052957
11
370.845261
21
105.916982
0
LINE
8
Layer 1
10
370.845261
20
105.916982
11
362.315000
21
95.778671
0
LINE
8
Layer 1
10
362.315000
20
95.778671
11
355.605516
21
87.664777
0
LINE
8
Layer 1
10
355.605516
20
87.664777
11
352.000433
21
83.372307
0
LINE
8
Layer 1
10
352.000433
20
83.372307
11
348.513620
21
79.492322
0
LINE
8
Layer 1
10
348.513620
20
79.492322
11
344.361764
21
74.781771
0
LINE
8
Layer 1
10
344.361764
20
74.781771
11
340.555124
21
69.659032
0
LINE
8
Layer 1
10
340.555124
20
69.659032
11
336.704299
21
63.553167
0
LINE
8
Layer 1
10
336.704299
20
63.553167
11
332.419887
21
55.893238
0
LINE
8
Layer 1
10
332.419887
20
55.893238
11
330.425909
21
52.070458
0
LINE
8
Layer 1
10
330.425909
20
52.070458
11
329.224953
21
49.387835
0
LINE
8
Layer 1
10
329.224953
20
49.387835
11
328.578829
21
47.219827
0
LINE
8
Layer 1
10
328.578829
20
47.219827
11
328.249346
21
44.940892
0
LINE
8
Layer 1
10
328.249346
20
44.940892
11
328.178424
21
43.088177
0
LINE
8
Layer 1
10
328.178424
20
43.088177
11
328.326891
21
41.252714
0
LINE
8
Layer 1
10
328.326891
20
41.252714
11
328.688116
21
39.451555
0
LINE
8
Layer 1
10
328.688116
20
39.451555
11
329.255469
21
37.701755
0
LINE
8
Layer 1
10
329.255469
20
37.701755
11
330.022317
21
36.020366
0
LINE
8
Layer 1
10
330.022317
20
36.020366
11
330.982030
21
34.424442
0
LINE
8
Layer 1
10
330.982030
20
34.424442
11
332.127977
21
32.931035
0
LINE
8
Layer 1
10
332.127977
20
32.931035
11
333.453527
21
31.557200
0
LINE
8
Layer 1
10
333.453527
20
31.557200
11
334.942555
21
30.292689
0
LINE
8
Layer 1
10
334.942555
20
30.292689
11
336.455838
21
29.238451
0
LINE
8
Layer 1
10
336.455838
20
29.238451
11
338.004898
21
28.390613
0
LINE
8
Layer 1
10
338.004898
20
28.390613
11
339.601257
21
27.745301
0
LINE
8
Layer 1
10
339.601257
20
27.745301
11
341.256435
21
27.298642
0
LINE
8
Layer 1
10
341.256435
20
27.298642
11
342.981956
21
27.046762
0
LINE
8
Layer 1
10
342.981956
20
27.046762
11
344.789340
21
26.985788
0
LINE
8
Layer 1
10
344.789340
20
26.985788
11
346.690110
21
27.111844
0
LINE
8
Layer 1
10
346.690110
20
27.111844
11
348.906966
21
27.495049
0
LINE
8
Layer 1
10
348.906966
20
27.495049
11
350.960372
21
28.139988
0
LINE
8
Layer 1
10
350.960372
20
28.139988
11
352.871721
21
29.063559
0
LINE
8
Layer 1
10
352.871721
20
29.063559
11
354.662408
21
30.282657
0
LINE
8
Layer 1
10
354.662408
20
30.282657
11
356.353826
21
31.814179
0
LINE
8
Layer 1
10
356.353826
20
31.814179
11
357.967370
21
33.675020
0
LINE
8
Layer 1
10
357.967370
20
33.675020
11
359.524433
21
35.882077
0
LINE
8
Layer 1
10
359.524433
20
35.882077
11
361.046411
21
38.452246
0
LINE
8
Layer 1
10
361.046411
20
38.452246
11
365.337602
21
46.207078
0
LINE
8
Layer 1
10
365.337602
20
46.207078
11
368.158239
21
50.865886
0
LINE
8
Layer 1
10
368.158239
20
50.865886
11
370.717467
21
54.232601
0
LINE
8
Layer 1
10
370.717467
20
54.232601
11
374.224433
21
58.111153
0
LINE
8
Layer 1
10
374.224433
20
58.111153
11
378.224318
21
62.579263
0
LINE
8
Layer 1
10
378.224318
20
62.579263
11
381.525174
21
66.498097
0
LINE
8
Layer 1
10
381.525174
20
66.498097
11
387.179852
21
73.200879
0
LINE
8
Layer 1
10
387.179852
20
73.200879
11
393.092500
21
80.079918
0
LINE
8
Layer 1
10
393.092500
20
80.079918
11
399.496743
21
87.939238
0
LINE
8
Layer 1
10
399.496743
20
87.939238
11
400.863499
21
89.617982
0
LINE
8
Layer 1
10
400.863499
20
89.617982
11
401.836058
21
90.617308
0
LINE
8
Layer 1
10
401.836058
20
90.617308
11
402.697294
21
91.177889
0
LINE
8
Layer 1
10
402.697294
20
91.177889
11
403.730079
21
91.540396
0
LINE
8
Layer 1
10
403.730079
20
91.540396
11
408.529007
21
92.533643
0
LINE
8
Layer 1
10
408.529007
20
92.533643
11
415.216531
21
93.482439
0
LINE
8
Layer 1
10
415.216531
20
93.482439
11
420.004743
21
94.216835
0
LINE
8
Layer 1
10
420.004743
20
94.216835
11
421.846183
21
94.708684
0
LINE
8
Layer 1
10
421.846183
20
94.708684
11
423.806323
21
95.392026
0
LINE
8
Layer 1
10
423.806323
20
95.392026
11
426.076553
21
96.062455
0
LINE
8
Layer 1
10
426.076553
20
96.062455
11
429.209222
21
96.717049
0
LINE
8
Layer 1
10
429.209222
20
96.717049
11
437.425009
21
97.904688
0
LINE
8
Layer 1
10
437.425009
20
97.904688
11
447.179943
21
98.806840
0
LINE
8
Layer 1
10
447.179943
20
98.806840
11
457.200288
21
99.275407
0
LINE
8
Layer 1
10
457.200288
20
99.275407
11
462.277389
21
99.448471
0
LINE
8
Layer 1
10
462.277389
20
99.448471
11
466.884772
21
99.753459
0
LINE
8
Layer 1
10
466.884772
20
99.753459
11
471.083406
21
100.201645
0
LINE
8
Layer 1
10
471.083406
20
100.201645
11
474.934262
21
100.804302
0
LINE
8
Layer 1
10
474.934262
20
100.804302
11
478.498309
21
101.572704
0
LINE
8
Layer 1
10
478.498309
20
101.572704
11
481.836518
21
102.518125
0
LINE
8
Layer 1
10
481.836518
20
102.518125
11
485.009858
21
103.651839
0
LINE
8
Layer 1
10
485.009858
20
103.651839
11
488.079299
21
104.985118
0
LINE
8
Layer 1
10
488.079299
20
104.985118
11
489.570825
21
105.790373
0
LINE
8
Layer 1
10
489.570825
20
105.790373
11
491.043516
21
106.777032
0
LINE
8
Layer 1
10
491.043516
20
106.777032
11
493.831256
21
109.192437
0
LINE
8
Layer 1
10
493.831256
20
109.192437
11
496.240245
21
112.027074
0
LINE
8
Layer 1
10
496.240245
20
112.027074
11
497.239497
21
113.537775
0
LINE
8
Layer 1
10
497.239497
20
113.537775
11
498.068208
21
115.076686
0
LINE
8
Layer 1
10
498.068208
20
115.076686
11
499.335960
21
118.037541
0
LINE
8
Layer 1
10
499.335960
20
118.037541
11
499.733298
21
119.477970
0
LINE
8
Layer 1
10
499.733298
20
119.477970
11
500.004430
21
121.165811
0
LINE
8
Layer 1
10
500.004430
20
121.165811
11
500.262531
21
126.105948
0
LINE
8
Layer 1
10
500.262531
20
126.105948
11
500.299176
21
134.502407
0
LINE
8
Layer 1
10
500.299176
20
134.502407
11
500.331632
21
150.988428
0
LINE
8
Layer 1
10
500.331632
20
150.988428
11
500.141881
21
155.012611
0
LINE
8
Layer 1
10
500.141881
20
155.012611
11
499.253895
21
159.984267
0
LINE
8
Layer 1
10
499.253895
20
159.984267
11
498.145422
21
166.053151
0
LINE
8
Layer 1
10
498.145422
20
166.053151
11
497.058910
21
173.213442
0
LINE
8
Layer 1
10
497.058910
20
173.213442
11
496.052389
21
180.282155
0
LINE
8
Layer 1
10
496.052389
20
180.282155
11
495.084219
21
186.112626
0
LINE
8
Layer 1
10
495.084219
20
186.112626
11
494.094990
21
190.891097
0
LINE
8
Layer 1
10
494.094990
20
190.891097
11
493.025291
21
194.803808
0
LINE
8
Layer 1
10
493.025291
20
194.803808
11
491.815709
21
198.037004
0
LINE
8
Layer 1
10
491.815709
20
198.037004
11
490.406835
21
200.776924
0
LINE
8
Layer 1
10
490.406835
20
200.776924
11
488.739255
21
203.209812
0
LINE
8
Layer 1
10
488.739255
20
203.209812
11
486.753559
21
205.521910
0
LINE
8
Layer 1
10
486.753559
20
205.521910
11
483.918883
21
208.195553
0
LINE
8
Layer 1
10
483.918883
20
208.195553
11
480.982244
21
210.228012
0
LINE
8
Layer 1
10
480.982244
20
210.228012
11
479.440971
21
211.023693
0
LINE
8
Layer 1
10
479.440971
20
211.023693
11
477.832548
21
211.682951
0
LINE
8
Layer 1
10
477.832548
20
211.682951
11
474.358704
21
212.624036
0
LINE
8
Layer 1
10
474.358704
20
212.624036
11
472.204561
21
212.871817
0
LINE
8
Layer 1
10
472.204561
20
212.871817
11
469.219335
21
212.960906
0
LINE
8
Layer 1
10
469.219335
20
212.960906
11
461.075025
21
212.682421
0
LINE
8
Layer 1
10
461.075025
20
212.682421
11
450.564545
21
211.827408
0
LINE
8
Layer 1
10
450.564545
20
211.827408
11
438.326665
21
210.434696
0
LINE
8
Layer 1
10
438.326665
20
210.434696
11
432.205079
21
209.789752
0
LINE
8
Layer 1
10
432.205079
20
209.789752
11
424.491726
21
209.298663
0
LINE
8
Layer 1
10
424.491726
20
209.298663
11
413.641669
21
208.886287
0
LINE
8
Layer 1
10
413.641669
20
208.886287
11
398.109973
21
208.477484
0
LINE
8
Layer 1
10
398.109973
20
208.477484
11
372.533568
21
207.794505
0
LINE
8
Layer 1
10
372.533568
20
207.794505
11
348.733356
21
207.192049
0
LINE
8
Layer 1
10
348.733356
20
207.192049
11
342.078006
21
207.160497
0
LINE
8
Layer 1
10
342.078006
20
207.160497
11
339.725214
21
207.320372
0
LINE
8
Layer 1
10
339.725214
20
207.320372
11
340.456876
21
208.589226
0
LINE
8
Layer 1
10
340.456876
20
208.589226
11
342.216179
21
211.162477
0
LINE
8
Layer 1
10
342.216179
20
211.162477
11
344.345338
21
214.253970
0
LINE
8
Layer 1
10
344.345338
20
214.253970
11
345.873164
21
216.740691
0
LINE
8
Layer 1
10
345.873164
20
216.740691
11
346.980964
21
218.945498
0
LINE
8
Layer 1
10
346.980964
20
218.945498
11
347.850044
21
221.191250
0
LINE
8
Layer 1
10
347.850044
20
221.191250
11
348.753156
21
223.837085
0
LINE
8
Layer 1
10
348.753156
20
223.837085
11
375.900834
21
224.055807
0
LINE
8
Layer 1
10
375.900834
20
224.055807
11
396.577461
21
224.317392
0
LINE
8
Layer 1
10
396.577461
20
224.317392
11
402.218376
21
224.480662
0
LINE
8
Layer 1
10
402.218376
20
224.480662
11
404.636366
21
224.663644
0
LINE
8
Layer 1
10
404.636366
20
224.663644
11
409.436352
21
225.045129
0
LINE
8
Layer 1
10
409.436352
20
225.045129
11
418.747486
21
225.415767
0
LINE
8
Layer 1
10
418.747486
20
225.415767
11
436.209997
21
226.122381
0
LINE
8
Layer 1
10
436.209997
20
226.122381
11
448.380838
21
226.840990
0
LINE
8
Layer 1
10
448.380838
20
226.840990
11
456.382212
21
227.369049
0
LINE
8
Layer 1
10
456.382212
20
227.369049
11
462.641668
21
228.072229
0
LINE
8
Layer 1
10
462.641668
20
228.072229
11
467.765465
21
229.039530
0
LINE
8
Layer 1
10
467.765465
20
229.039530
11
472.359864
21
230.359950
0
LINE
8
Layer 1
10
472.359864
20
230.359950
11
474.821425
21
231.301006
0
LINE
8
Layer 1
10
474.821425
20
231.301006
11
477.115223
21
232.404040
0
LINE
8
Layer 1
10
477.115223
20
232.404040
11
479.225335
21
233.656241
0
LINE
8
Layer 1
10
479.225335
20
233.656241
11
481.135834
21
235.044798
0
LINE
8
Layer 1
10
481.135834
20
235.044798
11
482.830798
21
236.556899
0
LINE
8
Layer 1
10
482.830798
20
236.556899
11
484.294300
21
238.179732
0
LINE
8
Layer 1
10
484.294300
20
238.179732
11
485.510417
21
239.900486
0
LINE
8
Layer 1
10
485.510417
20
239.900486
11
486.463223
21
241.706349
0
LINE
8
Layer 1
10
486.463223
20
241.706349
11
487.047064
21
243.287738
0
LINE
8
Layer 1
10
487.047064
20
243.287738
11
487.560688
21
245.227151
0
LINE
8
Layer 1
10
487.560688
20
245.227151
11
488.371443
21
250.131393
0
LINE
8
Layer 1
10
488.371443
20
250.131393
11
488.883815
21
256.321776
0
LINE
8
Layer 1
10
488.883815
20
256.321776
11
489.086128
21
263.700999
0
LINE
8
Layer 1
10
489.086128
20
263.700999
11
489.047168
21
268.627031
0
LINE
8
Layer 1
10
489.047168
20
268.627031
11
488.759896
21
271.852684
0
LINE
8
Layer 1
10
488.759896
20
271.852684
11
488.068738
21
274.276187
0
LINE
8
Layer 1
10
488.068738
20
274.276187
11
486.818118
21
276.795766
0
LINE
8
Layer 1
10
486.818118
20
276.795766
11
485.821167
21
278.601989
0
LINE
8
Layer 1
10
485.821167
20
278.601989
11
486.140784
21
284.909660
0
LINE
8
Layer 1
10
486.140784
20
284.909660
11
486.477483
21
296.746227
0
LINE
8
Layer 1
10
486.477483
20
296.746227
11
486.416271
21
302.049480
0
LINE
8
Layer 1
10
486.416271
20
302.049480
11
486.201241
21
306.955242
0
LINE
8
Layer 1
10
486.201241
20
306.955242
11
485.831810
21
311.472909
0
LINE
8
Layer 1
10
485.831810
20
311.472909
11
485.307396
21
315.611879
0
LINE
8
Layer 1
10
485.307396
20
315.611879
11
484.627414
21
319.381549
0
LINE
8
Layer 1
10
484.627414
20
319.381549
11
483.791283
21
322.791314
0
LINE
8
Layer 1
10
483.791283
20
322.791314
11
483.077829
21
325.001945
0
LINE
8
Layer 1
10
483.077829
20
325.001945
11
482.196406
21
327.209153
0
LINE
8
Layer 1
10
482.196406
20
327.209153
11
480.017263
21
331.465331
0
LINE
8
Layer 1
10
480.017263
20
331.465331
11
478.763349
21
333.440318
0
LINE
8
Layer 1
10
478.763349
20
333.440318
11
477.429075
21
335.263912
0
LINE
8
Layer 1
10
477.429075
20
335.263912
11
476.036344
21
336.899124
0
LINE
8
Layer 1
10
476.036344
20
336.899124
11
474.607060
21
338.308960
0
LINE
8
Layer 1
10
474.607060
20
338.308960
11
472.907248
21
339.701034
0
LINE
8
Layer 1
10
472.907248
20
339.701034
11
470.861919
21
341.173550
0
LINE
8
Layer 1
10
470.861919
20
341.173550
11
466.128526
21
344.133325
0
LINE
8
Layer 1
10
466.128526
20
344.133325
11
461.194512
21
346.735118
0
LINE
8
Layer 1
10
461.194512
20
346.735118
11
458.898408
21
347.760157
0
LINE
8
Layer 1
10
458.898408
20
347.760157
11
456.847510
21
348.525764
0
LINE
8
Layer 1
10
456.847510
20
348.525764
11
454.755677
21
349.109736
0
LINE
8
Layer 1
10
454.755677
20
349.109736
11
452.422263
21
349.574468
0
LINE
8
Layer 1
10
452.422263
20
349.574468
11
446.945296
21
350.151056
0
LINE
8
Layer 1
10
446.945296
20
350.151056
11
440.245821
21
350.265218
0
LINE
8
Layer 1
10
440.245821
20
350.265218
11
432.153050
21
349.926645
0
LINE
8
Layer 1
10
451.288434
20
272.703188
11
452.129611
21
272.406562
0
LINE
8
Layer 1
10
452.129611
20
272.406562
11
452.604737
21
271.829842
0
LINE
8
Layer 1
10
452.604737
20
271.829842
11
452.917806
21
270.472799
0
LINE
8
Layer 1
10
452.917806
20
270.472799
11
453.272811
21
267.835204
0
LINE
8
Layer 1
10
453.272811
20
267.835204
11
453.749370
21
265.295688
0
LINE
8
Layer 1
10
453.749370
20
265.295688
11
454.366422
21
263.292482
0
LINE
8
Layer 1
10
454.366422
20
263.292482
11
455.083620
21
261.228025
0
LINE
8
Layer 1
10
455.083620
20
261.228025
11
454.855676
21
260.832478
0
LINE
8
Layer 1
10
454.855676
20
260.832478
11
454.137690
21
260.562377
0
LINE
8
Layer 1
10
454.137690
20
260.562377
11
451.026673
21
260.354194
0
LINE
8
Layer 1
10
451.026673
20
260.354194
11
439.737777
21
259.833494
0
LINE
8
Layer 1
10
439.737777
20
259.833494
11
418.571097
21
258.933204
0
LINE
8
Layer 1
10
418.571097
20
258.933204
11
409.021838
21
258.550661
0
LINE
8
Layer 1
10
409.021838
20
258.550661
11
403.401643
21
258.170498
0
LINE
8
Layer 1
10
403.401643
20
258.170498
11
393.158910
21
257.821557
0
LINE
8
Layer 1
10
393.158910
20
257.821557
11
371.298845
21
257.517859
0
LINE
8
Layer 1
10
371.298845
20
257.517859
11
347.200227
21
257.187041
0
LINE
8
Layer 1
10
347.200227
20
257.187041
11
340.952077
21
256.975727
0
LINE
8
Layer 1
10
340.952077
20
256.975727
11
337.255768
21
256.702236
0
LINE
8
Layer 1
10
337.255768
20
256.702236
11
331.523996
21
256.219184
0
LINE
8
Layer 1
10
331.523996
20
256.219184
11
323.195536
21
255.792686
0
LINE
8
Layer 1
10
323.195536
20
255.792686
11
297.568243
21
255.060407
0
LINE
8
Layer 1
10
297.568243
20
255.060407
11
282.317165
21
254.871274
0
LINE
8
Layer 1
10
282.317165
20
254.871274
11
277.293722
21
254.975823
0
LINE
8
Layer 1
10
277.293722
20
254.975823
11
272.521005
21
255.222685
0
LINE
8
Layer 1
10
272.521005
20
255.222685
11
263.315583
21
255.644861
0
LINE
8
Layer 1
10
263.315583
20
255.644861
11
250.424843
21
256.046598
0
LINE
8
Layer 1
10
250.424843
20
256.046598
11
236.874365
21
256.347529
0
LINE
8
Layer 1
10
236.874365
20
256.347529
11
225.689725
21
256.467286
0
LINE
8
Layer 1
10
225.689725
20
256.467286
11
220.769090
21
256.523554
0
LINE
8
Layer 1
10
220.769090
20
256.523554
11
218.722360
21
256.656022
0
LINE
8
Layer 1
10
218.722360
20
256.656022
11
219.634644
21
259.010815
0
LINE
8
Layer 1
10
219.634644
20
259.010815
11
220.396865
21
261.404547
0
LINE
8
Layer 1
10
220.396865
20
261.404547
11
220.947684
21
264.115513
0
LINE
8
Layer 1
10
220.947684
20
264.115513
11
221.348087
21
267.052390
0
LINE
8
Layer 1
10
221.348087
20
267.052390
11
245.523610
21
267.057329
0
LINE
8
Layer 1
10
245.523610
20
267.057329
11
274.692315
21
267.212215
0
LINE
8
Layer 1
10
274.692315
20
267.212215
11
301.727981
21
267.610617
0
LINE
8
Layer 1
10
301.727981
20
267.610617
11
322.580264
21
268.171407
0
LINE
8
Layer 1
10
322.580264
20
268.171407
11
329.421905
21
268.487346
0
LINE
8
Layer 1
10
329.421905
20
268.487346
11
333.198821
21
268.813458
0
LINE
8
Layer 1
10
333.198821
20
268.813458
11
339.710618
21
269.635871
0
LINE
8
Layer 1
10
339.710618
20
269.635871
11
350.132165
21
270.573114
0
LINE
8
Layer 1
10
350.132165
20
270.573114
11
366.309638
21
271.810616
0
LINE
8
Layer 1
10
366.309638
20
271.810616
11
381.176629
21
272.544085
0
LINE
8
Layer 1
10
381.176629
20
272.544085
11
394.721893
21
273.252816
0
LINE
8
Layer 1
10
394.721893
20
273.252816
11
403.539530
21
273.366168
0
LINE
8
Layer 1
10
403.539530
20
273.366168
11
422.677742
21
273.246554
0
LINE
8
Layer 1
10
422.677742
20
273.246554
11
441.979665
21
272.992664
0
LINE
8
Layer 1
10
441.979665
20
272.992664
11
451.288434
21
272.703188
0
LINE
8
Layer 1
10
448.271830
20
315.853229
11
449.990707
21
314.858979
0
LINE
8
Layer 1
10
449.990707
20
314.858979
11
451.123599
21
313.813731
0
LINE
8
Layer 1
10
451.123599
20
313.813731
11
451.822176
21
312.524140
0
LINE
8
Layer 1
10
451.822176
20
312.524140
11
452.238113
21
310.796862
0
LINE
8
Layer 1
10
452.238113
20
310.796862
11
452.611352
21
307.751682
0
LINE
8
Layer 1
10
452.611352
20
307.751682
11
452.614174
21
306.999560
0
LINE
8
Layer 1
10
452.614174
20
306.999560
11
436.650969
21
306.746618
0
LINE
8
Layer 1
10
436.650969
20
306.746618
11
422.807035
21
306.660584
0
LINE
8
Layer 1
10
422.807035
20
306.660584
11
412.605621
21
306.861623
0
LINE
8
Layer 1
10
412.605621
20
306.861623
11
404.362787
21
307.051197
0
LINE
8
Layer 1
10
404.362787
20
307.051197
11
395.672277
21
306.742032
0
LINE
8
Layer 1
10
395.672277
20
306.742032
11
377.119682
21
305.868906
0
LINE
8
Layer 1
10
377.119682
20
305.868906
11
362.982501
21
305.178343
0
LINE
8
Layer 1
10
362.982501
20
305.178343
11
351.543277
21
304.282463
0
LINE
8
Layer 1
10
351.543277
20
304.282463
11
341.489104
21
303.394168
0
LINE
8
Layer 1
10
341.489104
20
303.394168
11
334.257155
21
302.667446
0
LINE
8
Layer 1
10
334.257155
20
302.667446
11
329.464252
21
302.111330
0
LINE
8
Layer 1
10
329.464252
20
302.111330
11
323.472687
21
301.724250
0
LINE
8
Layer 1
10
323.472687
20
301.724250
11
300.037689
21
301.096173
0
LINE
8
Layer 1
10
300.037689
20
301.096173
11
277.266514
21
300.777327
0
LINE
8
Layer 1
10
277.266514
20
300.777327
11
252.183309
21
300.623185
0
LINE
8
Layer 1
10
252.183309
20
300.623185
11
231.292099
21
300.651474
0
LINE
8
Layer 1
10
231.292099
20
300.651474
11
221.096909
21
300.879920
0
LINE
8
Layer 1
10
221.096909
20
300.879920
11
219.510598
21
301.209194
0
LINE
8
Layer 1
10
219.510598
20
301.209194
11
218.554790
21
301.644037
0
LINE
8
Layer 1
10
218.554790
20
301.644037
11
218.151273
21
302.525436
0
LINE
8
Layer 1
10
218.151273
20
302.525436
11
217.771403
21
304.282508
0
LINE
8
Layer 1
10
217.771403
20
304.282508
11
217.145442
21
310.047562
0
LINE
8
Layer 1
10
217.145442
20
310.047562
11
216.934481
21
313.002783
0
LINE
8
Layer 1
10
216.934481
20
313.002783
11
226.206898
21
312.809108
0
LINE
8
Layer 1
10
226.206898
20
312.809108
11
250.648769
21
312.254541
0
LINE
8
Layer 1
10
250.648769
20
312.254541
11
287.923948
21
311.491140
0
LINE
8
Layer 1
10
287.923948
20
311.491140
11
313.923604
21
311.317033
0
LINE
8
Layer 1
10
313.923604
20
311.317033
11
323.865263
21
311.457889
0
LINE
8
Layer 1
10
323.865263
20
311.457889
11
332.392222
21
311.754379
0
LINE
8
Layer 1
10
332.392222
20
311.754379
11
339.972542
21
312.209271
0
LINE
8
Layer 1
10
339.972542
20
312.209271
11
347.074285
21
312.825335
0
LINE
8
Layer 1
10
347.074285
20
312.825335
11
352.933961
21
313.370174
0
LINE
8
Layer 1
10
352.933961
20
313.370174
11
357.895045
21
313.647088
0
LINE
8
Layer 1
10
357.895045
20
313.647088
11
364.251542
21
313.728673
0
LINE
8
Layer 1
10
364.251542
20
313.728673
11
374.297458
21
313.687525
0
LINE
8
Layer 1
10
374.297458
20
313.687525
11
386.029559
21
313.681153
0
LINE
8
Layer 1
10
386.029559
20
313.681153
11
395.253309
21
313.864619
0
LINE
8
Layer 1
10
395.253309
20
313.864619
11
403.488774
21
314.290974
0
LINE
8
Layer 1
10
403.488774
20
314.290974
11
412.256018
21
315.013265
0
LINE
8
Layer 1
10
412.256018
20
315.013265
11
429.859993
21
316.257865
0
LINE
8
Layer 1
10
429.859993
20
316.257865
11
440.972500
21
316.948252
0
LINE
8
Layer 1
10
440.972500
20
316.948252
11
442.745739
21
317.035471
0
LINE
8
Layer 1
10
442.745739
20
317.035471
11
444.737523
21
316.854369
0
LINE
8
Layer 1
10
444.737523
20
316.854369
11
446.671629
21
316.446453
0
LINE
8
Layer 1
10
446.671629
20
316.446453
11
448.271830
21
315.853229
0
LINE
8
Layer 1
10
388.232189
20
496.115732
11
385.658146
21
495.585417
0
LINE
8
Layer 1
10
385.658146
20
495.585417
11
383.255897
21
494.729132
0
LINE
8
Layer 1
10
383.255897
20
494.729132
11
381.048704
21
493.566583
0
LINE
8
Layer 1
10
381.048704
20
493.566583
11
379.059829
21
492.117478
0
LINE
8
Layer 1
10
379.059829
20
492.117478
11
377.312535
21
490.401524
0
LINE
8
Layer 1
10
377.312535
20
490.401524
11
375.830085
21
488.438428
0
LINE
8
Layer 1
10
375.830085
20
488.438428
11
374.635742
21
486.247898
0
LINE
8
Layer 1
10
374.635742
20
486.247898
11
373.752769
21
483.849640
0
LINE
8
Layer 1
10
373.752769
20
483.849640
11
373.441536
21
482.445496
0
LINE
8
Layer 1
10
373.441536
20
482.445496
11
373.285911
21
480.555047
0
LINE
8
Layer 1
10
373.285911
20
480.555047
11
373.347427
21
472.737133
0
LINE
8
Layer 1
10
373.347427
20
472.737133
11
373.541956
21
466.794125
0
LINE
8
Layer 1
10
373.541956
20
466.794125
11
373.952750
21
459.815140
0
LINE
8
Layer 1
10
373.952750
20
459.815140
11
376.034184
21
433.916384
0
LINE
8
Layer 1
10
376.034184
20
433.916384
11
377.621685
21
413.278871
0
LINE
8
Layer 1
10
377.621685
20
413.278871
11
378.699422
21
398.550389
0
LINE
8
Layer 1
10
378.699422
20
398.550389
11
378.888511
21
396.169138
0
LINE
8
Layer 1
10
378.888511
20
396.169138
11
377.563124
21
396.169844
0
LINE
8
Layer 1
10
377.563124
20
396.169844
11
372.084614
21
396.596220
0
LINE
8
Layer 1
10
372.084614
20
396.596220
11
363.989638
21
397.437728
0
LINE
8
Layer 1
10
363.989638
20
397.437728
11
362.404518
21
397.769604
0
LINE
8
Layer 1
10
362.404518
20
397.769604
11
361.467628
21
398.244884
0
LINE
8
Layer 1
10
361.467628
20
398.244884
11
360.820677
21
399.528378
0
LINE
8
Layer 1
10
360.820677
20
399.528378
11
359.976082
21
401.813586
0
LINE
8
Layer 1
10
359.976082
20
401.813586
11
358.990773
21
404.812199
0
LINE
8
Layer 1
10
358.990773
20
404.812199
11
358.794982
21
423.685822
0
LINE
8
Layer 1
10
358.794982
20
423.685822
11
358.598837
21
442.559445
0
LINE
8
Layer 1
10
358.598837
20
442.559445
11
357.419853
21
444.970683
0
LINE
8
Layer 1
10
357.419853
20
444.970683
11
355.747528
21
447.726106
0
LINE
8
Layer 1
10
355.747528
20
447.726106
11
353.667794
21
450.061876
0
LINE
8
Layer 1
10
353.667794
20
450.061876
11
351.251841
21
451.948432
0
LINE
8
Layer 1
10
351.251841
20
451.948432
11
348.570858
21
453.356216
0
LINE
8
Layer 1
10
348.570858
20
453.356216
11
345.696034
21
454.255669
0
LINE
8
Layer 1
10
345.696034
20
454.255669
11
342.698559
21
454.617232
0
LINE
8
Layer 1
10
342.698559
20
454.617232
11
339.649623
21
454.411346
0
LINE
8
Layer 1
10
339.649623
20
454.411346
11
338.128104
21
454.086372
0
LINE
8
Layer 1
10
338.128104
20
454.086372
11
336.620415
21
453.608452
0
LINE
8
Layer 1
10
336.620415
20
453.608452
11
334.592641
21
452.688171
0
LINE
8
Layer 1
10
334.592641
20
452.688171
11
332.711739
21
451.500962
0
LINE
8
Layer 1
10
332.711739
20
451.500962
11
331.003173
21
450.078017
0
LINE
8
Layer 1
10
331.003173
20
450.078017
11
329.492403
21
448.450529
0
LINE
8
Layer 1
10
329.492403
20
448.450529
11
328.204892
21
446.649689
0
LINE
8
Layer 1
10
328.204892
20
446.649689
11
327.166102
21
444.706689
0
LINE
8
Layer 1
10
327.166102
20
444.706689
11
326.401495
21
442.652721
0
LINE
8
Layer 1
10
326.401495
20
442.652721
11
325.936533
21
440.518977
0
LINE
8
Layer 1
10
325.936533
20
440.518977
11
325.580938
21
433.739477
0
LINE
8
Layer 1
10
325.580938
20
433.739477
11
325.367987
21
422.275592
0
LINE
8
Layer 1
10
325.367987
20
422.275592
11
325.344941
21
410.742122
0
LINE
8
Layer 1
10
325.344941
20
410.742122
11
325.559061
21
403.753865
0
LINE
8
Layer 1
10
325.559061
20
403.753865
11
326.352458
21
399.215861
0
LINE
8
Layer 1
10
326.352458
20
399.215861
11
327.716298
21
393.259425
0
LINE
8
Layer 1
10
327.716298
20
393.259425
11
329.075756
21
388.361703
0
LINE
8
Layer 1
10
329.075756
20
388.361703
11
330.440406
21
384.533858
0
LINE
8
Layer 1
10
330.440406
20
384.533858
11
331.990198
21
381.342402
0
LINE
8
Layer 1
10
331.990198
20
381.342402
11
333.905083
21
378.353849
0
LINE
8
Layer 1
10
333.905083
20
378.353849
11
336.374826
21
375.415782
0
LINE
8
Layer 1
10
336.374826
20
375.415782
11
339.537977
21
372.406541
0
LINE
8
Layer 1
10
339.537977
20
372.406541
11
342.944412
21
369.716653
0
LINE
8
Layer 1
10
342.944412
20
369.716653
11
346.144010
21
367.736642
0
LINE
8
Layer 1
10
346.144010
20
367.736642
11
349.282681
21
366.538272
0
LINE
8
Layer 1
10
349.282681
20
366.538272
11
353.776053
21
365.409057
0
LINE
8
Layer 1
10
353.776053
20
365.409057
11
359.463292
21
364.383096
0
LINE
8
Layer 1
10
359.463292
20
364.383096
11
366.183564
21
363.494487
0
LINE
8
Layer 1
10
366.183564
20
363.494487
11
371.576919
21
363.122785
0
LINE
8
Layer 1
10
371.576919
20
363.122785
11
378.956944
21
362.954180
0
LINE
8
Layer 1
10
378.956944
20
362.954180
11
387.851371
21
362.975703
0
LINE
8
Layer 1
10
387.851371
20
362.975703
11
397.787931
21
363.174385
0
LINE
8
Layer 1
10
397.787931
20
363.174385
11
418.898370
21
364.051352
0
LINE
8
Layer 1
10
418.898370
20
364.051352
11
429.127712
21
364.703700
0
LINE
8
Layer 1
10
429.127712
20
364.703700
11
438.510110
21
365.481333
0
LINE
8
Layer 1
10
438.510110
20
365.481333
11
440.931805
21
365.789104
0
LINE
8
Layer 1
10
440.931805
20
365.789104
11
443.259597
21
366.241987
0
LINE
8
Layer 1
10
443.259597
20
366.241987
11
445.490062
21
366.837196
0
LINE
8
Layer 1
10
445.490062
20
366.837196
11
447.619775
21
367.571950
0
LINE
8
Layer 1
10
447.619775
20
367.571950
11
449.645312
21
368.443465
0
LINE
8
Layer 1
10
449.645312
20
368.443465
11
451.563250
21
369.448956
0
LINE
8
Layer 1
10
451.563250
20
369.448956
11
453.370164
21
370.585642
0
LINE
8
Layer 1
10
453.370164
20
370.585642
11
455.062630
21
371.850739
0
LINE
8
Layer 1
10
455.062630
20
371.850739
11
456.637224
21
373.241464
0
LINE
8
Layer 1
10
456.637224
20
373.241464
11
458.090522
21
374.755032
0
LINE
8
Layer 1
10
458.090522
20
374.755032
11
459.419100
21
376.388662
0
LINE
8
Layer 1
10
459.419100
20
376.388662
11
460.619534
21
378.139569
0
LINE
8
Layer 1
10
460.619534
20
378.139569
11
461.688399
21
380.004971
0
LINE
8
Layer 1
10
461.688399
20
380.004971
11
462.622272
21
381.982084
0
LINE
8
Layer 1
10
462.622272
20
381.982084
11
463.417729
21
384.068124
0
LINE
8
Layer 1
10
463.417729
20
384.068124
11
464.071345
21
386.260310
0
LINE
8
Layer 1
10
464.071345
20
386.260310
11
464.542447
21
389.374535
0
LINE
8
Layer 1
10
464.542447
20
389.374535
11
464.818088
21
393.793619
0
LINE
8
Layer 1
10
464.818088
20
393.793619
11
464.865790
21
398.593307
0
LINE
8
Layer 1
10
464.865790
20
398.593307
11
464.653076
21
402.849342
0
LINE
8
Layer 1
10
464.653076
20
402.849342
11
463.867136
21
408.861148
0
LINE
8
Layer 1
10
463.867136
20
408.861148
11
462.608948
21
416.730760
0
LINE
8
Layer 1
10
462.608948
20
416.730760
11
461.298438
21
423.985678
0
LINE
8
Layer 1
10
461.298438
20
423.985678
11
460.355534
21
428.153403
0
LINE
8
Layer 1
10
460.355534
20
428.153403
11
459.660011
21
429.864978
0
LINE
8
Layer 1
10
459.660011
20
429.864978
11
458.802315
21
431.450208
0
LINE
8
Layer 1
10
458.802315
20
431.450208
11
457.795768
21
432.903768
0
LINE
8
Layer 1
10
457.795768
20
432.903768
11
456.653692
21
434.220335
0
LINE
8
Layer 1
10
456.653692
20
434.220335
11
455.389406
21
435.394585
0
LINE
8
Layer 1
10
455.389406
20
435.394585
11
454.016234
21
436.421195
0
LINE
8
Layer 1
10
454.016234
20
436.421195
11
452.547495
21
437.294840
0
LINE
8
Layer 1
10
452.547495
20
437.294840
11
450.996510
21
438.010196
0
LINE
8
Layer 1
10
450.996510
20
438.010196
11
449.376602
21
438.561941
0
LINE
8
Layer 1
10
449.376602
20
438.561941
11
447.701091
21
438.944751
0
LINE
8
Layer 1
10
447.701091
20
438.944751
11
445.983299
21
439.153301
0
LINE
8
Layer 1
10
445.983299
20
439.153301
11
444.236545
21
439.182268
0
LINE
8
Layer 1
10
444.236545
20
439.182268
11
442.474153
21
439.026329
0
LINE
8
Layer 1
10
442.474153
20
439.026329
11
440.709442
21
438.680159
0
LINE
8
Layer 1
10
440.709442
20
438.680159
11
438.955734
21
438.138435
0
LINE
8
Layer 1
10
438.955734
20
438.138435
11
437.226350
21
437.395833
0
LINE
8
Layer 1
10
437.226350
20
437.395833
11
435.352140
21
436.198538
0
LINE
8
Layer 1
10
435.352140
20
436.198538
11
433.348085
21
434.494234
0
LINE
8
Layer 1
10
433.348085
20
434.494234
11
431.554904
21
432.605251
0
LINE
8
Layer 1
10
431.554904
20
432.605251
11
430.313313
21
430.853918
0
LINE
8
Layer 1
10
430.313313
20
430.853918
11
429.490100
21
429.149790
0
LINE
8
Layer 1
10
429.490100
20
429.149790
11
428.890625
21
427.416951
0
LINE
8
Layer 1
10
428.890625
20
427.416951
11
428.512243
21
425.536367
0
LINE
8
Layer 1
10
428.512243
20
425.536367
11
428.352308
21
423.389003
0
LINE
8
Layer 1
10
428.352308
20
423.389003
11
428.408174
21
420.855828
0
LINE
8
Layer 1
10
428.408174
20
420.855828
11
428.677195
21
417.817806
0
LINE
8
Layer 1
10
428.677195
20
417.817806
11
429.844118
21
409.751091
0
LINE
8
Layer 1
10
429.844118
20
409.751091
11
431.237150
21
400.932479
0
LINE
8
Layer 1
10
431.237150
20
400.932479
11
431.449379
21
399.143360
0
LINE
8
Layer 1
10
431.449379
20
399.143360
11
431.408336
21
398.605423
0
LINE
8
Layer 1
10
431.408336
20
398.605423
11
427.984967
21
398.282515
0
LINE
8
Layer 1
10
427.984967
20
398.282515
11
421.747687
21
397.906790
0
LINE
8
Layer 1
10
421.747687
20
397.906790
11
415.708050
21
397.636700
0
LINE
8
Layer 1
10
415.708050
20
397.636700
11
412.877613
21
397.630697
0
LINE
8
Layer 1
10
412.877613
20
397.630697
11
412.690224
21
397.860731
0
LINE
8
Layer 1
10
412.690224
20
397.860731
11
412.523021
21
398.356340
0
LINE
8
Layer 1
10
412.523021
20
398.356340
11
412.167868
21
400.952190
0
LINE
8
Layer 1
10
412.167868
20
400.952190
11
410.805395
21
418.217763
0
LINE
8
Layer 1
10
410.805395
20
418.217763
11
409.045738
21
440.619166
0
LINE
8
Layer 1
10
409.045738
20
440.619166
11
407.518827
21
459.789563
0
LINE
8
Layer 1
10
407.518827
20
459.789563
11
406.440120
21
476.602522
0
LINE
8
Layer 1
10
406.440120
20
476.602522
11
406.151829
21
481.230815
0
LINE
8
Layer 1
10
406.151829
20
481.230815
11
405.691922
21
484.331271
0
LINE
8
Layer 1
10
405.691922
20
484.331271
11
404.882037
21
486.667477
0
LINE
8
Layer 1
10
404.882037
20
486.667477
11
403.543813
21
489.003021
0
LINE
8
Layer 1
10
403.543813
20
489.003021
11
402.419278
21
490.448425
0
LINE
8
Layer 1
10
402.419278
20
490.448425
11
400.945426
21
491.896639
0
LINE
8
Layer 1
10
400.945426
20
491.896639
11
399.283456
21
493.205881
0
LINE
8
Layer 1
10
399.283456
20
493.205881
11
397.594564
21
494.234366
0
LINE
8
Layer 1
10
397.594564
20
494.234366
11
395.386510
21
495.120666
0
LINE
8
Layer 1
10
395.386510
20
495.120666
11
392.834928
21
495.780945
0
LINE
8
Layer 1
10
392.834928
20
495.780945
11
390.322570
21
496.138276
0
LINE
8
Layer 1
10
390.322570
20
496.138276
11
388.232189
21
496.115732
0
LINE
8
Layer 1
10
241.785222
20
487.365426
11
239.901443
21
486.848318
0
LINE
8
Layer 1
10
239.901443
20
486.848318
11
238.110670
21
486.142223
0
LINE
8
Layer 1
10
238.110670
20
486.142223
11
236.428417
21
485.258874
0
LINE
8
Layer 1
10
236.428417
20
485.258874
11
234.870200
21
484.210003
0
LINE
8
Layer 1
10
234.870200
20
484.210003
11
233.451534
21
483.007343
0
LINE
8
Layer 1
10
233.451534
20
483.007343
11
232.187935
21
481.662626
0
LINE
8
Layer 1
10
232.187935
20
481.662626
11
231.094918
21
480.187586
0
LINE
8
Layer 1
10
231.094918
20
480.187586
11
230.187998
21
478.593954
0
LINE
8
Layer 1
10
230.187998
20
478.593954
11
229.252805
21
476.442951
0
LINE
8
Layer 1
10
229.252805
20
476.442951
11
228.649004
21
474.175630
0
LINE
8
Layer 1
10
228.649004
20
474.175630
11
228.236761
21
471.049802
0
LINE
8
Layer 1
10
228.236761
20
471.049802
11
227.876244
21
466.323277
0
LINE
8
Layer 1
10
227.876244
20
466.323277
11
227.693660
21
462.193360
0
LINE
8
Layer 1
10
227.693660
20
462.193360
11
227.690070
21
457.825251
0
LINE
8
Layer 1
10
227.690070
20
457.825251
11
227.878048
21
453.078458
0
LINE
8
Layer 1
10
227.878048
20
453.078458
11
228.270164
21
447.812486
0
LINE
8
Layer 1
10
228.270164
20
447.812486
11
229.717100
21
435.161029
0
LINE
8
Layer 1
10
229.717100
20
435.161029
11
232.131452
21
418.746930
0
LINE
8
Layer 1
10
232.131452
20
418.746930
11
234.305887
21
403.026437
0
LINE
8
Layer 1
10
234.305887
20
403.026437
11
235.028145
21
396.517947
0
LINE
8
Layer 1
10
235.028145
20
396.517947
11
235.302926
21
392.594439
0
LINE
8
Layer 1
10
235.302926
20
392.594439
11
235.302926
21
391.472957
0
LINE
8
Layer 1
10
235.302926
20
391.472957
11
227.277226
21
391.716021
0
LINE
8
Layer 1
10
227.277226
20
391.716021
11
216.833631
21
392.260314
0
LINE
8
Layer 1
10
216.833631
20
392.260314
11
213.595597
21
392.626304
0
LINE
8
Layer 1
10
213.595597
20
392.626304
11
211.948670
21
393.031883
0
LINE
8
Layer 1
10
211.948670
20
393.031883
11
211.427484
21
393.550731
0
LINE
8
Layer 1
10
211.427484
20
393.550731
11
211.053672
21
394.327284
0
LINE
8
Layer 1
10
211.053672
20
394.327284
11
210.881631
21
395.793952
0
LINE
8
Layer 1
10
210.881631
20
395.793952
11
210.782248
21
398.475215
0
LINE
8
Layer 1
10
210.782248
20
398.475215
11
210.782518
21
406.165455
0
LINE
8
Layer 1
10
210.782518
20
406.165455
11
211.016614
21
414.765863
0
LINE
8
Layer 1
10
211.016614
20
414.765863
11
211.446667
21
421.644296
0
LINE
8
Layer 1
10
211.446667
20
421.644296
11
211.839782
21
426.627153
0
LINE
8
Layer 1
10
211.839782
20
426.627153
11
211.795211
21
430.210892
0
LINE
8
Layer 1
10
211.795211
20
430.210892
11
211.589962
21
431.684509
0
LINE
8
Layer 1
10
211.589962
20
431.684509
11
211.252694
21
433.056047
0
LINE
8
Layer 1
10
211.252694
20
433.056047
11
210.151971
21
435.823149
0
LINE
8
Layer 1
10
210.151971
20
435.823149
11
208.916523
21
437.996830
0
LINE
8
Layer 1
10
208.916523
20
437.996830
11
207.434642
21
439.882781
0
LINE
8
Layer 1
10
207.434642
20
439.882781
11
205.741225
21
441.480825
0
LINE
8
Layer 1
10
205.741225
20
441.480825
11
203.871167
21
442.790785
0
LINE
8
Layer 1
10
203.871167
20
442.790785
11
201.859362
21
443.812483
0
LINE
8
Layer 1
10
201.859362
20
443.812483
11
199.740706
21
444.545742
0
LINE
8
Layer 1
10
199.740706
20
444.545742
11
197.550093
21
444.990384
0
LINE
8
Layer 1
10
197.550093
20
444.990384
11
195.322419
21
445.146234
0
LINE
8
Layer 1
10
195.322419
20
445.146234
11
193.092579
21
445.013113
0
LINE
8
Layer 1
10
193.092579
20
445.013113
11
190.895467
21
444.590843
0
LINE
8
Layer 1
10
190.895467
20
444.590843
11
188.765979
21
443.879249
0
LINE
8
Layer 1
10
188.765979
20
443.879249
11
186.739010
21
442.878152
0
LINE
8
Layer 1
10
186.739010
20
442.878152
11
184.849455
21
441.587376
0
LINE
8
Layer 1
10
184.849455
20
441.587376
11
183.132210
21
440.006743
0
LINE
8
Layer 1
10
183.132210
20
440.006743
11
181.622168
21
438.136075
0
LINE
8
Layer 1
10
181.622168
20
438.136075
11
180.354225
21
435.975196
0
LINE
8
Layer 1
10
180.354225
20
435.975196
11
179.636036
21
434.171635
0
LINE
8
Layer 1
10
179.636036
20
434.171635
11
179.028187
21
431.877437
0
LINE
8
Layer 1
10
179.028187
20
431.877437
11
178.526255
21
429.045705
0
LINE
8
Layer 1
10
178.526255
20
429.045705
11
178.125814
21
425.629541
0
LINE
8
Layer 1
10
178.125814
20
425.629541
11
177.611718
21
416.856327
0
LINE
8
Layer 1
10
177.611718
20
416.856327
11
177.450509
21
405.182616
0
LINE
8
Layer 1
10
177.450509
20
405.182616
11
177.521820
21
396.692346
0
LINE
8
Layer 1
10
177.521820
20
396.692346
11
177.757470
21
390.436451
0
LINE
8
Layer 1
10
177.757470
20
390.436451
11
178.197180
21
385.772489
0
LINE
8
Layer 1
10
178.197180
20
385.772489
11
178.880671
21
382.058018
0
LINE
8
Layer 1
10
178.880671
20
382.058018
11
179.917849
21
378.703998
0
LINE
8
Layer 1
10
179.917849
20
378.703998
11
181.384248
21
375.604611
0
LINE
8
Layer 1
10
181.384248
20
375.604611
11
183.289856
21
372.750171
0
LINE
8
Layer 1
10
183.289856
20
372.750171
11
185.644660
21
370.130991
0
LINE
8
Layer 1
10
185.644660
20
370.130991
11
188.458649
21
367.737384
0
LINE
8
Layer 1
10
188.458649
20
367.737384
11
191.741810
21
365.559666
0
LINE
8
Layer 1
10
191.741810
20
365.559666
11
195.504133
21
363.588149
0
LINE
8
Layer 1
10
195.504133
20
363.588149
11
199.755604
21
361.813147
0
LINE
8
Layer 1
10
199.755604
20
361.813147
11
204.223587
21
360.339318
0
LINE
8
Layer 1
10
204.223587
20
360.339318
11
206.495928
21
359.824665
0
LINE
8
Layer 1
10
206.495928
20
359.824665
11
209.120757
21
359.416814
0
LINE
8
Layer 1
10
209.120757
20
359.416814
11
216.408638
21
358.797391
0
LINE
8
Layer 1
10
216.408638
20
358.797391
11
228.048752
21
358.232803
0
LINE
8
Layer 1
10
228.048752
20
358.232803
11
243.005277
21
357.770217
0
LINE
8
Layer 1
10
243.005277
20
357.770217
11
257.838076
21
357.604990
0
LINE
8
Layer 1
10
257.838076
20
357.604990
11
270.258469
21
357.739735
0
LINE
8
Layer 1
10
270.258469
20
357.739735
11
274.848800
21
357.920413
0
LINE
8
Layer 1
10
274.848800
20
357.920413
11
277.977775
21
358.177064
0
LINE
8
Layer 1
10
277.977775
20
358.177064
11
281.672425
21
358.718275
0
LINE
8
Layer 1
10
281.672425
20
358.718275
11
285.074742
21
359.364823
0
LINE
8
Layer 1
10
285.074742
20
359.364823
11
288.282790
21
360.137777
0
LINE
8
Layer 1
10
288.282790
20
360.137777
11
291.394628
21
361.058202
0
LINE
8
Layer 1
10
291.394628
20
361.058202
11
297.744632
21
363.022823
0
LINE
8
Layer 1
10
297.744632
20
363.022823
11
301.055057
21
364.169307
0
LINE
8
Layer 1
10
301.055057
20
364.169307
11
303.812766
21
365.368444
0
LINE
8
Layer 1
10
303.812766
20
365.368444
11
306.024419
21
366.701409
0
LINE
8
Layer 1
10
306.024419
20
366.701409
11
308.125009
21
368.314597
0
LINE
8
Layer 1
10
308.125009
20
368.314597
11
310.086453
21
370.172352
0
LINE
8
Layer 1
10
310.086453
20
370.172352
11
311.880667
21
372.239016
0
LINE
8
Layer 1
10
311.880667
20
372.239016
11
313.479569
21
374.478932
0
LINE
8
Layer 1
10
313.479569
20
374.478932
11
314.855076
21
376.856444
0
LINE
8
Layer 1
10
314.855076
20
376.856444
11
315.979105
21
379.335895
0
LINE
8
Layer 1
10
315.979105
20
379.335895
11
316.823572
21
381.881629
0
LINE
8
Layer 1
10
316.823572
20
381.881629
11
317.237397
21
383.627301
0
LINE
8
Layer 1
10
317.237397
20
383.627301
11
317.442829
21
385.454697
0
LINE
8
Layer 1
10
317.442829
20
385.454697
11
317.397189
21
392.464969
0
LINE
8
Layer 1
10
317.397189
20
392.464969
11
317.054641
21
399.482672
0
LINE
8
Layer 1
10
317.054641
20
399.482672
11
316.405971
21
406.479340
0
LINE
8
Layer 1
10
316.405971
20
406.479340
11
315.514016
21
412.907021
0
LINE
8
Layer 1
10
315.514016
20
412.907021
11
314.441615
21
418.217763
0
LINE
8
Layer 1
10
314.441615
20
418.217763
11
313.740953
21
420.403955
0
LINE
8
Layer 1
10
313.740953
20
420.403955
11
312.780466
21
422.414691
0
LINE
8
Layer 1
10
312.780466
20
422.414691
11
311.570997
21
424.239384
0
LINE
8
Layer 1
10
311.570997
20
424.239384
11
310.123392
21
425.867445
0
LINE
8
Layer 1
10
310.123392
20
425.867445
11
308.448492
21
427.288288
0
LINE
8
Layer 1
10
308.448492
20
427.288288
11
306.557142
21
428.491325
0
LINE
8
Layer 1
10
306.557142
20
428.491325
11
304.460186
21
429.465969
0
LINE
8
Layer 1
10
304.460186
20
429.465969
11
302.168468
21
430.201632
0
LINE
8
Layer 1
10
302.168468
20
430.201632
11
299.357574
21
430.646106
0
LINE
8
Layer 1
10
299.357574
20
430.646106
11
296.540970
21
430.569926
0
LINE
8
Layer 1
10
296.540970
20
430.569926
11
293.784187
21
430.004986
0
LINE
8
Layer 1
10
293.784187
20
430.004986
11
291.152755
21
428.983181
0
LINE
8
Layer 1
10
291.152755
20
428.983181
11
288.712203
21
427.536404
0
LINE
8
Layer 1
10
288.712203
20
427.536404
11
286.528061
21
425.696552
0
LINE
8
Layer 1
10
286.528061
20
425.696552
11
284.665860
21
423.495518
0
LINE
8
Layer 1
10
284.665860
20
423.495518
11
283.191128
21
420.965198
0
LINE
8
Layer 1
10
283.191128
20
420.965198
11
282.668122
21
419.683276
0
LINE
8
Layer 1
10
282.668122
20
419.683276
11
282.280437
21
418.324798
0
LINE
8
Layer 1
10
282.280437
20
418.324798
11
282.026442
21
416.838477
0
LINE
8
Layer 1
10
282.026442
20
416.838477
11
281.904503
21
415.173024
0
LINE
8
Layer 1
10
281.904503
20
415.173024
11
282.050261
21
411.099574
0
LINE
8
Layer 1
10
282.050261
20
411.099574
11
282.704648
21
405.694144
0
LINE
8
Layer 1
10
282.704648
20
405.694144
11
283.840240
21
396.678197
0
LINE
8
Layer 1
10
283.840240
20
396.678197
11
284.076248
21
393.835864
0
LINE
8
Layer 1
10
284.076248
20
393.835864
11
280.944638
21
392.896416
0
LINE
8
Layer 1
10
280.944638
20
392.896416
11
278.300115
21
392.192580
0
LINE
8
Layer 1
10
278.300115
20
392.192580
11
275.698124
21
391.674217
0
LINE
8
Layer 1
10
275.698124
20
391.674217
11
273.204082
21
391.352175
0
LINE
8
Layer 1
10
273.204082
20
391.352175
11
270.883410
21
391.237302
0
LINE
8
Layer 1
10
270.883410
20
391.237302
11
268.893036
21
391.230246
0
LINE
8
Layer 1
10
268.893036
20
391.230246
11
268.660203
21
394.846220
0
LINE
8
Layer 1
10
268.660203
20
394.846220
11
268.144529
21
401.539125
0
LINE
8
Layer 1
10
268.144529
20
401.539125
11
267.434123
21
408.214831
0
LINE
8
Layer 1
10
267.434123
20
408.214831
11
266.447226
21
415.548424
0
LINE
8
Layer 1
10
266.447226
20
415.548424
11
265.102084
21
424.214989
0
LINE
8
Layer 1
10
265.102084
20
424.214989
11
263.151591
21
437.360489
0
LINE
8
Layer 1
10
263.151591
20
437.360489
11
261.865037
21
448.566196
0
LINE
8
Layer 1
10
261.865037
20
448.566196
11
261.278637
21
457.443568
0
LINE
8
Layer 1
10
261.278637
20
457.443568
11
261.259312
21
460.887709
0
LINE
8
Layer 1
10
261.259312
20
460.887709
11
261.428606
21
463.604064
0
LINE
8
Layer 1
10
261.428606
20
463.604064
11
261.893287
21
468.198435
0
LINE
8
Layer 1
10
261.893287
20
468.198435
11
262.053861
21
471.432649
0
LINE
8
Layer 1
10
262.053861
20
471.432649
11
261.911951
21
473.794134
0
LINE
8
Layer 1
10
261.911951
20
473.794134
11
261.469176
21
475.770319
0
LINE
8
Layer 1
10
261.469176
20
475.770319
11
260.584767
21
478.078563
0
LINE
8
Layer 1
10
260.584767
20
478.078563
11
259.410077
21
480.185435
0
LINE
8
Layer 1
10
259.410077
20
480.185435
11
257.967794
21
482.071792
0
LINE
8
Layer 1
10
257.967794
20
482.071792
11
256.280605
21
483.718495
0
LINE
8
Layer 1
10
256.280605
20
483.718495
11
254.371200
21
485.106402
0
LINE
8
Layer 1
10
254.371200
20
485.106402
11
252.262265
21
486.216373
0
LINE
8
Layer 1
10
252.262265
20
486.216373
11
249.976490
21
487.029266
0
LINE
8
Layer 1
10
249.976490
20
487.029266
11
247.536561
21
487.525940
0
LINE
8
Layer 1
10
247.536561
20
487.525940
11
244.473170
21
487.830917
0
LINE
8
Layer 1
10
244.473170
20
487.830917
11
241.785222
21
487.365426
0
LINE
8
Layer 1
10
280.987677
20
164.892467
11
271.039558
21
164.054355
0
LINE
8
Layer 1
10
271.039558
20
164.054355
11
264.230722
21
163.154330
0
LINE
8
Layer 1
10
264.230722
20
163.154330
11
258.583303
21
162.269265
0
LINE
8
Layer 1
10
258.583303
20
162.269265
11
254.545246
21
161.763679
0
LINE
8
Layer 1
10
254.545246
20
161.763679
11
250.852008
21
161.513945
0
LINE
8
Layer 1
10
250.852008
20
161.513945
11
246.239044
21
161.396437
0
LINE
8
Layer 1
10
246.239044
20
161.396437
11
241.192329
21
161.221404
0
LINE
8
Layer 1
10
241.192329
20
161.221404
11
237.729113
21
160.809238
0
LINE
8
Layer 1
10
237.729113
20
160.809238
11
235.160123
21
160.022951
0
LINE
8
Layer 1
10
235.160123
20
160.022951
11
232.796086
21
158.725555
0
LINE
8
Layer 1
10
232.796086
20
158.725555
11
231.253845
21
157.503775
0
LINE
8
Layer 1
10
231.253845
20
157.503775
11
229.577030
21
155.819899
0
LINE
8
Layer 1
10
229.577030
20
155.819899
11
228.056651
21
153.993413
0
LINE
8
Layer 1
10
228.056651
20
153.993413
11
226.983715
21
152.343801
0
LINE
8
Layer 1
10
226.983715
20
152.343801
11
226.295390
21
150.760280
0
LINE
8
Layer 1
10
226.295390
20
150.760280
11
225.804908
21
149.046914
0
LINE
8
Layer 1
10
225.804908
20
149.046914
11
225.507835
21
147.183530
0
LINE
8
Layer 1
10
225.507835
20
147.183530
11
225.399742
21
145.149952
0
LINE
8
Layer 1
10
225.399742
20
145.149952
11
225.461402
21
143.231522
0
LINE
8
Layer 1
10
225.461402
20
143.231522
11
225.678508
21
141.443192
0
LINE
8
Layer 1
10
225.678508
20
141.443192
11
226.056788
21
139.771164
0
LINE
8
Layer 1
10
226.056788
20
139.771164
11
226.601965
21
138.201637
0
LINE
8
Layer 1
10
226.601965
20
138.201637
11
227.319767
21
136.720811
0
LINE
8
Layer 1
10
227.319767
20
136.720811
11
228.215919
21
135.314887
0
LINE
8
Layer 1
10
228.215919
20
135.314887
11
229.296147
21
133.970066
0
LINE
8
Layer 1
10
229.296147
20
133.970066
11
230.566176
21
132.672547
0
LINE
8
Layer 1
10
230.566176
20
132.672547
11
232.166602
21
131.284721
0
LINE
8
Layer 1
10
232.166602
20
131.284721
11
233.749661
21
130.190930
0
LINE
8
Layer 1
10
233.749661
20
130.190930
11
235.441422
21
129.361789
0
LINE
8
Layer 1
10
235.441422
20
129.361789
11
237.367956
21
128.767912
0
LINE
8
Layer 1
10
237.367956
20
128.767912
11
239.655332
21
128.379914
0
LINE
8
Layer 1
10
239.655332
20
128.379914
11
242.429620
21
128.168410
0
LINE
8
Layer 1
10
242.429620
20
128.168410
11
249.943213
21
128.157341
0
LINE
8
Layer 1
10
249.943213
20
128.157341
11
257.618031
21
128.496096
0
LINE
8
Layer 1
10
257.618031
20
128.496096
11
264.054333
21
129.273531
0
LINE
8
Layer 1
10
264.054333
20
129.273531
11
274.094252
21
130.687140
0
LINE
8
Layer 1
10
274.094252
20
130.687140
11
282.132265
21
131.413791
0
LINE
8
Layer 1
10
282.132265
20
131.413791
11
289.333401
21
131.517017
0
LINE
8
Layer 1
10
289.333401
20
131.517017
11
296.862687
21
131.060352
0
LINE
8
Layer 1
10
296.862687
20
131.060352
11
302.265821
21
130.739016
0
LINE
8
Layer 1
10
302.265821
20
130.739016
11
308.718475
21
130.600709
0
LINE
8
Layer 1
10
308.718475
20
130.600709
11
315.755561
21
130.629066
0
LINE
8
Layer 1
10
315.755561
20
130.629066
11
322.911991
21
130.807718
0
LINE
8
Layer 1
10
322.911991
20
130.807718
11
329.722676
21
131.120300
0
LINE
8
Layer 1
10
329.722676
20
131.120300
11
335.722529
21
131.550443
0
LINE
8
Layer 1
10
335.722529
20
131.550443
11
340.446460
21
132.081781
0
LINE
8
Layer 1
10
340.446460
20
132.081781
11
343.429383
21
132.697947
0
LINE
8
Layer 1
10
343.429383
20
132.697947
11
346.283857
21
133.951457
0
LINE
8
Layer 1
10
346.283857
20
133.951457
11
348.793207
21
135.657016
0
LINE
8
Layer 1
10
348.793207
20
135.657016
11
350.919920
21
137.750008
0
LINE
8
Layer 1
10
350.919920
20
137.750008
11
352.626482
21
140.165816
0
LINE
8
Layer 1
10
352.626482
20
140.165816
11
353.875381
21
142.839825
0
LINE
8
Layer 1
10
353.875381
20
142.839825
11
354.629103
21
145.707419
0
LINE
8
Layer 1
10
354.629103
20
145.707419
11
354.850137
21
148.703980
0
LINE
8
Layer 1
10
354.850137
20
148.703980
11
354.500968
21
151.764892
0
LINE
8
Layer 1
10
354.500968
20
151.764892
11
354.013385
21
153.513066
0
LINE
8
Layer 1
10
354.013385
20
153.513066
11
353.305144
21
155.222635
0
LINE
8
Layer 1
10
353.305144
20
155.222635
11
352.397151
21
156.866835
0
LINE
8
Layer 1
10
352.397151
20
156.866835
11
351.310311
21
158.418903
0
LINE
8
Layer 1
10
351.310311
20
158.418903
11
350.065532
21
159.852073
0
LINE
8
Layer 1
10
350.065532
20
159.852073
11
348.683719
21
161.139582
0
LINE
8
Layer 1
10
348.683719
20
161.139582
11
347.185779
21
162.254665
0
LINE
8
Layer 1
10
347.185779
20
162.254665
11
345.592618
21
163.170558
0
LINE
8
Layer 1
10
345.592618
20
163.170558
11
342.899367
21
164.287877
0
LINE
8
Layer 1
10
342.899367
20
164.287877
11
341.507940
21
164.628299
0
LINE
8
Layer 1
10
341.507940
20
164.628299
11
339.912098
21
164.838095
0
LINE
8
Layer 1
10
339.912098
20
164.838095
11
335.583523
21
164.910409
0
LINE
8
Layer 1
10
335.583523
20
164.910409
11
328.866354
21
164.594017
0
LINE
8
Layer 1
10
328.866354
20
164.594017
11
320.452627
21
164.229217
0
LINE
8
Layer 1
10
320.452627
20
164.229217
11
311.929262
21
164.065071
0
LINE
8
Layer 1
10
311.929262
20
164.065071
11
304.566824
21
164.111070
0
LINE
8
Layer 1
10
304.566824
20
164.111070
11
299.635875
21
164.376706
0
LINE
8
Layer 1
10
299.635875
20
164.376706
11
295.762499
21
164.640749
0
LINE
8
Layer 1
10
295.762499
20
164.640749
11
290.146544
21
164.848370
0
LINE
8
Layer 1
10
290.146544
20
164.848370
11
284.613204
21
164.949099
0
LINE
8
Layer 1
10
284.613204
20
164.949099
11
280.987677
21
164.892467
 0 
ENDSEC
 0 
EOF