<?xml version="1.0" encoding="utf-8"?>
<svg version="1.0" xmlns="http://www.w3.org/2000/svg" width="2160.000000pt" height="1620.000000pt" viewBox="0 0 2160.000000 1620.000000" preserveAspectRatio="xMidYMid meet" xmlns:bx="https://boxy-svg.com">
  <defs>
    <bx:export>
      <bx:file format="svg" units="pt"/>
    </bx:export>
  </defs>
  <g transform="translate(0.000000,1620.000000) scale(0.100000,-0.100000)" fill="#000000" stroke="none">
    <path d="M11848 15180 c-173 -31 -313 -134 -385 -282 -49 -101 -58 -155 -56 -333 1 -170 8 -260 78 -1130 51 -625 95 -1221 95 -1279 l0 -38 -87 6 c-104 8 -354 34 -401 42 -40 6 -56 38 -93 184 -22 88 -24 113 -24 355 0 143 2 377 5 520 4 227 3 267 -12 313 -65 200 -231 345 -426 371 -161 21 -310 -27 -428 -141 -64 -61 -113 -141 -140 -225 -21 -67 -37 -518 -31 -903 3 -285 6 -313 31 -433 15 -71 40 -172 55 -225 16 -53 31 -111 34 -129 8 -43 85 -197 138 -276 82 -121 272 -283 403 -343 148 -67 479 -121 858 -140 176 -8 1052 13 1248 31 91 8 294 21 452 30 158 8 320 21 361 30 374 77 606 304 688 670 9 40 14 131 14 270 0 201 -2 221 -43 470 -24 143 -52 311 -62 374 -24 148 -65 235 -152 321 -195 193 -504 200 -705 17 -102 -93 -159 -208 -169 -342 -5 -54 4 -132 35 -335 23 -146 48 -301 56 -345 9 -43 12 -82 8 -86 -5 -5 -53 -11 -108 -14 -128 -7 -414 -25 -440 -28 -27 -3 -31 23 -55 368 -11 165 -43 577 -70 915 -74 915 -81 1013 -81 1155 0 198 -33 304 -129 417 -107 124 -305 196 -462 168z" style="fill: rgb(255, 255, 255);"/>
    <path d="M7425 14920 c-199 -27 -360 -159 -426 -348 -33 -92 -53 -447 -39 -682 16 -287 58 -623 140 -1130 46 -282 68 -467 85 -694 l7 -89 -223 7 c-306 10 -467 23 -494 40 -19 12 -23 27 -28 98 -15 181 -8 518 14 698 29 244 28 355 -4 448 -32 93 -75 159 -144 222 -203 186 -514 179 -708 -15 -78 -78 -131 -180 -145 -280 -35 -257 -45 -429 -45 -800 0 -401 11 -564 46 -714 62 -268 261 -468 599 -603 209 -84 309 -101 685 -117 1092 -48 1553 -46 1895 10 69 11 171 36 227 54 56 19 145 46 199 60 198 54 298 109 414 225 115 114 198 269 227 423 30 157 1 573 -68 976 -25 148 -66 237 -148 318 -283 283 -765 154 -866 -232 -21 -84 -19 -153 15 -380 16 -110 32 -236 36 -281 l7 -80 -77 -28 c-85 -31 -228 -56 -323 -56 l-63 0 0 58 c0 155 -45 563 -90 827 -120 706 -166 1217 -126 1409 20 96 20 203 1 275 -68 256 -314 417 -580 381z" style="fill: rgb(255, 255, 255);"/>
    <path d="M13290 10709 c-63 -4 -216 -13 -340 -19 -124 -6 -304 -20 -400 -30 -413 -45 -791 -57 -1120 -35 -280 19 -289 18 -760 -25 -173 -16 -382 -34 -465 -40 -246 -18 -893 -23 -1205 -11 -157 6 -559 14 -895 17 -370 3 -693 11 -820 20 -298 20 -1073 20 -1170 -1 -182 -39 -340 -179 -390 -345 -4 -14 -27 -76 -52 -138 -57 -145 -67 -251 -60 -597 5 -242 6 -258 51 -505 43 -239 72 -510 59 -549 -3 -9 -16 -43 -28 -76 -38 -96 -48 -213 -42 -465 6 -247 15 -306 82 -530 39 -129 70 -202 111 -257 13 -17 24 -36 24 -42 0 -21 114 -110 198 -153 112 -59 194 -84 323 -98 57 -6 120 -13 139 -15 19 -3 373 -9 785 -14 542 -6 825 -13 1020 -27 249 -16 303 -17 683 -5 227 8 414 12 416 10 3 -2 -52 -118 -122 -256 l-126 -253 -506 0 c-456 0 -825 -13 -970 -35 -103 -15 -265 -26 -592 -40 -675 -28 -797 -43 -952 -119 -91 -44 -192 -123 -315 -247 -107 -106 -151 -231 -151 -428 0 -217 33 -584 80 -886 34 -214 36 -258 16 -332 -20 -75 -21 -310 -1 -422 30 -174 88 -343 185 -546 124 -257 306 -399 584 -458 140 -29 565 -31 756 -2 113 17 197 19 845 20 553 2 775 6 955 19 1052 73 1241 88 1286 97 71 14 180 68 236 118 108 96 172 239 172 386 0 200 -108 371 -289 461 -121 60 -151 61 -583 30 -1150 -82 -1047 -77 -1837 -80 -623 -2 -748 -5 -855 -19 -69 -10 -181 -20 -250 -24 -165 -8 -158 -16 -145 172 10 133 -9 430 -40 640 -47 314 -55 374 -61 475 l-7 100 54 0 c193 0 906 40 989 55 131 24 353 30 1105 30 713 0 825 2 939 18 271 36 500 46 1576 67 272 6 540 14 595 20 55 5 323 12 595 16 519 6 703 19 1080 75 170 25 448 45 460 33 5 -5 21 -99 35 -209 14 -110 32 -245 39 -300 9 -66 11 -124 6 -170 -8 -69 -3 -134 34 -420 9 -66 18 -157 21 -202 l6 -83 -28 -11 c-18 -7 -160 -15 -383 -19 -239 -6 -389 -13 -460 -24 -58 -9 -181 -23 -275 -32 -184 -16 -279 -35 -450 -88 -72 -22 -149 -38 -223 -45 -62 -7 -143 -18 -180 -26 -37 -8 -105 -19 -152 -26 -97 -13 -224 -48 -290 -78 -161 -75 -301 -204 -395 -364 -15 -27 -49 -70 -74 -97 -25 -27 -71 -81 -101 -120 -30 -40 -67 -84 -81 -99 -27 -27 -128 -146 -268 -316 -45 -55 -91 -111 -102 -123 -10 -13 -19 -26 -19 -30 0 -3 -49 -55 -108 -116 -141 -144 -260 -295 -348 -443 -108 -178 -263 -466 -286 -531 -26 -70 -34 -199 -18 -275 38 -184 190 -344 374 -393 69 -19 200 -18 267 2 123 36 247 129 302 226 13 24 68 122 121 218 172 312 173 315 353 503 104 109 153 166 225 262 30 40 150 181 197 230 67 71 389 466 409 501 9 17 231 62 362 74 138 13 252 36 320 67 58 26 151 44 360 68 69 8 179 22 245 30 76 10 205 15 355 15 433 0 740 55 997 176 78 37 106 57 181 131 101 101 147 179 184 313 21 79 23 101 20 320 -1 129 -7 281 -12 337 -9 84 -8 113 5 162 29 111 20 219 -39 478 -14 60 -30 153 -36 208 -29 255 -83 605 -109 707 -61 242 -185 432 -356 547 -88 58 -162 88 -268 107 -68 12 -118 12 -355 -1 -336 -18 -362 -20 -582 -50 -406 -56 -519 -64 -1020 -69 -261 -3 -542 -9 -625 -15 -82 -6 -366 -15 -630 -21 -264 -6 -573 -14 -687 -17 -134 -4 -208 -3 -208 4 0 5 39 61 86 124 94 124 156 240 175 325 9 39 18 55 33 60 11 4 331 3 711 -1 681 -7 896 -1 1025 27 25 5 230 13 455 18 226 5 455 13 510 20 55 6 215 15 355 20 275 10 399 25 582 70 309 75 496 211 578 420 42 105 70 390 70 705 0 162 -12 221 -66 325 l-37 70 13 269 c29 609 -18 1016 -148 1276 -108 217 -226 329 -518 493 -268 151 -462 183 -924 151z m418 -1051 c112 -59 115 -64 129 -205 l6 -63 -149 0 c-82 0 -268 -5 -414 -11 -218 -8 -322 -7 -582 6 -258 14 -351 15 -495 6 -303 -19 -526 -30 -833 -41 -162 -6 -356 -17 -430 -25 -74 -8 -198 -19 -275 -25 -310 -23 -406 -32 -535 -52 -100 -15 -222 -22 -475 -28 -717 -18 -1836 -31 -2367 -28 -643 4 -607 -2 -627 95 -7 32 -15 109 -18 171 l-6 112 199 0 c109 0 282 -7 384 -16 129 -10 360 -16 765 -19 319 -2 735 -9 925 -15 373 -14 1109 -8 1360 10 80 5 294 24 475 41 369 35 441 37 705 19 284 -20 762 -3 1170 40 102 11 282 24 400 31 118 6 269 14 335 18 255 17 283 15 353 -21z m-678 -1312 c113 -1 313 1 445 4 196 4 252 2 305 -11 l65 -16 8 -84 c8 -92 26 -164 56 -222 12 -24 15 -39 9 -43 -6 -4 -83 -9 -172 -11 -88 -2 -249 -11 -356 -20 -107 -8 -375 -19 -595 -23 -302 -6 -426 -12 -505 -26 -117 -19 -347 -22 -1150 -15 -449 4 -460 4 -810 -28 -314 -29 -413 -34 -865 -41 -280 -5 -584 -12 -675 -15 -115 -5 -238 -2 -405 9 -320 22 -834 36 -1304 36 -211 0 -386 2 -389 5 -3 2 7 31 21 62 35 80 47 129 47 195 l0 58 663 -1 c656 0 1623 13 2307 31 262 7 390 15 490 29 133 20 237 30 515 51 77 6 201 17 275 25 74 8 263 19 420 25 373 13 724 31 730 37 3 3 154 2 335 -3 182 -4 422 -8 535 -8z" style="fill: rgb(255, 255, 255);"/>
    <path d="M8490 5035 c-212 -15 -300 -26 -490 -60 -196 -35 -355 -48 -505 -40 -221 11 -356 -35 -475 -162 -98 -104 -140 -209 -140 -347 0 -184 84 -341 234 -438 101 -65 164 -80 376 -85 227 -7 397 7 667 52 360 61 654 73 943 40 224 -25 544 -24 984 4 312 20 358 25 427 47 241 80 388 334 340 586 -30 152 -133 288 -271 357 -127 63 -162 66 -553 42 -398 -25 -670 -26 -857 -5 -192 21 -465 25 -680 9z" style="fill: rgb(255, 255, 255);"/>
  </g>
  <path d="M 460.901 143.651 H 1883.603 A 105.229 105.229 0 0 1 1988.832 248.88 V 1690.512 A 105.229 105.229 0 0 1 1883.603 1795.741 H 460.901 A 105.229 105.229 0 0 1 355.672 1690.512 V 248.88 A 105.229 105.229 0 0 1 460.901 143.651 Z M 447.748 294.918 V 1644.474 A 59.191 59.191 0 0 0 506.939 1703.665 H 1837.565 A 59.191 59.191 0 0 0 1896.756 1644.474 V 294.918 A 59.191 59.191 0 0 0 1837.565 235.727 H 506.939 A 59.191 59.191 0 0 0 447.748 294.918 Z" bx:shape="frame 355.672 143.651 1633.16 1652.09 92.076 92.076 105.229 105.229 105.229 105.229 1@13681375" style="fill: rgb(255, 255, 255);" transform="matrix(0.999996678707, -0.002577319172, 0.002577319172, 0.999996678707, -169.834, -142.717)"/>
</svg>