<?xml version="1.0"?>
<svg width="2160" height="1620" xmlns="http://www.w3.org/2000/svg" xmlns:svg="http://www.w3.org/2000/svg" preserveAspectRatio="xMidYMid meet" version="1.0">

 <g class="layer">
  <title>Layer 1</title>
  <g fill="#000000" id="svg_1" transform="translate(0.000000,1620.000000) scale(0.100000,-0.100000)">
   <path d="m11848,15180c-173,-31 -313,-134 -385,-282c-49,-101 -58,-155 -56,-333c1,-170 8,-260 78,-1130c51,-625 95,-1221 95,-1279l0,-38l-87,6c-104,8 -354,34 -401,42c-40,6 -56,38 -93,184c-22,88 -24,113 -24,355c0,143 2,377 5,520c4,227 3,267 -12,313c-65,200 -231,345 -426,371c-161,21 -310,-27 -428,-141c-64,-61 -113,-141 -140,-225c-21,-67 -37,-518 -31,-903c3,-285 6,-313 31,-433c15,-71 40,-172 55,-225c16,-53 31,-111 34,-129c8,-43 85,-197 138,-276c82,-121 272,-283 403,-343c148,-67 479,-121 858,-140c176,-8 1052,13 1248,31c91,8 294,21 452,30c158,8 320,21 361,30c374,77 606,304 688,670c9,40 14,131 14,270c0,201 -2,221 -43,470c-24,143 -52,311 -62,374c-24,148 -65,235 -152,321c-195,193 -504,200 -705,17c-102,-93 -159,-208 -169,-342c-5,-54 4,-132 35,-335c23,-146 48,-301 56,-345c9,-43 12,-82 8,-86c-5,-5 -53,-11 -108,-14c-128,-7 -414,-25 -440,-28c-27,-3 -31,23 -55,368c-11,165 -43,577 -70,915c-74,915 -81,1013 -81,1155c0,198 -33,304 -129,417c-107,124 -305,196 -462,168z" fill="rgb(221, 15, 15)" id="svg_2"/>
   <path d="m7425,14920c-199,-27 -360,-159 -426,-348c-33,-92 -53,-447 -39,-682c16,-287 58,-623 140,-1130c46,-282 68,-467 85,-694l7,-89l-223,7c-306,10 -467,23 -494,40c-19,12 -23,27 -28,98c-15,181 -8,518 14,698c29,244 28,355 -4,448c-32,93 -75,159 -144,222c-203,186 -514,179 -708,-15c-78,-78 -131,-180 -145,-280c-35,-257 -45,-429 -45,-800c0,-401 11,-564 46,-714c62,-268 261,-468 599,-603c209,-84 309,-101 685,-117c1092,-48 1553,-46 1895,10c69,11 171,36 227,54c56,19 145,46 199,60c198,54 298,109 414,225c115,114 198,269 227,423c30,157 1,573 -68,976c-25,148 -66,237 -148,318c-283,283 -765,154 -866,-232c-21,-84 -19,-153 15,-380c16,-110 32,-236 36,-281l7,-80l-77,-28c-85,-31 -228,-56 -323,-56l-63,0l0,58c0,155 -45,563 -90,827c-120,706 -166,1217 -126,1409c20,96 20,203 1,275c-68,256 -314,417 -580,381z" fill="rgb(221, 15, 15)" id="svg_3"/>
   <path d="m13290,10709c-63,-4 -216,-13 -340,-19c-124,-6 -304,-20 -400,-30c-413,-45 -791,-57 -1120,-35c-280,19 -289,18 -760,-25c-173,-16 -382,-34 -465,-40c-246,-18 -893,-23 -1205,-11c-157,6 -559,14 -895,17c-370,3 -693,11 -820,20c-298,20 -1073,20 -1170,-1c-182,-39 -340,-179 -390,-345c-4,-14 -27,-76 -52,-138c-57,-145 -67,-251 -60,-597c5,-242 6,-258 51,-505c43,-239 72,-510 59,-549c-3,-9 -16,-43 -28,-76c-38,-96 -48,-213 -42,-465c6,-247 15,-306 82,-530c39,-129 70,-202 111,-257c13,-17 24,-36 24,-42c0,-21 114,-110 198,-153c112,-59 194,-84 323,-98c57,-6 120,-13 139,-15c19,-3 373,-9 785,-14c542,-6 825,-13 1020,-27c249,-16 303,-17 683,-5c227,8 414,12 416,10c3,-2 -52,-118 -122,-256l-126,-253l-506,0c-456,0 -825,-13 -970,-35c-103,-15 -265,-26 -592,-40c-675,-28 -797,-43 -952,-119c-91,-44 -192,-123 -315,-247c-107,-106 -151,-231 -151,-428c0,-217 33,-584 80,-886c34,-214 36,-258 16,-332c-20,-75 -21,-310 -1,-422c30,-174 88,-343 185,-546c124,-257 306,-399 584,-458c140,-29 565,-31 756,-2c113,17 197,19 845,20c553,2 775,6 955,19c1052,73 1241,88 1286,97c71,14 180,68 236,118c108,96 172,239 172,386c0,200 -108,371 -289,461c-121,60 -151,61 -583,30c-1150,-82 -1047,-77 -1837,-80c-623,-2 -748,-5 -855,-19c-69,-10 -181,-20 -250,-24c-165,-8 -158,-16 -145,172c10,133 -9,430 -40,640c-47,314 -55,374 -61,475l-7,100l54,0c193,0 906,40 989,55c131,24 353,30 1105,30c713,0 825,2 939,18c271,36 500,46 1576,67c272,6 540,14 595,20c55,5 323,12 595,16c519,6 703,19 1080,75c170,25 448,45 460,33c5,-5 21,-99 35,-209c14,-110 32,-245 39,-300c9,-66 11,-124 6,-170c-8,-69 -3,-134 34,-420c9,-66 18,-157 21,-202l6,-83l-28,-11c-18,-7 -160,-15 -383,-19c-239,-6 -389,-13 -460,-24c-58,-9 -181,-23 -275,-32c-184,-16 -279,-35 -450,-88c-72,-22 -149,-38 -223,-45c-62,-7 -143,-18 -180,-26c-37,-8 -105,-19 -152,-26c-97,-13 -224,-48 -290,-78c-161,-75 -301,-204 -395,-364c-15,-27 -49,-70 -74,-97c-25,-27 -71,-81 -101,-120c-30,-40 -67,-84 -81,-99c-27,-27 -128,-146 -268,-316c-45,-55 -91,-111 -102,-123c-10,-13 -19,-26 -19,-30c0,-3 -49,-55 -108,-116c-141,-144 -260,-295 -348,-443c-108,-178 -263,-466 -286,-531c-26,-70 -34,-199 -18,-275c38,-184 190,-344 374,-393c69,-19 200,-18 267,2c123,36 247,129 302,226c13,24 68,122 121,218c172,312 173,315 353,503c104,109 153,166 225,262c30,40 150,181 197,230c67,71 389,466 409,501c9,17 231,62 362,74c138,13 252,36 320,67c58,26 151,44 360,68c69,8 179,22 245,30c76,10 205,15 355,15c433,0 740,55 997,176c78,37 106,57 181,131c101,101 147,179 184,313c21,79 23,101 20,320c-1,129 -7,281 -12,337c-9,84 -8,113 5,162c29,111 20,219 -39,478c-14,60 -30,153 -36,208c-29,255 -83,605 -109,707c-61,242 -185,432 -356,547c-88,58 -162,88 -268,107c-68,12 -118,12 -355,-1c-336,-18 -362,-20 -582,-50c-406,-56 -519,-64 -1020,-69c-261,-3 -542,-9 -625,-15c-82,-6 -366,-15 -630,-21c-264,-6 -573,-14 -687,-17c-134,-4 -208,-3 -208,4c0,5 39,61 86,124c94,124 156,240 175,325c9,39 18,55 33,60c11,4 331,3 711,-1c681,-7 896,-1 1025,27c25,5 230,13 455,18c226,5 455,13 510,20c55,6 215,15 355,20c275,10 399,25 582,70c309,75 496,211 578,420c42,105 70,390 70,705c0,162 -12,221 -66,325l-37,70l13,269c29,609 -18,1016 -148,1276c-108,217 -226,329 -518,493c-268,151 -462,183 -924,151zm418,-1051c112,-59 115,-64 129,-205l6,-63l-149,0c-82,0 -268,-5 -414,-11c-218,-8 -322,-7 -582,6c-258,14 -351,15 -495,6c-303,-19 -526,-30 -833,-41c-162,-6 -356,-17 -430,-25c-74,-8 -198,-19 -275,-25c-310,-23 -406,-32 -535,-52c-100,-15 -222,-22 -475,-28c-717,-18 -1836,-31 -2367,-28c-643,4 -607,-2 -627,95c-7,32 -15,109 -18,171l-6,112l199,0c109,0 282,-7 384,-16c129,-10 360,-16 765,-19c319,-2 735,-9 925,-15c373,-14 1109,-8 1360,10c80,5 294,24 475,41c369,35 441,37 705,19c284,-20 762,-3 1170,40c102,11 282,24 400,31c118,6 269,14 335,18c255,17 283,15 353,-21zm-678,-1312c113,-1 313,1 445,4c196,4 252,2 305,-11l65,-16l8,-84c8,-92 26,-164 56,-222c12,-24 15,-39 9,-43c-6,-4 -83,-9 -172,-11c-88,-2 -249,-11 -356,-20c-107,-8 -375,-19 -595,-23c-302,-6 -426,-12 -505,-26c-117,-19 -347,-22 -1150,-15c-449,4 -460,4 -810,-28c-314,-29 -413,-34 -865,-41c-280,-5 -584,-12 -675,-15c-115,-5 -238,-2 -405,9c-320,22 -834,36 -1304,36c-211,0 -386,2 -389,5c-3,2 7,31 21,62c35,80 47,129 47,195l0,58l663,-1c656,0 1623,13 2307,31c262,7 390,15 490,29c133,20 237,30 515,51c77,6 201,17 275,25c74,8 263,19 420,25c373,13 724,31 730,37c3,3 154,2 335,-3c182,-4 422,-8 535,-8z" fill="rgb(221, 15, 15)" id="svg_4"/>
   <path d="m8490,5035c-212,-15 -300,-26 -490,-60c-196,-35 -355,-48 -505,-40c-221,11 -356,-35 -475,-162c-98,-104 -140,-209 -140,-347c0,-184 84,-341 234,-438c101,-65 164,-80 376,-85c227,-7 397,7 667,52c360,61 654,73 943,40c224,-25 544,-24 984,4c312,20 358,25 427,47c241,80 388,334 340,586c-30,152 -133,288 -271,357c-127,63 -162,66 -553,42c-398,-25 -670,-26 -857,-5c-192,21 -465,25 -680,9z" fill="rgb(221, 15, 15)" id="svg_5"/>
  </g>
 </g>
</svg>